<?xml version="1.0" encoding="utf-8" standalone="no"?>
<!DOCTYPE svg PUBLIC "-//W3C//DTD SVG 1.1//EN"
  "http://www.w3.org/Graphics/SVG/1.1/DTD/svg11.dtd">
<svg xmlns:xlink="http://www.w3.org/1999/xlink" width="204.710037pt" height="205.311688pt" viewBox="0 0 204.710037 205.311688" xmlns="http://www.w3.org/2000/svg" version="1.1">
 <metadata>
  <rdf:RDF xmlns:dc="http://purl.org/dc/elements/1.1/" xmlns:cc="http://creativecommons.org/ns#" xmlns:rdf="http://www.w3.org/1999/02/22-rdf-syntax-ns#">
   <cc:Work>
    <dc:type rdf:resource="http://purl.org/dc/dcmitype/StillImage"/>
    <dc:date>2024-10-01T10:11:05.373426</dc:date>
    <dc:format>image/svg+xml</dc:format>
    <dc:creator>
     <cc:Agent>
      <dc:title>Matplotlib v3.7.5, https://matplotlib.org/</dc:title>
     </cc:Agent>
    </dc:creator>
   </cc:Work>
  </rdf:RDF>
 </metadata>
 <defs>
  <style type="text/css">*{stroke-linejoin: round; stroke-linecap: butt}</style>
 </defs>
 <g id="figure_1">
  <g id="patch_1">
   <path d="M -0 205.311688 
L 204.710037 205.311688 
L 204.710037 0 
L -0 0 
z
" style="fill: #ffffff"/>
  </g>
  <g id="axes_1">
   <g id="patch_2">
    <path d="M 24.530037 173.52 
L 197.510038 173.52 
L 197.510038 7.2 
L 24.530037 7.2 
z
" style="fill: #ffffff"/>
   </g>
   <g id="matplotlib.axis_1">
    <g id="xtick_1">
     <g id="line2d_1">
      <path d="M 111.020038 173.52 
L 111.020038 7.2 
" clip-path="url(#p43c014a350)" style="fill: none; stroke: #cccccc; stroke-width: 0.8; stroke-linecap: round"/>
     </g>
     <g id="line2d_2">
      <defs>
       <path id="m978983f91d" d="M 0 0 
L 0 4.8 
" style="stroke: #262626"/>
      </defs>
      <g>
       <use xlink:href="#m978983f91d" x="111.020038" y="173.52" style="fill: #262626; stroke: #262626"/>
      </g>
     </g>
     <g id="text_1">
      <!-- Stag -->
      <g style="fill: #262626" transform="translate(113.069338 198.111688) rotate(-90) scale(0.0792 -0.0792)">
       <defs>
        <path id="ArialMT-53" d="M 288 1472 
L 859 1522 
Q 900 1178 1048 958 
Q 1197 738 1509 602 
Q 1822 466 2213 466 
Q 2559 466 2825 569 
Q 3091 672 3220 851 
Q 3350 1031 3350 1244 
Q 3350 1459 3225 1620 
Q 3100 1781 2813 1891 
Q 2628 1963 1997 2114 
Q 1366 2266 1113 2400 
Q 784 2572 623 2826 
Q 463 3081 463 3397 
Q 463 3744 659 4045 
Q 856 4347 1234 4503 
Q 1613 4659 2075 4659 
Q 2584 4659 2973 4495 
Q 3363 4331 3572 4012 
Q 3781 3694 3797 3291 
L 3216 3247 
Q 3169 3681 2898 3903 
Q 2628 4125 2100 4125 
Q 1550 4125 1298 3923 
Q 1047 3722 1047 3438 
Q 1047 3191 1225 3031 
Q 1400 2872 2139 2705 
Q 2878 2538 3153 2413 
Q 3553 2228 3743 1945 
Q 3934 1663 3934 1294 
Q 3934 928 3725 604 
Q 3516 281 3123 101 
Q 2731 -78 2241 -78 
Q 1619 -78 1198 103 
Q 778 284 539 648 
Q 300 1013 288 1472 
z
" transform="scale(0.015625)"/>
        <path id="ArialMT-74" d="M 1650 503 
L 1731 6 
Q 1494 -44 1306 -44 
Q 1000 -44 831 53 
Q 663 150 594 308 
Q 525 466 525 972 
L 525 2881 
L 113 2881 
L 113 3319 
L 525 3319 
L 525 4141 
L 1084 4478 
L 1084 3319 
L 1650 3319 
L 1650 2881 
L 1084 2881 
L 1084 941 
Q 1084 700 1114 631 
Q 1144 563 1211 522 
Q 1278 481 1403 481 
Q 1497 481 1650 503 
z
" transform="scale(0.015625)"/>
        <path id="ArialMT-61" d="M 2588 409 
Q 2275 144 1986 34 
Q 1697 -75 1366 -75 
Q 819 -75 525 192 
Q 231 459 231 875 
Q 231 1119 342 1320 
Q 453 1522 633 1644 
Q 813 1766 1038 1828 
Q 1203 1872 1538 1913 
Q 2219 1994 2541 2106 
Q 2544 2222 2544 2253 
Q 2544 2597 2384 2738 
Q 2169 2928 1744 2928 
Q 1347 2928 1158 2789 
Q 969 2650 878 2297 
L 328 2372 
Q 403 2725 575 2942 
Q 747 3159 1072 3276 
Q 1397 3394 1825 3394 
Q 2250 3394 2515 3294 
Q 2781 3194 2906 3042 
Q 3031 2891 3081 2659 
Q 3109 2516 3109 2141 
L 3109 1391 
Q 3109 606 3145 398 
Q 3181 191 3288 0 
L 2700 0 
Q 2613 175 2588 409 
z
M 2541 1666 
Q 2234 1541 1622 1453 
Q 1275 1403 1131 1340 
Q 988 1278 909 1158 
Q 831 1038 831 891 
Q 831 666 1001 516 
Q 1172 366 1500 366 
Q 1825 366 2078 508 
Q 2331 650 2450 897 
Q 2541 1088 2541 1459 
L 2541 1666 
z
" transform="scale(0.015625)"/>
        <path id="ArialMT-67" d="M 319 -275 
L 866 -356 
Q 900 -609 1056 -725 
Q 1266 -881 1628 -881 
Q 2019 -881 2231 -725 
Q 2444 -569 2519 -288 
Q 2563 -116 2559 434 
Q 2191 0 1641 0 
Q 956 0 581 494 
Q 206 988 206 1678 
Q 206 2153 378 2554 
Q 550 2956 876 3175 
Q 1203 3394 1644 3394 
Q 2231 3394 2613 2919 
L 2613 3319 
L 3131 3319 
L 3131 450 
Q 3131 -325 2973 -648 
Q 2816 -972 2473 -1159 
Q 2131 -1347 1631 -1347 
Q 1038 -1347 672 -1080 
Q 306 -813 319 -275 
z
M 784 1719 
Q 784 1066 1043 766 
Q 1303 466 1694 466 
Q 2081 466 2343 764 
Q 2606 1063 2606 1700 
Q 2606 2309 2336 2618 
Q 2066 2928 1684 2928 
Q 1309 2928 1046 2623 
Q 784 2319 784 1719 
z
" transform="scale(0.015625)"/>
       </defs>
       <use xlink:href="#ArialMT-53"/>
       <use xlink:href="#ArialMT-74" x="66.699219"/>
       <use xlink:href="#ArialMT-61" x="94.482422"/>
       <use xlink:href="#ArialMT-67" x="150.097656"/>
      </g>
     </g>
    </g>
   </g>
   <g id="matplotlib.axis_2">
    <g id="ytick_1">
     <g id="line2d_3">
      <path d="M 24.530037 155.228039 
L 197.510038 155.228039 
" clip-path="url(#p43c014a350)" style="fill: none; stroke: #cccccc; stroke-width: 0.8; stroke-linecap: round"/>
     </g>
     <g id="line2d_4">
      <defs>
       <path id="m9aea8785e8" d="M 0 0 
L -4.8 0 
" style="stroke: #262626"/>
      </defs>
      <g>
       <use xlink:href="#m9aea8785e8" x="24.530037" y="155.228039" style="fill: #262626; stroke: #262626"/>
      </g>
     </g>
     <g id="text_2">
      <!-- −2 -->
      <g style="fill: #262626" transform="translate(7.2 158.062533) scale(0.0792 -0.0792)">
       <defs>
        <path id="ArialMT-2212" d="M 3381 1997 
L 356 1997 
L 356 2522 
L 3381 2522 
L 3381 1997 
z
" transform="scale(0.015625)"/>
        <path id="ArialMT-32" d="M 3222 541 
L 3222 0 
L 194 0 
Q 188 203 259 391 
Q 375 700 629 1000 
Q 884 1300 1366 1694 
Q 2113 2306 2375 2664 
Q 2638 3022 2638 3341 
Q 2638 3675 2398 3904 
Q 2159 4134 1775 4134 
Q 1369 4134 1125 3890 
Q 881 3647 878 3216 
L 300 3275 
Q 359 3922 746 4261 
Q 1134 4600 1788 4600 
Q 2447 4600 2831 4234 
Q 3216 3869 3216 3328 
Q 3216 3053 3103 2787 
Q 2991 2522 2730 2228 
Q 2469 1934 1863 1422 
Q 1356 997 1212 845 
Q 1069 694 975 541 
L 3222 541 
z
" transform="scale(0.015625)"/>
       </defs>
       <use xlink:href="#ArialMT-2212"/>
       <use xlink:href="#ArialMT-32" x="58.398438"/>
      </g>
     </g>
    </g>
    <g id="ytick_2">
     <g id="line2d_5">
      <path d="M 24.530037 132.53753 
L 197.510038 132.53753 
" clip-path="url(#p43c014a350)" style="fill: none; stroke: #cccccc; stroke-width: 0.8; stroke-linecap: round"/>
     </g>
     <g id="line2d_6">
      <g>
       <use xlink:href="#m9aea8785e8" x="24.530037" y="132.53753" style="fill: #262626; stroke: #262626"/>
      </g>
     </g>
     <g id="text_3">
      <!-- −1 -->
      <g style="fill: #262626" transform="translate(7.2 135.372024) scale(0.0792 -0.0792)">
       <defs>
        <path id="ArialMT-31" d="M 2384 0 
L 1822 0 
L 1822 3584 
Q 1619 3391 1289 3197 
Q 959 3003 697 2906 
L 697 3450 
Q 1169 3672 1522 3987 
Q 1875 4303 2022 4600 
L 2384 4600 
L 2384 0 
z
" transform="scale(0.015625)"/>
       </defs>
       <use xlink:href="#ArialMT-2212"/>
       <use xlink:href="#ArialMT-31" x="58.398438"/>
      </g>
     </g>
    </g>
    <g id="ytick_3">
     <g id="line2d_7">
      <path d="M 24.530037 109.847021 
L 197.510038 109.847021 
" clip-path="url(#p43c014a350)" style="fill: none; stroke: #cccccc; stroke-width: 0.8; stroke-linecap: round"/>
     </g>
     <g id="line2d_8">
      <g>
       <use xlink:href="#m9aea8785e8" x="24.530037" y="109.847021" style="fill: #262626; stroke: #262626"/>
      </g>
     </g>
     <g id="text_4">
      <!-- 0 -->
      <g style="fill: #262626" transform="translate(11.825775 112.681515) scale(0.0792 -0.0792)">
       <defs>
        <path id="ArialMT-30" d="M 266 2259 
Q 266 3072 433 3567 
Q 600 4063 929 4331 
Q 1259 4600 1759 4600 
Q 2128 4600 2406 4451 
Q 2684 4303 2865 4023 
Q 3047 3744 3150 3342 
Q 3253 2941 3253 2259 
Q 3253 1453 3087 958 
Q 2922 463 2592 192 
Q 2263 -78 1759 -78 
Q 1097 -78 719 397 
Q 266 969 266 2259 
z
M 844 2259 
Q 844 1131 1108 757 
Q 1372 384 1759 384 
Q 2147 384 2411 759 
Q 2675 1134 2675 2259 
Q 2675 3391 2411 3762 
Q 2147 4134 1753 4134 
Q 1366 4134 1134 3806 
Q 844 3388 844 2259 
z
" transform="scale(0.015625)"/>
       </defs>
       <use xlink:href="#ArialMT-30"/>
      </g>
     </g>
    </g>
    <g id="ytick_4">
     <g id="line2d_9">
      <path d="M 24.530037 87.156512 
L 197.510038 87.156512 
" clip-path="url(#p43c014a350)" style="fill: none; stroke: #cccccc; stroke-width: 0.8; stroke-linecap: round"/>
     </g>
     <g id="line2d_10">
      <g>
       <use xlink:href="#m9aea8785e8" x="24.530037" y="87.156512" style="fill: #262626; stroke: #262626"/>
      </g>
     </g>
     <g id="text_5">
      <!-- 1 -->
      <g style="fill: #262626" transform="translate(11.825775 89.991006) scale(0.0792 -0.0792)">
       <use xlink:href="#ArialMT-31"/>
      </g>
     </g>
    </g>
    <g id="ytick_5">
     <g id="line2d_11">
      <path d="M 24.530037 64.466003 
L 197.510038 64.466003 
" clip-path="url(#p43c014a350)" style="fill: none; stroke: #cccccc; stroke-width: 0.8; stroke-linecap: round"/>
     </g>
     <g id="line2d_12">
      <g>
       <use xlink:href="#m9aea8785e8" x="24.530037" y="64.466003" style="fill: #262626; stroke: #262626"/>
      </g>
     </g>
     <g id="text_6">
      <!-- 2 -->
      <g style="fill: #262626" transform="translate(11.825775 67.300497) scale(0.0792 -0.0792)">
       <use xlink:href="#ArialMT-32"/>
      </g>
     </g>
    </g>
    <g id="ytick_6">
     <g id="line2d_13">
      <path d="M 24.530037 41.775494 
L 197.510038 41.775494 
" clip-path="url(#p43c014a350)" style="fill: none; stroke: #cccccc; stroke-width: 0.8; stroke-linecap: round"/>
     </g>
     <g id="line2d_14">
      <g>
       <use xlink:href="#m9aea8785e8" x="24.530037" y="41.775494" style="fill: #262626; stroke: #262626"/>
      </g>
     </g>
     <g id="text_7">
      <!-- 3 -->
      <g style="fill: #262626" transform="translate(11.825775 44.609987) scale(0.0792 -0.0792)">
       <defs>
        <path id="ArialMT-33" d="M 269 1209 
L 831 1284 
Q 928 806 1161 595 
Q 1394 384 1728 384 
Q 2125 384 2398 659 
Q 2672 934 2672 1341 
Q 2672 1728 2419 1979 
Q 2166 2231 1775 2231 
Q 1616 2231 1378 2169 
L 1441 2663 
Q 1497 2656 1531 2656 
Q 1891 2656 2178 2843 
Q 2466 3031 2466 3422 
Q 2466 3731 2256 3934 
Q 2047 4138 1716 4138 
Q 1388 4138 1169 3931 
Q 950 3725 888 3313 
L 325 3413 
Q 428 3978 793 4289 
Q 1159 4600 1703 4600 
Q 2078 4600 2393 4439 
Q 2709 4278 2876 4000 
Q 3044 3722 3044 3409 
Q 3044 3113 2884 2869 
Q 2725 2625 2413 2481 
Q 2819 2388 3044 2092 
Q 3269 1797 3269 1353 
Q 3269 753 2831 336 
Q 2394 -81 1725 -81 
Q 1122 -81 723 278 
Q 325 638 269 1209 
z
" transform="scale(0.015625)"/>
       </defs>
       <use xlink:href="#ArialMT-33"/>
      </g>
     </g>
    </g>
    <g id="ytick_7">
     <g id="line2d_15">
      <path d="M 24.530037 19.084985 
L 197.510038 19.084985 
" clip-path="url(#p43c014a350)" style="fill: none; stroke: #cccccc; stroke-width: 0.8; stroke-linecap: round"/>
     </g>
     <g id="line2d_16">
      <g>
       <use xlink:href="#m9aea8785e8" x="24.530037" y="19.084985" style="fill: #262626; stroke: #262626"/>
      </g>
     </g>
     <g id="text_8">
      <!-- 4 -->
      <g style="fill: #262626" transform="translate(11.825775 21.919478) scale(0.0792 -0.0792)">
       <defs>
        <path id="ArialMT-34" d="M 2069 0 
L 2069 1097 
L 81 1097 
L 81 1613 
L 2172 4581 
L 2631 4581 
L 2631 1613 
L 3250 1613 
L 3250 1097 
L 2631 1097 
L 2631 0 
L 2069 0 
z
M 2069 1613 
L 2069 3678 
L 634 1613 
L 2069 1613 
z
" transform="scale(0.015625)"/>
       </defs>
       <use xlink:href="#ArialMT-34"/>
      </g>
     </g>
    </g>
   </g>
   <g id="line2d_17">
    <path d="M 98.046537 126.423797 
L 123.993538 126.423797 
L 123.993538 100.066329 
L 98.046537 100.066329 
L 98.046537 126.423797 
" clip-path="url(#p43c014a350)" style="fill: none; stroke: #4c4c4c; stroke-linecap: round"/>
   </g>
   <g id="line2d_18">
    <path d="M 111.020038 126.423797 
L 111.020038 133.970127 
" clip-path="url(#p43c014a350)" style="fill: none; stroke: #4c4c4c; stroke-linecap: round"/>
   </g>
   <g id="line2d_19">
    <path d="M 111.020038 100.066329 
L 111.020038 60.672304 
" clip-path="url(#p43c014a350)" style="fill: none; stroke: #4c4c4c; stroke-linecap: round"/>
   </g>
   <g id="line2d_20">
    <path d="M 104.533288 133.970127 
L 117.506788 133.970127 
" clip-path="url(#p43c014a350)" style="fill: none; stroke: #1a1a1a; stroke-linecap: round"/>
   </g>
   <g id="line2d_21">
    <path d="M 104.533288 60.672304 
L 117.506788 60.672304 
" clip-path="url(#p43c014a350)" style="fill: none; stroke: #1a1a1a; stroke-linecap: round"/>
   </g>
   <g id="line2d_22">
    <defs>
     <path id="m3822f369b0" d="M 0 3 
C 0.795609 3 1.55874 2.683901 2.12132 2.12132 
C 2.683901 1.55874 3 0.795609 3 0 
C 3 -0.795609 2.683901 -1.55874 2.12132 -2.12132 
C 1.55874 -2.683901 0.795609 -3 0 -3 
C -0.795609 -3 -1.55874 -2.683901 -2.12132 -2.12132 
C -2.683901 -1.55874 -3 -0.795609 -3 0 
C -3 0.795609 -2.683901 1.55874 -2.12132 2.12132 
C -1.55874 2.683901 -0.795609 3 0 3 
z
" style="stroke: #000000"/>
    </defs>
    <g clip-path="url(#p43c014a350)">
     <use xlink:href="#m3822f369b0" x="111.020038" y="54.044658" style="fill-opacity: 0; stroke: #000000"/>
     <use xlink:href="#m3822f369b0" x="111.020038" y="52.119797" style="fill-opacity: 0; stroke: #000000"/>
     <use xlink:href="#m3822f369b0" x="111.020038" y="52.119797" style="fill-opacity: 0; stroke: #000000"/>
     <use xlink:href="#m3822f369b0" x="111.020038" y="33.70238" style="fill-opacity: 0; stroke: #000000"/>
     <use xlink:href="#m3822f369b0" x="111.020038" y="39.389468" style="fill-opacity: 0; stroke: #000000"/>
     <use xlink:href="#m3822f369b0" x="111.020038" y="48.970025" style="fill-opacity: 0; stroke: #000000"/>
     <use xlink:href="#m3822f369b0" x="111.020038" y="47.023291" style="fill-opacity: 0; stroke: #000000"/>
     <use xlink:href="#m3822f369b0" x="111.020038" y="23.531241" style="fill-opacity: 0; stroke: #000000"/>
     <use xlink:href="#m3822f369b0" x="111.020038" y="41.729924" style="fill-opacity: 0; stroke: #000000"/>
     <use xlink:href="#m3822f369b0" x="111.020038" y="41.64243" style="fill-opacity: 0; stroke: #000000"/>
     <use xlink:href="#m3822f369b0" x="111.020038" y="27.665316" style="fill-opacity: 0; stroke: #000000"/>
     <use xlink:href="#m3822f369b0" x="111.020038" y="52.294785" style="fill-opacity: 0; stroke: #000000"/>
     <use xlink:href="#m3822f369b0" x="111.020038" y="34.271089" style="fill-opacity: 0; stroke: #000000"/>
     <use xlink:href="#m3822f369b0" x="111.020038" y="40.395646" style="fill-opacity: 0; stroke: #000000"/>
     <use xlink:href="#m3822f369b0" x="111.020038" y="40.395646" style="fill-opacity: 0; stroke: #000000"/>
     <use xlink:href="#m3822f369b0" x="111.020038" y="30.924456" style="fill-opacity: 0; stroke: #000000"/>
     <use xlink:href="#m3822f369b0" x="111.020038" y="24.668658" style="fill-opacity: 0; stroke: #000000"/>
     <use xlink:href="#m3822f369b0" x="111.020038" y="57.303797" style="fill-opacity: 0; stroke: #000000"/>
     <use xlink:href="#m3822f369b0" x="111.020038" y="45.076557" style="fill-opacity: 0; stroke: #000000"/>
     <use xlink:href="#m3822f369b0" x="111.020038" y="45.076557" style="fill-opacity: 0; stroke: #000000"/>
     <use xlink:href="#m3822f369b0" x="111.020038" y="47.810734" style="fill-opacity: 0; stroke: #000000"/>
     <use xlink:href="#m3822f369b0" x="111.020038" y="45.09843" style="fill-opacity: 0; stroke: #000000"/>
     <use xlink:href="#m3822f369b0" x="111.020038" y="45.09843" style="fill-opacity: 0; stroke: #000000"/>
     <use xlink:href="#m3822f369b0" x="111.020038" y="34.621063" style="fill-opacity: 0; stroke: #000000"/>
     <use xlink:href="#m3822f369b0" x="111.020038" y="48.160709" style="fill-opacity: 0; stroke: #000000"/>
     <use xlink:href="#m3822f369b0" x="111.020038" y="45.404658" style="fill-opacity: 0; stroke: #000000"/>
     <use xlink:href="#m3822f369b0" x="111.020038" y="25.171747" style="fill-opacity: 0; stroke: #000000"/>
     <use xlink:href="#m3822f369b0" x="111.020038" y="58.244354" style="fill-opacity: 0; stroke: #000000"/>
     <use xlink:href="#m3822f369b0" x="111.020038" y="14.76" style="fill-opacity: 0; stroke: #000000"/>
     <use xlink:href="#m3822f369b0" x="111.020038" y="37.858329" style="fill-opacity: 0; stroke: #000000"/>
     <use xlink:href="#m3822f369b0" x="111.020038" y="25.19362" style="fill-opacity: 0; stroke: #000000"/>
     <use xlink:href="#m3822f369b0" x="111.020038" y="25.19362" style="fill-opacity: 0; stroke: #000000"/>
     <use xlink:href="#m3822f369b0" x="111.020038" y="37.967696" style="fill-opacity: 0; stroke: #000000"/>
     <use xlink:href="#m3822f369b0" x="111.020038" y="56.516354" style="fill-opacity: 0; stroke: #000000"/>
     <use xlink:href="#m3822f369b0" x="111.020038" y="46.607696" style="fill-opacity: 0; stroke: #000000"/>
     <use xlink:href="#m3822f369b0" x="111.020038" y="40.876861" style="fill-opacity: 0; stroke: #000000"/>
     <use xlink:href="#m3822f369b0" x="111.020038" y="48.926279" style="fill-opacity: 0; stroke: #000000"/>
     <use xlink:href="#m3822f369b0" x="111.020038" y="51.87919" style="fill-opacity: 0; stroke: #000000"/>
     <use xlink:href="#m3822f369b0" x="111.020038" y="30.793215" style="fill-opacity: 0; stroke: #000000"/>
     <use xlink:href="#m3822f369b0" x="111.020038" y="58.441215" style="fill-opacity: 0; stroke: #000000"/>
     <use xlink:href="#m3822f369b0" x="111.020038" y="58.441215" style="fill-opacity: 0; stroke: #000000"/>
     <use xlink:href="#m3822f369b0" x="111.020038" y="45.754633" style="fill-opacity: 0; stroke: #000000"/>
     <use xlink:href="#m3822f369b0" x="111.020038" y="45.754633" style="fill-opacity: 0; stroke: #000000"/>
     <use xlink:href="#m3822f369b0" x="111.020038" y="23.662481" style="fill-opacity: 0; stroke: #000000"/>
     <use xlink:href="#m3822f369b0" x="111.020038" y="59.141165" style="fill-opacity: 0; stroke: #000000"/>
     <use xlink:href="#m3822f369b0" x="111.020038" y="39.192608" style="fill-opacity: 0; stroke: #000000"/>
     <use xlink:href="#m3822f369b0" x="111.020038" y="58.966177" style="fill-opacity: 0; stroke: #000000"/>
     <use xlink:href="#m3822f369b0" x="111.020038" y="57.763139" style="fill-opacity: 0; stroke: #000000"/>
     <use xlink:href="#m3822f369b0" x="111.020038" y="55.072709" style="fill-opacity: 0; stroke: #000000"/>
     <use xlink:href="#m3822f369b0" x="111.020038" y="46.082734" style="fill-opacity: 0; stroke: #000000"/>
     <use xlink:href="#m3822f369b0" x="111.020038" y="32.302481" style="fill-opacity: 0; stroke: #000000"/>
     <use xlink:href="#m3822f369b0" x="111.020038" y="55.138329" style="fill-opacity: 0; stroke: #000000"/>
    </g>
   </g>
   <g id="line2d_23">
    <path d="M 24.530037 60.530127 
L 197.510038 60.530127 
" clip-path="url(#p43c014a350)" style="fill: none; stroke-dasharray: 4.44,1.92; stroke-dashoffset: 0; stroke: #ff0000; stroke-width: 1.2"/>
   </g>
   <g id="line2d_24">
    <path d="M 24.530037 165.96 
L 197.510038 165.96 
" clip-path="url(#p43c014a350)" style="fill: none; stroke-dasharray: 4.44,1.92; stroke-dashoffset: 0; stroke: #ff0000; stroke-width: 1.2"/>
   </g>
   <g id="line2d_25">
    <path d="M 98.046537 118.024405 
L 123.993538 118.024405 
" clip-path="url(#p43c014a350)" style="fill: none; stroke: #b0b0b0; stroke-linecap: round"/>
   </g>
   <g id="patch_3">
    <path d="M 24.530037 173.52 
L 24.530037 7.2 
" style="fill: none; stroke: #262626; stroke-linejoin: miter; stroke-linecap: square"/>
   </g>
   <g id="patch_4">
    <path d="M 197.510038 173.52 
L 197.510038 7.2 
" style="fill: none; stroke: #262626; stroke-linejoin: miter; stroke-linecap: square"/>
   </g>
   <g id="patch_5">
    <path d="M 24.530037 173.52 
L 197.510038 173.52 
" style="fill: none; stroke: #262626; stroke-linejoin: miter; stroke-linecap: square"/>
   </g>
   <g id="patch_6">
    <path d="M 24.530037 7.2 
L 197.510038 7.2 
" style="fill: none; stroke: #262626; stroke-linejoin: miter; stroke-linecap: square"/>
   </g>
  </g>
 </g>
 <defs>
  <clipPath id="p43c014a350">
   <rect x="24.530037" y="7.2" width="172.98" height="166.32"/>
  </clipPath>
 </defs>
</svg>
