<?xml version="1.0" encoding="utf-8" standalone="no"?>
<!DOCTYPE svg PUBLIC "-//W3C//DTD SVG 1.1//EN"
  "http://www.w3.org/Graphics/SVG/1.1/DTD/svg11.dtd">
<svg xmlns:xlink="http://www.w3.org/1999/xlink" width="508.852219pt" height="497.654287pt" viewBox="0 0 508.852219 497.654287" xmlns="http://www.w3.org/2000/svg" version="1.1">
 <metadata>
  <rdf:RDF xmlns:dc="http://purl.org/dc/elements/1.1/" xmlns:cc="http://creativecommons.org/ns#" xmlns:rdf="http://www.w3.org/1999/02/22-rdf-syntax-ns#">
   <cc:Work>
    <dc:type rdf:resource="http://purl.org/dc/dcmitype/StillImage"/>
    <dc:date>2024-10-03T16:11:41.583744</dc:date>
    <dc:format>image/svg+xml</dc:format>
    <dc:creator>
     <cc:Agent>
      <dc:title>Matplotlib v3.7.5, https://matplotlib.org/</dc:title>
     </cc:Agent>
    </dc:creator>
   </cc:Work>
  </rdf:RDF>
 </metadata>
 <defs>
  <style type="text/css">*{stroke-linejoin: round; stroke-linecap: butt}</style>
 </defs>
 <g id="figure_1">
  <g id="patch_1">
   <path d="M 0 497.654287 
L 508.852219 497.654287 
L 508.852219 0 
L 0 0 
z
" style="fill: #ffffff"/>
  </g>
  <g id="axes_1">
   <g id="patch_2">
    <path d="M 47.545688 462.90435 
L 493.945687 462.90435 
L 493.945687 19.38435 
L 47.545688 19.38435 
z
" style="fill: #ffffff"/>
   </g>
   <g id="matplotlib.axis_1">
    <g id="xtick_1">
     <g id="line2d_1">
      <path d="M 47.545687 462.90435 
L 47.545687 19.38435 
" clip-path="url(#pb59d50e8d8)" style="fill: none; stroke-dasharray: 1.85,0.8; stroke-dashoffset: 0; stroke: #808080; stroke-width: 0.5"/>
     </g>
     <g id="line2d_2">
      <defs>
       <path id="mfa4f9110ad" d="M 0 0 
L 0 4.8 
" style="stroke: #262626"/>
      </defs>
      <g>
       <use xlink:href="#mfa4f9110ad" x="47.545687" y="462.90435" style="fill: #262626; stroke: #262626"/>
      </g>
     </g>
     <g id="text_1">
      <!-- −1.00 -->
      <g style="fill: #262626" transform="translate(37.526269 476.873337) scale(0.0792 -0.0792)">
       <defs>
        <path id="ArialMT-2212" d="M 3381 1997 
L 356 1997 
L 356 2522 
L 3381 2522 
L 3381 1997 
z
" transform="scale(0.015625)"/>
        <path id="ArialMT-31" d="M 2384 0 
L 1822 0 
L 1822 3584 
Q 1619 3391 1289 3197 
Q 959 3003 697 2906 
L 697 3450 
Q 1169 3672 1522 3987 
Q 1875 4303 2022 4600 
L 2384 4600 
L 2384 0 
z
" transform="scale(0.015625)"/>
        <path id="ArialMT-2e" d="M 581 0 
L 581 641 
L 1222 641 
L 1222 0 
L 581 0 
z
" transform="scale(0.015625)"/>
        <path id="ArialMT-30" d="M 266 2259 
Q 266 3072 433 3567 
Q 600 4063 929 4331 
Q 1259 4600 1759 4600 
Q 2128 4600 2406 4451 
Q 2684 4303 2865 4023 
Q 3047 3744 3150 3342 
Q 3253 2941 3253 2259 
Q 3253 1453 3087 958 
Q 2922 463 2592 192 
Q 2263 -78 1759 -78 
Q 1097 -78 719 397 
Q 266 969 266 2259 
z
M 844 2259 
Q 844 1131 1108 757 
Q 1372 384 1759 384 
Q 2147 384 2411 759 
Q 2675 1134 2675 2259 
Q 2675 3391 2411 3762 
Q 2147 4134 1753 4134 
Q 1366 4134 1134 3806 
Q 844 3388 844 2259 
z
" transform="scale(0.015625)"/>
       </defs>
       <use xlink:href="#ArialMT-2212"/>
       <use xlink:href="#ArialMT-31" x="58.398438"/>
       <use xlink:href="#ArialMT-2e" x="114.013672"/>
       <use xlink:href="#ArialMT-30" x="141.796875"/>
       <use xlink:href="#ArialMT-30" x="197.412109"/>
      </g>
     </g>
    </g>
    <g id="xtick_2">
     <g id="line2d_3">
      <path d="M 103.345687 462.90435 
L 103.345687 19.38435 
" clip-path="url(#pb59d50e8d8)" style="fill: none; stroke-dasharray: 1.85,0.8; stroke-dashoffset: 0; stroke: #808080; stroke-width: 0.5"/>
     </g>
     <g id="line2d_4">
      <g>
       <use xlink:href="#mfa4f9110ad" x="103.345687" y="462.90435" style="fill: #262626; stroke: #262626"/>
      </g>
     </g>
     <g id="text_2">
      <!-- −0.75 -->
      <g style="fill: #262626" transform="translate(93.326269 476.873337) scale(0.0792 -0.0792)">
       <defs>
        <path id="ArialMT-37" d="M 303 3981 
L 303 4522 
L 3269 4522 
L 3269 4084 
Q 2831 3619 2401 2847 
Q 1972 2075 1738 1259 
Q 1569 684 1522 0 
L 944 0 
Q 953 541 1156 1306 
Q 1359 2072 1739 2783 
Q 2119 3494 2547 3981 
L 303 3981 
z
" transform="scale(0.015625)"/>
        <path id="ArialMT-35" d="M 266 1200 
L 856 1250 
Q 922 819 1161 601 
Q 1400 384 1738 384 
Q 2144 384 2425 690 
Q 2706 997 2706 1503 
Q 2706 1984 2436 2262 
Q 2166 2541 1728 2541 
Q 1456 2541 1237 2417 
Q 1019 2294 894 2097 
L 366 2166 
L 809 4519 
L 3088 4519 
L 3088 3981 
L 1259 3981 
L 1013 2750 
Q 1425 3038 1878 3038 
Q 2478 3038 2890 2622 
Q 3303 2206 3303 1553 
Q 3303 931 2941 478 
Q 2500 -78 1738 -78 
Q 1113 -78 717 272 
Q 322 622 266 1200 
z
" transform="scale(0.015625)"/>
       </defs>
       <use xlink:href="#ArialMT-2212"/>
       <use xlink:href="#ArialMT-30" x="58.398438"/>
       <use xlink:href="#ArialMT-2e" x="114.013672"/>
       <use xlink:href="#ArialMT-37" x="141.796875"/>
       <use xlink:href="#ArialMT-35" x="197.412109"/>
      </g>
     </g>
    </g>
    <g id="xtick_3">
     <g id="line2d_5">
      <path d="M 159.145687 462.90435 
L 159.145687 19.38435 
" clip-path="url(#pb59d50e8d8)" style="fill: none; stroke-dasharray: 1.85,0.8; stroke-dashoffset: 0; stroke: #808080; stroke-width: 0.5"/>
     </g>
     <g id="line2d_6">
      <g>
       <use xlink:href="#mfa4f9110ad" x="159.145687" y="462.90435" style="fill: #262626; stroke: #262626"/>
      </g>
     </g>
     <g id="text_3">
      <!-- −0.50 -->
      <g style="fill: #262626" transform="translate(149.126269 476.873337) scale(0.0792 -0.0792)">
       <use xlink:href="#ArialMT-2212"/>
       <use xlink:href="#ArialMT-30" x="58.398438"/>
       <use xlink:href="#ArialMT-2e" x="114.013672"/>
       <use xlink:href="#ArialMT-35" x="141.796875"/>
       <use xlink:href="#ArialMT-30" x="197.412109"/>
      </g>
     </g>
    </g>
    <g id="xtick_4">
     <g id="line2d_7">
      <path d="M 214.945687 462.90435 
L 214.945687 19.38435 
" clip-path="url(#pb59d50e8d8)" style="fill: none; stroke-dasharray: 1.85,0.8; stroke-dashoffset: 0; stroke: #808080; stroke-width: 0.5"/>
     </g>
     <g id="line2d_8">
      <g>
       <use xlink:href="#mfa4f9110ad" x="214.945687" y="462.90435" style="fill: #262626; stroke: #262626"/>
      </g>
     </g>
     <g id="text_4">
      <!-- −0.25 -->
      <g style="fill: #262626" transform="translate(204.926269 476.873337) scale(0.0792 -0.0792)">
       <defs>
        <path id="ArialMT-32" d="M 3222 541 
L 3222 0 
L 194 0 
Q 188 203 259 391 
Q 375 700 629 1000 
Q 884 1300 1366 1694 
Q 2113 2306 2375 2664 
Q 2638 3022 2638 3341 
Q 2638 3675 2398 3904 
Q 2159 4134 1775 4134 
Q 1369 4134 1125 3890 
Q 881 3647 878 3216 
L 300 3275 
Q 359 3922 746 4261 
Q 1134 4600 1788 4600 
Q 2447 4600 2831 4234 
Q 3216 3869 3216 3328 
Q 3216 3053 3103 2787 
Q 2991 2522 2730 2228 
Q 2469 1934 1863 1422 
Q 1356 997 1212 845 
Q 1069 694 975 541 
L 3222 541 
z
" transform="scale(0.015625)"/>
       </defs>
       <use xlink:href="#ArialMT-2212"/>
       <use xlink:href="#ArialMT-30" x="58.398438"/>
       <use xlink:href="#ArialMT-2e" x="114.013672"/>
       <use xlink:href="#ArialMT-32" x="141.796875"/>
       <use xlink:href="#ArialMT-35" x="197.412109"/>
      </g>
     </g>
    </g>
    <g id="xtick_5">
     <g id="line2d_9">
      <path d="M 270.745687 462.90435 
L 270.745687 19.38435 
" clip-path="url(#pb59d50e8d8)" style="fill: none; stroke-dasharray: 1.85,0.8; stroke-dashoffset: 0; stroke: #808080; stroke-width: 0.5"/>
     </g>
     <g id="line2d_10">
      <g>
       <use xlink:href="#mfa4f9110ad" x="270.745687" y="462.90435" style="fill: #262626; stroke: #262626"/>
      </g>
     </g>
     <g id="text_5">
      <!-- 0.00 -->
      <g style="fill: #262626" transform="translate(263.039156 476.873337) scale(0.0792 -0.0792)">
       <use xlink:href="#ArialMT-30"/>
       <use xlink:href="#ArialMT-2e" x="55.615234"/>
       <use xlink:href="#ArialMT-30" x="83.398438"/>
       <use xlink:href="#ArialMT-30" x="139.013672"/>
      </g>
     </g>
    </g>
    <g id="xtick_6">
     <g id="line2d_11">
      <path d="M 326.545687 462.90435 
L 326.545687 19.38435 
" clip-path="url(#pb59d50e8d8)" style="fill: none; stroke-dasharray: 1.85,0.8; stroke-dashoffset: 0; stroke: #808080; stroke-width: 0.5"/>
     </g>
     <g id="line2d_12">
      <g>
       <use xlink:href="#mfa4f9110ad" x="326.545687" y="462.90435" style="fill: #262626; stroke: #262626"/>
      </g>
     </g>
     <g id="text_6">
      <!-- 0.25 -->
      <g style="fill: #262626" transform="translate(318.839156 476.873337) scale(0.0792 -0.0792)">
       <use xlink:href="#ArialMT-30"/>
       <use xlink:href="#ArialMT-2e" x="55.615234"/>
       <use xlink:href="#ArialMT-32" x="83.398438"/>
       <use xlink:href="#ArialMT-35" x="139.013672"/>
      </g>
     </g>
    </g>
    <g id="xtick_7">
     <g id="line2d_13">
      <path d="M 382.345687 462.90435 
L 382.345687 19.38435 
" clip-path="url(#pb59d50e8d8)" style="fill: none; stroke-dasharray: 1.85,0.8; stroke-dashoffset: 0; stroke: #808080; stroke-width: 0.5"/>
     </g>
     <g id="line2d_14">
      <g>
       <use xlink:href="#mfa4f9110ad" x="382.345687" y="462.90435" style="fill: #262626; stroke: #262626"/>
      </g>
     </g>
     <g id="text_7">
      <!-- 0.50 -->
      <g style="fill: #262626" transform="translate(374.639156 476.873337) scale(0.0792 -0.0792)">
       <use xlink:href="#ArialMT-30"/>
       <use xlink:href="#ArialMT-2e" x="55.615234"/>
       <use xlink:href="#ArialMT-35" x="83.398438"/>
       <use xlink:href="#ArialMT-30" x="139.013672"/>
      </g>
     </g>
    </g>
    <g id="xtick_8">
     <g id="line2d_15">
      <path d="M 438.145687 462.90435 
L 438.145687 19.38435 
" clip-path="url(#pb59d50e8d8)" style="fill: none; stroke-dasharray: 1.85,0.8; stroke-dashoffset: 0; stroke: #808080; stroke-width: 0.5"/>
     </g>
     <g id="line2d_16">
      <g>
       <use xlink:href="#mfa4f9110ad" x="438.145687" y="462.90435" style="fill: #262626; stroke: #262626"/>
      </g>
     </g>
     <g id="text_8">
      <!-- 0.75 -->
      <g style="fill: #262626" transform="translate(430.439156 476.873337) scale(0.0792 -0.0792)">
       <use xlink:href="#ArialMT-30"/>
       <use xlink:href="#ArialMT-2e" x="55.615234"/>
       <use xlink:href="#ArialMT-37" x="83.398438"/>
       <use xlink:href="#ArialMT-35" x="139.013672"/>
      </g>
     </g>
    </g>
    <g id="xtick_9">
     <g id="line2d_17">
      <path d="M 493.945687 462.90435 
L 493.945687 19.38435 
" clip-path="url(#pb59d50e8d8)" style="fill: none; stroke-dasharray: 1.85,0.8; stroke-dashoffset: 0; stroke: #808080; stroke-width: 0.5"/>
     </g>
     <g id="line2d_18">
      <g>
       <use xlink:href="#mfa4f9110ad" x="493.945687" y="462.90435" style="fill: #262626; stroke: #262626"/>
      </g>
     </g>
     <g id="text_9">
      <!-- 1.00 -->
      <g style="fill: #262626" transform="translate(486.239156 476.873337) scale(0.0792 -0.0792)">
       <use xlink:href="#ArialMT-31"/>
       <use xlink:href="#ArialMT-2e" x="55.615234"/>
       <use xlink:href="#ArialMT-30" x="83.398438"/>
       <use xlink:href="#ArialMT-30" x="139.013672"/>
      </g>
     </g>
    </g>
    <g id="text_10">
     <!-- Composante Principale 1 -->
     <g style="fill: #262626" transform="translate(222.481837 488.737087) scale(0.0864 -0.0864)">
      <defs>
       <path id="ArialMT-43" d="M 3763 1606 
L 4369 1453 
Q 4178 706 3683 314 
Q 3188 -78 2472 -78 
Q 1731 -78 1267 223 
Q 803 525 561 1097 
Q 319 1669 319 2325 
Q 319 3041 592 3573 
Q 866 4106 1370 4382 
Q 1875 4659 2481 4659 
Q 3169 4659 3637 4309 
Q 4106 3959 4291 3325 
L 3694 3184 
Q 3534 3684 3231 3912 
Q 2928 4141 2469 4141 
Q 1941 4141 1586 3887 
Q 1231 3634 1087 3207 
Q 944 2781 944 2328 
Q 944 1744 1114 1308 
Q 1284 872 1643 656 
Q 2003 441 2422 441 
Q 2931 441 3284 734 
Q 3638 1028 3763 1606 
z
" transform="scale(0.015625)"/>
       <path id="ArialMT-6f" d="M 213 1659 
Q 213 2581 725 3025 
Q 1153 3394 1769 3394 
Q 2453 3394 2887 2945 
Q 3322 2497 3322 1706 
Q 3322 1066 3130 698 
Q 2938 331 2570 128 
Q 2203 -75 1769 -75 
Q 1072 -75 642 372 
Q 213 819 213 1659 
z
M 791 1659 
Q 791 1022 1069 705 
Q 1347 388 1769 388 
Q 2188 388 2466 706 
Q 2744 1025 2744 1678 
Q 2744 2294 2464 2611 
Q 2184 2928 1769 2928 
Q 1347 2928 1069 2612 
Q 791 2297 791 1659 
z
" transform="scale(0.015625)"/>
       <path id="ArialMT-6d" d="M 422 0 
L 422 3319 
L 925 3319 
L 925 2853 
Q 1081 3097 1340 3245 
Q 1600 3394 1931 3394 
Q 2300 3394 2536 3241 
Q 2772 3088 2869 2813 
Q 3263 3394 3894 3394 
Q 4388 3394 4653 3120 
Q 4919 2847 4919 2278 
L 4919 0 
L 4359 0 
L 4359 2091 
Q 4359 2428 4304 2576 
Q 4250 2725 4106 2815 
Q 3963 2906 3769 2906 
Q 3419 2906 3187 2673 
Q 2956 2441 2956 1928 
L 2956 0 
L 2394 0 
L 2394 2156 
Q 2394 2531 2256 2718 
Q 2119 2906 1806 2906 
Q 1569 2906 1367 2781 
Q 1166 2656 1075 2415 
Q 984 2175 984 1722 
L 984 0 
L 422 0 
z
" transform="scale(0.015625)"/>
       <path id="ArialMT-70" d="M 422 -1272 
L 422 3319 
L 934 3319 
L 934 2888 
Q 1116 3141 1344 3267 
Q 1572 3394 1897 3394 
Q 2322 3394 2647 3175 
Q 2972 2956 3137 2557 
Q 3303 2159 3303 1684 
Q 3303 1175 3120 767 
Q 2938 359 2589 142 
Q 2241 -75 1856 -75 
Q 1575 -75 1351 44 
Q 1128 163 984 344 
L 984 -1272 
L 422 -1272 
z
M 931 1641 
Q 931 1000 1190 694 
Q 1450 388 1819 388 
Q 2194 388 2461 705 
Q 2728 1022 2728 1688 
Q 2728 2322 2467 2637 
Q 2206 2953 1844 2953 
Q 1484 2953 1207 2617 
Q 931 2281 931 1641 
z
" transform="scale(0.015625)"/>
       <path id="ArialMT-73" d="M 197 991 
L 753 1078 
Q 800 744 1014 566 
Q 1228 388 1613 388 
Q 2000 388 2187 545 
Q 2375 703 2375 916 
Q 2375 1106 2209 1216 
Q 2094 1291 1634 1406 
Q 1016 1563 777 1677 
Q 538 1791 414 1992 
Q 291 2194 291 2438 
Q 291 2659 392 2848 
Q 494 3038 669 3163 
Q 800 3259 1026 3326 
Q 1253 3394 1513 3394 
Q 1903 3394 2198 3281 
Q 2494 3169 2634 2976 
Q 2775 2784 2828 2463 
L 2278 2388 
Q 2241 2644 2061 2787 
Q 1881 2931 1553 2931 
Q 1166 2931 1000 2803 
Q 834 2675 834 2503 
Q 834 2394 903 2306 
Q 972 2216 1119 2156 
Q 1203 2125 1616 2013 
Q 2213 1853 2448 1751 
Q 2684 1650 2818 1456 
Q 2953 1263 2953 975 
Q 2953 694 2789 445 
Q 2625 197 2315 61 
Q 2006 -75 1616 -75 
Q 969 -75 630 194 
Q 291 463 197 991 
z
" transform="scale(0.015625)"/>
       <path id="ArialMT-61" d="M 2588 409 
Q 2275 144 1986 34 
Q 1697 -75 1366 -75 
Q 819 -75 525 192 
Q 231 459 231 875 
Q 231 1119 342 1320 
Q 453 1522 633 1644 
Q 813 1766 1038 1828 
Q 1203 1872 1538 1913 
Q 2219 1994 2541 2106 
Q 2544 2222 2544 2253 
Q 2544 2597 2384 2738 
Q 2169 2928 1744 2928 
Q 1347 2928 1158 2789 
Q 969 2650 878 2297 
L 328 2372 
Q 403 2725 575 2942 
Q 747 3159 1072 3276 
Q 1397 3394 1825 3394 
Q 2250 3394 2515 3294 
Q 2781 3194 2906 3042 
Q 3031 2891 3081 2659 
Q 3109 2516 3109 2141 
L 3109 1391 
Q 3109 606 3145 398 
Q 3181 191 3288 0 
L 2700 0 
Q 2613 175 2588 409 
z
M 2541 1666 
Q 2234 1541 1622 1453 
Q 1275 1403 1131 1340 
Q 988 1278 909 1158 
Q 831 1038 831 891 
Q 831 666 1001 516 
Q 1172 366 1500 366 
Q 1825 366 2078 508 
Q 2331 650 2450 897 
Q 2541 1088 2541 1459 
L 2541 1666 
z
" transform="scale(0.015625)"/>
       <path id="ArialMT-6e" d="M 422 0 
L 422 3319 
L 928 3319 
L 928 2847 
Q 1294 3394 1984 3394 
Q 2284 3394 2536 3286 
Q 2788 3178 2913 3003 
Q 3038 2828 3088 2588 
Q 3119 2431 3119 2041 
L 3119 0 
L 2556 0 
L 2556 2019 
Q 2556 2363 2490 2533 
Q 2425 2703 2258 2804 
Q 2091 2906 1866 2906 
Q 1506 2906 1245 2678 
Q 984 2450 984 1813 
L 984 0 
L 422 0 
z
" transform="scale(0.015625)"/>
       <path id="ArialMT-74" d="M 1650 503 
L 1731 6 
Q 1494 -44 1306 -44 
Q 1000 -44 831 53 
Q 663 150 594 308 
Q 525 466 525 972 
L 525 2881 
L 113 2881 
L 113 3319 
L 525 3319 
L 525 4141 
L 1084 4478 
L 1084 3319 
L 1650 3319 
L 1650 2881 
L 1084 2881 
L 1084 941 
Q 1084 700 1114 631 
Q 1144 563 1211 522 
Q 1278 481 1403 481 
Q 1497 481 1650 503 
z
" transform="scale(0.015625)"/>
       <path id="ArialMT-65" d="M 2694 1069 
L 3275 997 
Q 3138 488 2766 206 
Q 2394 -75 1816 -75 
Q 1088 -75 661 373 
Q 234 822 234 1631 
Q 234 2469 665 2931 
Q 1097 3394 1784 3394 
Q 2450 3394 2872 2941 
Q 3294 2488 3294 1666 
Q 3294 1616 3291 1516 
L 816 1516 
Q 847 969 1125 678 
Q 1403 388 1819 388 
Q 2128 388 2347 550 
Q 2566 713 2694 1069 
z
M 847 1978 
L 2700 1978 
Q 2663 2397 2488 2606 
Q 2219 2931 1791 2931 
Q 1403 2931 1139 2672 
Q 875 2413 847 1978 
z
" transform="scale(0.015625)"/>
       <path id="ArialMT-20" transform="scale(0.015625)"/>
       <path id="ArialMT-50" d="M 494 0 
L 494 4581 
L 2222 4581 
Q 2678 4581 2919 4538 
Q 3256 4481 3484 4323 
Q 3713 4166 3852 3881 
Q 3991 3597 3991 3256 
Q 3991 2672 3619 2267 
Q 3247 1863 2275 1863 
L 1100 1863 
L 1100 0 
L 494 0 
z
M 1100 2403 
L 2284 2403 
Q 2872 2403 3119 2622 
Q 3366 2841 3366 3238 
Q 3366 3525 3220 3729 
Q 3075 3934 2838 4000 
Q 2684 4041 2272 4041 
L 1100 4041 
L 1100 2403 
z
" transform="scale(0.015625)"/>
       <path id="ArialMT-72" d="M 416 0 
L 416 3319 
L 922 3319 
L 922 2816 
Q 1116 3169 1280 3281 
Q 1444 3394 1641 3394 
Q 1925 3394 2219 3213 
L 2025 2691 
Q 1819 2813 1613 2813 
Q 1428 2813 1281 2702 
Q 1134 2591 1072 2394 
Q 978 2094 978 1738 
L 978 0 
L 416 0 
z
" transform="scale(0.015625)"/>
       <path id="ArialMT-69" d="M 425 3934 
L 425 4581 
L 988 4581 
L 988 3934 
L 425 3934 
z
M 425 0 
L 425 3319 
L 988 3319 
L 988 0 
L 425 0 
z
" transform="scale(0.015625)"/>
       <path id="ArialMT-63" d="M 2588 1216 
L 3141 1144 
Q 3050 572 2676 248 
Q 2303 -75 1759 -75 
Q 1078 -75 664 370 
Q 250 816 250 1647 
Q 250 2184 428 2587 
Q 606 2991 970 3192 
Q 1334 3394 1763 3394 
Q 2303 3394 2647 3120 
Q 2991 2847 3088 2344 
L 2541 2259 
Q 2463 2594 2264 2762 
Q 2066 2931 1784 2931 
Q 1359 2931 1093 2626 
Q 828 2322 828 1663 
Q 828 994 1084 691 
Q 1341 388 1753 388 
Q 2084 388 2306 591 
Q 2528 794 2588 1216 
z
" transform="scale(0.015625)"/>
       <path id="ArialMT-6c" d="M 409 0 
L 409 4581 
L 972 4581 
L 972 0 
L 409 0 
z
" transform="scale(0.015625)"/>
      </defs>
      <use xlink:href="#ArialMT-43"/>
      <use xlink:href="#ArialMT-6f" x="72.216797"/>
      <use xlink:href="#ArialMT-6d" x="127.832031"/>
      <use xlink:href="#ArialMT-70" x="211.132812"/>
      <use xlink:href="#ArialMT-6f" x="266.748047"/>
      <use xlink:href="#ArialMT-73" x="322.363281"/>
      <use xlink:href="#ArialMT-61" x="372.363281"/>
      <use xlink:href="#ArialMT-6e" x="427.978516"/>
      <use xlink:href="#ArialMT-74" x="483.59375"/>
      <use xlink:href="#ArialMT-65" x="511.376953"/>
      <use xlink:href="#ArialMT-20" x="566.992188"/>
      <use xlink:href="#ArialMT-50" x="594.775391"/>
      <use xlink:href="#ArialMT-72" x="661.474609"/>
      <use xlink:href="#ArialMT-69" x="694.775391"/>
      <use xlink:href="#ArialMT-6e" x="716.992188"/>
      <use xlink:href="#ArialMT-63" x="772.607422"/>
      <use xlink:href="#ArialMT-69" x="822.607422"/>
      <use xlink:href="#ArialMT-70" x="844.824219"/>
      <use xlink:href="#ArialMT-61" x="900.439453"/>
      <use xlink:href="#ArialMT-6c" x="956.054688"/>
      <use xlink:href="#ArialMT-65" x="978.271484"/>
      <use xlink:href="#ArialMT-20" x="1033.886719"/>
      <use xlink:href="#ArialMT-31" x="1061.669922"/>
     </g>
    </g>
   </g>
   <g id="matplotlib.axis_2">
    <g id="ytick_1">
     <g id="line2d_19">
      <path d="M 47.545688 462.90435 
L 493.945687 462.90435 
" clip-path="url(#pb59d50e8d8)" style="fill: none; stroke-dasharray: 1.85,0.8; stroke-dashoffset: 0; stroke: #808080; stroke-width: 0.5"/>
     </g>
     <g id="line2d_20">
      <defs>
       <path id="m99b541c216" d="M 0 0 
L -4.8 0 
" style="stroke: #262626"/>
      </defs>
      <g>
       <use xlink:href="#m99b541c216" x="47.545688" y="462.90435" style="fill: #262626; stroke: #262626"/>
      </g>
     </g>
     <g id="text_11">
      <!-- −1.00 -->
      <g style="fill: #262626" transform="translate(19.20685 465.738844) scale(0.0792 -0.0792)">
       <use xlink:href="#ArialMT-2212"/>
       <use xlink:href="#ArialMT-31" x="58.398438"/>
       <use xlink:href="#ArialMT-2e" x="114.013672"/>
       <use xlink:href="#ArialMT-30" x="141.796875"/>
       <use xlink:href="#ArialMT-30" x="197.412109"/>
      </g>
     </g>
    </g>
    <g id="ytick_2">
     <g id="line2d_21">
      <path d="M 47.545688 407.46435 
L 493.945687 407.46435 
" clip-path="url(#pb59d50e8d8)" style="fill: none; stroke-dasharray: 1.85,0.8; stroke-dashoffset: 0; stroke: #808080; stroke-width: 0.5"/>
     </g>
     <g id="line2d_22">
      <g>
       <use xlink:href="#m99b541c216" x="47.545688" y="407.46435" style="fill: #262626; stroke: #262626"/>
      </g>
     </g>
     <g id="text_12">
      <!-- −0.75 -->
      <g style="fill: #262626" transform="translate(19.20685 410.298844) scale(0.0792 -0.0792)">
       <use xlink:href="#ArialMT-2212"/>
       <use xlink:href="#ArialMT-30" x="58.398438"/>
       <use xlink:href="#ArialMT-2e" x="114.013672"/>
       <use xlink:href="#ArialMT-37" x="141.796875"/>
       <use xlink:href="#ArialMT-35" x="197.412109"/>
      </g>
     </g>
    </g>
    <g id="ytick_3">
     <g id="line2d_23">
      <path d="M 47.545688 352.02435 
L 493.945687 352.02435 
" clip-path="url(#pb59d50e8d8)" style="fill: none; stroke-dasharray: 1.85,0.8; stroke-dashoffset: 0; stroke: #808080; stroke-width: 0.5"/>
     </g>
     <g id="line2d_24">
      <g>
       <use xlink:href="#m99b541c216" x="47.545688" y="352.02435" style="fill: #262626; stroke: #262626"/>
      </g>
     </g>
     <g id="text_13">
      <!-- −0.50 -->
      <g style="fill: #262626" transform="translate(19.20685 354.858844) scale(0.0792 -0.0792)">
       <use xlink:href="#ArialMT-2212"/>
       <use xlink:href="#ArialMT-30" x="58.398438"/>
       <use xlink:href="#ArialMT-2e" x="114.013672"/>
       <use xlink:href="#ArialMT-35" x="141.796875"/>
       <use xlink:href="#ArialMT-30" x="197.412109"/>
      </g>
     </g>
    </g>
    <g id="ytick_4">
     <g id="line2d_25">
      <path d="M 47.545688 296.58435 
L 493.945687 296.58435 
" clip-path="url(#pb59d50e8d8)" style="fill: none; stroke-dasharray: 1.85,0.8; stroke-dashoffset: 0; stroke: #808080; stroke-width: 0.5"/>
     </g>
     <g id="line2d_26">
      <g>
       <use xlink:href="#m99b541c216" x="47.545688" y="296.58435" style="fill: #262626; stroke: #262626"/>
      </g>
     </g>
     <g id="text_14">
      <!-- −0.25 -->
      <g style="fill: #262626" transform="translate(19.20685 299.418844) scale(0.0792 -0.0792)">
       <use xlink:href="#ArialMT-2212"/>
       <use xlink:href="#ArialMT-30" x="58.398438"/>
       <use xlink:href="#ArialMT-2e" x="114.013672"/>
       <use xlink:href="#ArialMT-32" x="141.796875"/>
       <use xlink:href="#ArialMT-35" x="197.412109"/>
      </g>
     </g>
    </g>
    <g id="ytick_5">
     <g id="line2d_27">
      <path d="M 47.545688 241.14435 
L 493.945687 241.14435 
" clip-path="url(#pb59d50e8d8)" style="fill: none; stroke-dasharray: 1.85,0.8; stroke-dashoffset: 0; stroke: #808080; stroke-width: 0.5"/>
     </g>
     <g id="line2d_28">
      <g>
       <use xlink:href="#m99b541c216" x="47.545688" y="241.14435" style="fill: #262626; stroke: #262626"/>
      </g>
     </g>
     <g id="text_15">
      <!-- 0.00 -->
      <g style="fill: #262626" transform="translate(23.832625 243.978844) scale(0.0792 -0.0792)">
       <use xlink:href="#ArialMT-30"/>
       <use xlink:href="#ArialMT-2e" x="55.615234"/>
       <use xlink:href="#ArialMT-30" x="83.398438"/>
       <use xlink:href="#ArialMT-30" x="139.013672"/>
      </g>
     </g>
    </g>
    <g id="ytick_6">
     <g id="line2d_29">
      <path d="M 47.545688 185.70435 
L 493.945687 185.70435 
" clip-path="url(#pb59d50e8d8)" style="fill: none; stroke-dasharray: 1.85,0.8; stroke-dashoffset: 0; stroke: #808080; stroke-width: 0.5"/>
     </g>
     <g id="line2d_30">
      <g>
       <use xlink:href="#m99b541c216" x="47.545688" y="185.70435" style="fill: #262626; stroke: #262626"/>
      </g>
     </g>
     <g id="text_16">
      <!-- 0.25 -->
      <g style="fill: #262626" transform="translate(23.832625 188.538844) scale(0.0792 -0.0792)">
       <use xlink:href="#ArialMT-30"/>
       <use xlink:href="#ArialMT-2e" x="55.615234"/>
       <use xlink:href="#ArialMT-32" x="83.398438"/>
       <use xlink:href="#ArialMT-35" x="139.013672"/>
      </g>
     </g>
    </g>
    <g id="ytick_7">
     <g id="line2d_31">
      <path d="M 47.545688 130.26435 
L 493.945687 130.26435 
" clip-path="url(#pb59d50e8d8)" style="fill: none; stroke-dasharray: 1.85,0.8; stroke-dashoffset: 0; stroke: #808080; stroke-width: 0.5"/>
     </g>
     <g id="line2d_32">
      <g>
       <use xlink:href="#m99b541c216" x="47.545688" y="130.26435" style="fill: #262626; stroke: #262626"/>
      </g>
     </g>
     <g id="text_17">
      <!-- 0.50 -->
      <g style="fill: #262626" transform="translate(23.832625 133.098844) scale(0.0792 -0.0792)">
       <use xlink:href="#ArialMT-30"/>
       <use xlink:href="#ArialMT-2e" x="55.615234"/>
       <use xlink:href="#ArialMT-35" x="83.398438"/>
       <use xlink:href="#ArialMT-30" x="139.013672"/>
      </g>
     </g>
    </g>
    <g id="ytick_8">
     <g id="line2d_33">
      <path d="M 47.545688 74.82435 
L 493.945687 74.82435 
" clip-path="url(#pb59d50e8d8)" style="fill: none; stroke-dasharray: 1.85,0.8; stroke-dashoffset: 0; stroke: #808080; stroke-width: 0.5"/>
     </g>
     <g id="line2d_34">
      <g>
       <use xlink:href="#m99b541c216" x="47.545688" y="74.82435" style="fill: #262626; stroke: #262626"/>
      </g>
     </g>
     <g id="text_18">
      <!-- 0.75 -->
      <g style="fill: #262626" transform="translate(23.832625 77.658844) scale(0.0792 -0.0792)">
       <use xlink:href="#ArialMT-30"/>
       <use xlink:href="#ArialMT-2e" x="55.615234"/>
       <use xlink:href="#ArialMT-37" x="83.398438"/>
       <use xlink:href="#ArialMT-35" x="139.013672"/>
      </g>
     </g>
    </g>
    <g id="ytick_9">
     <g id="line2d_35">
      <path d="M 47.545688 19.38435 
L 493.945687 19.38435 
" clip-path="url(#pb59d50e8d8)" style="fill: none; stroke-dasharray: 1.85,0.8; stroke-dashoffset: 0; stroke: #808080; stroke-width: 0.5"/>
     </g>
     <g id="line2d_36">
      <g>
       <use xlink:href="#m99b541c216" x="47.545688" y="19.38435" style="fill: #262626; stroke: #262626"/>
      </g>
     </g>
     <g id="text_19">
      <!-- 1.00 -->
      <g style="fill: #262626" transform="translate(23.832625 22.218844) scale(0.0792 -0.0792)">
       <use xlink:href="#ArialMT-31"/>
       <use xlink:href="#ArialMT-2e" x="55.615234"/>
       <use xlink:href="#ArialMT-30" x="83.398438"/>
       <use xlink:href="#ArialMT-30" x="139.013672"/>
      </g>
     </g>
    </g>
    <g id="text_20">
     <!-- Composante Principale 2 -->
     <g style="fill: #262626" transform="translate(13.48965 289.4082) rotate(-90) scale(0.0864 -0.0864)">
      <use xlink:href="#ArialMT-43"/>
      <use xlink:href="#ArialMT-6f" x="72.216797"/>
      <use xlink:href="#ArialMT-6d" x="127.832031"/>
      <use xlink:href="#ArialMT-70" x="211.132812"/>
      <use xlink:href="#ArialMT-6f" x="266.748047"/>
      <use xlink:href="#ArialMT-73" x="322.363281"/>
      <use xlink:href="#ArialMT-61" x="372.363281"/>
      <use xlink:href="#ArialMT-6e" x="427.978516"/>
      <use xlink:href="#ArialMT-74" x="483.59375"/>
      <use xlink:href="#ArialMT-65" x="511.376953"/>
      <use xlink:href="#ArialMT-20" x="566.992188"/>
      <use xlink:href="#ArialMT-50" x="594.775391"/>
      <use xlink:href="#ArialMT-72" x="661.474609"/>
      <use xlink:href="#ArialMT-69" x="694.775391"/>
      <use xlink:href="#ArialMT-6e" x="716.992188"/>
      <use xlink:href="#ArialMT-63" x="772.607422"/>
      <use xlink:href="#ArialMT-69" x="822.607422"/>
      <use xlink:href="#ArialMT-70" x="844.824219"/>
      <use xlink:href="#ArialMT-61" x="900.439453"/>
      <use xlink:href="#ArialMT-6c" x="956.054688"/>
      <use xlink:href="#ArialMT-65" x="978.271484"/>
      <use xlink:href="#ArialMT-20" x="1033.886719"/>
      <use xlink:href="#ArialMT-32" x="1061.669922"/>
     </g>
    </g>
   </g>
   <g id="patch_3">
    <path d="M 301.617833 189.888955 
L 299.73258 214.611622 
L 290.252111 208.97479 
L 270.84145 241.201288 
L 270.649925 241.087412 
L 290.060587 208.860915 
L 280.580118 203.224083 
z
" clip-path="url(#pb59d50e8d8)" style="fill: #4c72b0; stroke: #ffffff; stroke-width: 0.8; stroke-linejoin: miter"/>
   </g>
   <g id="patch_4">
    <path d="M 226.420035 241.683625 
L 248.601715 230.324927 
L 248.736995 241.301224 
L 270.744321 241.033478 
L 270.747054 241.255222 
L 248.739728 241.522967 
L 248.875008 252.499265 
z
" clip-path="url(#pb59d50e8d8)" style="fill: #4c72b0; stroke: #ffffff; stroke-width: 0.8; stroke-linejoin: miter"/>
   </g>
   <g id="patch_5">
    <path d="M 326.429729 268.212855 
L 301.476138 268.426684 
L 306.331723 258.566476 
L 270.696641 241.243948 
L 270.794734 241.044752 
L 306.429816 258.36728 
L 311.2854 248.507073 
z
" clip-path="url(#pb59d50e8d8)" style="fill: #4c72b0; stroke: #ffffff; stroke-width: 0.8; stroke-linejoin: miter"/>
   </g>
   <g id="patch_6">
    <path d="M 236.564371 232.802086 
L 260.902227 227.324333 
L 258.266608 237.98454 
L 270.77231 241.036671 
L 270.719065 241.252029 
L 258.213363 238.199897 
L 255.577743 248.860104 
z
" clip-path="url(#pb59d50e8d8)" style="fill: #4c72b0; stroke: #ffffff; stroke-width: 0.8; stroke-linejoin: miter"/>
   </g>
   <g id="patch_7">
    <path d="M 256.717631 154.604696 
L 271.284642 174.73552 
L 260.376802 176.480937 
L 270.855868 241.12672 
L 270.635507 241.16198 
L 260.156442 176.516198 
L 249.248602 178.261615 
z
" clip-path="url(#pb59d50e8d8)" style="fill: #4c72b0; stroke: #ffffff; stroke-width: 0.8; stroke-linejoin: miter"/>
   </g>
   <g id="patch_8">
    <path d="M 286.848137 291.666256 
L 269.470628 273.872301 
L 280.003537 270.558407 
L 270.639294 241.177824 
L 270.852081 241.110876 
L 280.216323 270.49146 
L 290.749231 267.177566 
z
" clip-path="url(#pb59d50e8d8)" style="fill: #4c72b0; stroke: #ffffff; stroke-width: 0.8; stroke-linejoin: miter"/>
   </g>
   <g id="patch_9">
    <path d="M 239.894488 199.823353 
L 262.155423 211.027953 
L 253.281925 217.567899 
L 270.835319 241.07829 
L 270.656056 241.21041 
L 253.102662 217.700019 
L 244.229164 224.239966 
z
" clip-path="url(#pb59d50e8d8)" style="fill: #4c72b0; stroke: #ffffff; stroke-width: 0.8; stroke-linejoin: miter"/>
   </g>
   <g id="patch_10">
    <path d="M 280.687533 111.964657 
L 290.113322 134.921484 
L 279.09708 134.084564 
L 270.856963 241.152804 
L 270.634412 241.135896 
L 278.87453 134.067656 
L 267.858288 133.230736 
z
" clip-path="url(#pb59d50e8d8)" style="fill: #4c72b0; stroke: #ffffff; stroke-width: 0.8; stroke-linejoin: miter"/>
   </g>
   <g id="patch_11">
    <path d="M 283.970123 162.264844 
L 291.311091 185.9613 
L 280.412849 184.15767 
L 270.855771 241.162568 
L 270.635604 241.126132 
L 280.192683 184.121233 
L 269.294441 182.317603 
z
" clip-path="url(#pb59d50e8d8)" style="fill: #4c72b0; stroke: #ffffff; stroke-width: 0.8; stroke-linejoin: miter"/>
   </g>
   <g id="patch_12">
    <path d="M 323.504885 252.670854 
L 299.308949 258.737578 
L 301.681722 248.016593 
L 270.72172 241.252643 
L 270.769655 241.036057 
L 301.729656 247.800007 
L 304.102429 237.079022 
z
" clip-path="url(#pb59d50e8d8)" style="fill: #4c72b0; stroke: #ffffff; stroke-width: 0.8; stroke-linejoin: miter"/>
   </g>
   <g id="patch_13">
    <path d="M 128.450327 219.091354 
L 152.223653 211.553669 
L 150.52084 222.39963 
L 270.762888 241.034795 
L 270.728487 241.253905 
L 150.48644 222.618741 
L 148.783627 233.464702 
z
" clip-path="url(#pb59d50e8d8)" style="fill: #4c72b0; stroke: #ffffff; stroke-width: 0.8; stroke-linejoin: miter"/>
   </g>
   <g id="patch_14">
    <path d="M 230.399493 92.625697 
L 246.990089 111.146252 
L 236.323387 114.006672 
L 270.853432 241.115457 
L 270.637943 241.173243 
L 236.107898 114.064458 
L 225.441196 116.924878 
z
" clip-path="url(#pb59d50e8d8)" style="fill: #4c72b0; stroke: #ffffff; stroke-width: 0.8; stroke-linejoin: miter"/>
   </g>
   <g id="patch_15">
    <path d="M 427.908415 212.248798 
L 407.991732 227.186881 
L 405.981342 216.393018 
L 270.765994 241.253379 
L 270.725381 241.035321 
L 405.940728 216.17496 
L 403.930338 205.381097 
z
" clip-path="url(#pb59d50e8d8)" style="fill: #4c72b0; stroke: #ffffff; stroke-width: 0.8; stroke-linejoin: miter"/>
   </g>
   <g id="patch_16">
    <path d="M 284.107137 356.371564 
L 270.465898 335.610335 
L 281.441696 334.353979 
L 270.634821 241.15704 
L 270.856554 241.13166 
L 281.663429 334.328598 
L 292.639228 333.072242 
z
" clip-path="url(#pb59d50e8d8)" style="fill: #4c72b0; stroke: #ffffff; stroke-width: 0.8; stroke-linejoin: miter"/>
   </g>
   <g id="patch_17">
    <path d="M 140.973871 289.816416 
L 157.914204 271.611066 
L 161.816151 281.880818 
L 270.706274 241.040615 
L 270.785101 241.248085 
L 161.894978 282.088287 
L 165.796924 292.358039 
z
" clip-path="url(#pb59d50e8d8)" style="fill: #4c72b0; stroke: #ffffff; stroke-width: 0.8; stroke-linejoin: miter"/>
   </g>
   <g id="line2d_37">
    <path d="M 47.545688 241.14435 
L 493.945687 241.14435 
" clip-path="url(#pb59d50e8d8)" style="fill: none; stroke: #000000; stroke-width: 0.5; stroke-linecap: round"/>
   </g>
   <g id="line2d_38">
    <path d="M 270.745687 462.90435 
L 270.745687 19.38435 
" clip-path="url(#pb59d50e8d8)" style="fill: none; stroke: #000000; stroke-width: 0.5; stroke-linecap: round"/>
   </g>
   <g id="patch_18">
    <path d="M 47.545688 462.90435 
L 47.545688 19.38435 
" style="fill: none; stroke: #262626; stroke-linejoin: miter; stroke-linecap: square"/>
   </g>
   <g id="patch_19">
    <path d="M 493.945687 462.90435 
L 493.945687 19.38435 
" style="fill: none; stroke: #262626; stroke-linejoin: miter; stroke-linecap: square"/>
   </g>
   <g id="patch_20">
    <path d="M 47.545687 462.90435 
L 493.945687 462.90435 
" style="fill: none; stroke: #262626; stroke-linejoin: miter; stroke-linecap: square"/>
   </g>
   <g id="patch_21">
    <path d="M 47.545687 19.38435 
L 493.945687 19.38435 
" style="fill: none; stroke: #262626; stroke-linejoin: miter; stroke-linecap: square"/>
   </g>
   <g id="text_21">
    <!-- Cercle des Corrélations -->
    <g style="fill: #262626" transform="translate(225.609787 13.38435) scale(0.0864 -0.0864)">
     <defs>
      <path id="ArialMT-64" d="M 2575 0 
L 2575 419 
Q 2259 -75 1647 -75 
Q 1250 -75 917 144 
Q 584 363 401 755 
Q 219 1147 219 1656 
Q 219 2153 384 2558 
Q 550 2963 881 3178 
Q 1213 3394 1622 3394 
Q 1922 3394 2156 3267 
Q 2391 3141 2538 2938 
L 2538 4581 
L 3097 4581 
L 3097 0 
L 2575 0 
z
M 797 1656 
Q 797 1019 1065 703 
Q 1334 388 1700 388 
Q 2069 388 2326 689 
Q 2584 991 2584 1609 
Q 2584 2291 2321 2609 
Q 2059 2928 1675 2928 
Q 1300 2928 1048 2622 
Q 797 2316 797 1656 
z
" transform="scale(0.015625)"/>
      <path id="ArialMT-e9" d="M 2694 1069 
L 3275 997 
Q 3138 488 2766 206 
Q 2394 -75 1816 -75 
Q 1088 -75 661 373 
Q 234 822 234 1631 
Q 234 2469 665 2931 
Q 1097 3394 1784 3394 
Q 2450 3394 2872 2941 
Q 3294 2488 3294 1666 
Q 3294 1616 3291 1516 
L 816 1516 
Q 847 969 1125 678 
Q 1403 388 1819 388 
Q 2128 388 2347 550 
Q 2566 713 2694 1069 
z
M 847 1978 
L 2700 1978 
Q 2663 2397 2488 2606 
Q 2219 2931 1791 2931 
Q 1403 2931 1139 2672 
Q 875 2413 847 1978 
z
M 1454 3731 
L 1869 4606 
L 2607 4606 
L 1919 3731 
L 1454 3731 
z
" transform="scale(0.015625)"/>
     </defs>
     <use xlink:href="#ArialMT-43"/>
     <use xlink:href="#ArialMT-65" x="72.216797"/>
     <use xlink:href="#ArialMT-72" x="127.832031"/>
     <use xlink:href="#ArialMT-63" x="161.132812"/>
     <use xlink:href="#ArialMT-6c" x="211.132812"/>
     <use xlink:href="#ArialMT-65" x="233.349609"/>
     <use xlink:href="#ArialMT-20" x="288.964844"/>
     <use xlink:href="#ArialMT-64" x="316.748047"/>
     <use xlink:href="#ArialMT-65" x="372.363281"/>
     <use xlink:href="#ArialMT-73" x="427.978516"/>
     <use xlink:href="#ArialMT-20" x="477.978516"/>
     <use xlink:href="#ArialMT-43" x="505.761719"/>
     <use xlink:href="#ArialMT-6f" x="577.978516"/>
     <use xlink:href="#ArialMT-72" x="633.59375"/>
     <use xlink:href="#ArialMT-72" x="666.894531"/>
     <use xlink:href="#ArialMT-e9" x="700.195312"/>
     <use xlink:href="#ArialMT-6c" x="755.810547"/>
     <use xlink:href="#ArialMT-61" x="778.027344"/>
     <use xlink:href="#ArialMT-74" x="833.642578"/>
     <use xlink:href="#ArialMT-69" x="861.425781"/>
     <use xlink:href="#ArialMT-6f" x="883.642578"/>
     <use xlink:href="#ArialMT-6e" x="939.257812"/>
     <use xlink:href="#ArialMT-73" x="994.873047"/>
    </g>
   </g>
   <g id="legend_1">
    <g id="patch_22">
     <path d="M 415.062487 194.6094 
L 488.401687 194.6094 
Q 489.985687 194.6094 489.985687 193.0254 
L 489.985687 24.92835 
Q 489.985687 23.34435 488.401687 23.34435 
L 415.062487 23.34435 
Q 413.478487 23.34435 413.478487 24.92835 
L 413.478487 193.0254 
Q 413.478487 194.6094 415.062487 194.6094 
z
" style="fill: #ffffff; opacity: 0.8; stroke: #cccccc; stroke-width: 0.8; stroke-linejoin: miter"/>
    </g>
    <g id="patch_23">
     <path d="M 416.646487 32.181337 
L 432.486487 32.181337 
L 432.486487 26.637337 
L 416.646487 26.637337 
z
" style="fill: #4c72b0; stroke: #ffffff; stroke-width: 0.8; stroke-linejoin: miter"/>
    </g>
    <g id="text_22">
     <!-- Industry -->
     <g style="fill: #262626" transform="translate(438.822487 32.181337) scale(0.0792 -0.0792)">
      <defs>
       <path id="ArialMT-49" d="M 597 0 
L 597 4581 
L 1203 4581 
L 1203 0 
L 597 0 
z
" transform="scale(0.015625)"/>
       <path id="ArialMT-75" d="M 2597 0 
L 2597 488 
Q 2209 -75 1544 -75 
Q 1250 -75 995 37 
Q 741 150 617 320 
Q 494 491 444 738 
Q 409 903 409 1263 
L 409 3319 
L 972 3319 
L 972 1478 
Q 972 1038 1006 884 
Q 1059 663 1231 536 
Q 1403 409 1656 409 
Q 1909 409 2131 539 
Q 2353 669 2445 892 
Q 2538 1116 2538 1541 
L 2538 3319 
L 3100 3319 
L 3100 0 
L 2597 0 
z
" transform="scale(0.015625)"/>
       <path id="ArialMT-79" d="M 397 -1278 
L 334 -750 
Q 519 -800 656 -800 
Q 844 -800 956 -737 
Q 1069 -675 1141 -563 
Q 1194 -478 1313 -144 
Q 1328 -97 1363 -6 
L 103 3319 
L 709 3319 
L 1400 1397 
Q 1534 1031 1641 628 
Q 1738 1016 1872 1384 
L 2581 3319 
L 3144 3319 
L 1881 -56 
Q 1678 -603 1566 -809 
Q 1416 -1088 1222 -1217 
Q 1028 -1347 759 -1347 
Q 597 -1347 397 -1278 
z
" transform="scale(0.015625)"/>
      </defs>
      <use xlink:href="#ArialMT-49"/>
      <use xlink:href="#ArialMT-6e" x="27.783203"/>
      <use xlink:href="#ArialMT-64" x="83.398438"/>
      <use xlink:href="#ArialMT-75" x="139.013672"/>
      <use xlink:href="#ArialMT-73" x="194.628906"/>
      <use xlink:href="#ArialMT-74" x="244.628906"/>
      <use xlink:href="#ArialMT-72" x="272.412109"/>
      <use xlink:href="#ArialMT-79" x="305.712891"/>
     </g>
    </g>
    <g id="patch_24">
     <path d="M 416.646487 43.477237 
L 432.486487 43.477237 
L 432.486487 37.933237 
L 416.646487 37.933237 
z
" style="fill: #4c72b0; stroke: #ffffff; stroke-width: 0.8; stroke-linejoin: miter"/>
    </g>
    <g id="text_23">
     <!-- Profession -->
     <g style="fill: #262626" transform="translate(438.822487 43.477237) scale(0.0792 -0.0792)">
      <defs>
       <path id="ArialMT-66" d="M 556 0 
L 556 2881 
L 59 2881 
L 59 3319 
L 556 3319 
L 556 3672 
Q 556 4006 616 4169 
Q 697 4388 901 4523 
Q 1106 4659 1475 4659 
Q 1713 4659 2000 4603 
L 1916 4113 
Q 1741 4144 1584 4144 
Q 1328 4144 1222 4034 
Q 1116 3925 1116 3625 
L 1116 3319 
L 1763 3319 
L 1763 2881 
L 1116 2881 
L 1116 0 
L 556 0 
z
" transform="scale(0.015625)"/>
      </defs>
      <use xlink:href="#ArialMT-50"/>
      <use xlink:href="#ArialMT-72" x="66.699219"/>
      <use xlink:href="#ArialMT-6f" x="100"/>
      <use xlink:href="#ArialMT-66" x="155.615234"/>
      <use xlink:href="#ArialMT-65" x="183.398438"/>
      <use xlink:href="#ArialMT-73" x="239.013672"/>
      <use xlink:href="#ArialMT-73" x="289.013672"/>
      <use xlink:href="#ArialMT-69" x="339.013672"/>
      <use xlink:href="#ArialMT-6f" x="361.230469"/>
      <use xlink:href="#ArialMT-6e" x="416.845703"/>
     </g>
    </g>
    <g id="patch_25">
     <path d="M 416.646487 54.680325 
L 432.486487 54.680325 
L 432.486487 49.136325 
L 416.646487 49.136325 
z
" style="fill: #4c72b0; stroke: #ffffff; stroke-width: 0.8; stroke-linejoin: miter"/>
    </g>
    <g id="text_24">
     <!-- Traffic -->
     <g style="fill: #262626" transform="translate(438.822487 54.680325) scale(0.0792 -0.0792)">
      <defs>
       <path id="ArialMT-54" d="M 1659 0 
L 1659 4041 
L 150 4041 
L 150 4581 
L 3781 4581 
L 3781 4041 
L 2266 4041 
L 2266 0 
L 1659 0 
z
" transform="scale(0.015625)"/>
      </defs>
      <use xlink:href="#ArialMT-54"/>
      <use xlink:href="#ArialMT-72" x="57.333984"/>
      <use xlink:href="#ArialMT-61" x="90.634766"/>
      <use xlink:href="#ArialMT-66" x="146.25"/>
      <use xlink:href="#ArialMT-66" x="172.283203"/>
      <use xlink:href="#ArialMT-69" x="200.066406"/>
      <use xlink:href="#ArialMT-63" x="222.283203"/>
     </g>
    </g>
    <g id="patch_26">
     <path d="M 416.646487 65.883412 
L 432.486487 65.883412 
L 432.486487 60.339412 
L 416.646487 60.339412 
z
" style="fill: #4c72b0; stroke: #ffffff; stroke-width: 0.8; stroke-linejoin: miter"/>
    </g>
    <g id="text_25">
     <!-- Coach -->
     <g style="fill: #262626" transform="translate(438.822487 65.883412) scale(0.0792 -0.0792)">
      <defs>
       <path id="ArialMT-68" d="M 422 0 
L 422 4581 
L 984 4581 
L 984 2938 
Q 1378 3394 1978 3394 
Q 2347 3394 2619 3248 
Q 2891 3103 3008 2847 
Q 3125 2591 3125 2103 
L 3125 0 
L 2563 0 
L 2563 2103 
Q 2563 2525 2380 2717 
Q 2197 2909 1863 2909 
Q 1613 2909 1392 2779 
Q 1172 2650 1078 2428 
Q 984 2206 984 1816 
L 984 0 
L 422 0 
z
" transform="scale(0.015625)"/>
      </defs>
      <use xlink:href="#ArialMT-43"/>
      <use xlink:href="#ArialMT-6f" x="72.216797"/>
      <use xlink:href="#ArialMT-61" x="127.832031"/>
      <use xlink:href="#ArialMT-63" x="183.447266"/>
      <use xlink:href="#ArialMT-68" x="233.447266"/>
     </g>
    </g>
    <g id="patch_27">
     <path d="M 416.646487 77.0865 
L 432.486487 77.0865 
L 432.486487 71.5425 
L 416.646487 71.5425 
z
" style="fill: #4c72b0; stroke: #ffffff; stroke-width: 0.8; stroke-linejoin: miter"/>
    </g>
    <g id="text_26">
     <!-- Head_gender -->
     <g style="fill: #262626" transform="translate(438.822487 77.0865) scale(0.0792 -0.0792)">
      <defs>
       <path id="ArialMT-48" d="M 513 0 
L 513 4581 
L 1119 4581 
L 1119 2700 
L 3500 2700 
L 3500 4581 
L 4106 4581 
L 4106 0 
L 3500 0 
L 3500 2159 
L 1119 2159 
L 1119 0 
L 513 0 
z
" transform="scale(0.015625)"/>
       <path id="ArialMT-5f" d="M -97 -1272 
L -97 -866 
L 3631 -866 
L 3631 -1272 
L -97 -1272 
z
" transform="scale(0.015625)"/>
       <path id="ArialMT-67" d="M 319 -275 
L 866 -356 
Q 900 -609 1056 -725 
Q 1266 -881 1628 -881 
Q 2019 -881 2231 -725 
Q 2444 -569 2519 -288 
Q 2563 -116 2559 434 
Q 2191 0 1641 0 
Q 956 0 581 494 
Q 206 988 206 1678 
Q 206 2153 378 2554 
Q 550 2956 876 3175 
Q 1203 3394 1644 3394 
Q 2231 3394 2613 2919 
L 2613 3319 
L 3131 3319 
L 3131 450 
Q 3131 -325 2973 -648 
Q 2816 -972 2473 -1159 
Q 2131 -1347 1631 -1347 
Q 1038 -1347 672 -1080 
Q 306 -813 319 -275 
z
M 784 1719 
Q 784 1066 1043 766 
Q 1303 466 1694 466 
Q 2081 466 2343 764 
Q 2606 1063 2606 1700 
Q 2606 2309 2336 2618 
Q 2066 2928 1684 2928 
Q 1309 2928 1046 2623 
Q 784 2319 784 1719 
z
" transform="scale(0.015625)"/>
      </defs>
      <use xlink:href="#ArialMT-48"/>
      <use xlink:href="#ArialMT-65" x="72.216797"/>
      <use xlink:href="#ArialMT-61" x="127.832031"/>
      <use xlink:href="#ArialMT-64" x="183.447266"/>
      <use xlink:href="#ArialMT-5f" x="239.0625"/>
      <use xlink:href="#ArialMT-67" x="294.677734"/>
      <use xlink:href="#ArialMT-65" x="350.292969"/>
      <use xlink:href="#ArialMT-6e" x="405.908203"/>
      <use xlink:href="#ArialMT-64" x="461.523438"/>
      <use xlink:href="#ArialMT-65" x="517.138672"/>
      <use xlink:href="#ArialMT-72" x="572.753906"/>
     </g>
    </g>
    <g id="patch_28">
     <path d="M 416.646487 88.478925 
L 432.486487 88.478925 
L 432.486487 82.934925 
L 416.646487 82.934925 
z
" style="fill: #4c72b0; stroke: #ffffff; stroke-width: 0.8; stroke-linejoin: miter"/>
    </g>
    <g id="text_27">
     <!-- Greywage -->
     <g style="fill: #262626" transform="translate(438.822487 88.478925) scale(0.0792 -0.0792)">
      <defs>
       <path id="ArialMT-47" d="M 2638 1797 
L 2638 2334 
L 4578 2338 
L 4578 638 
Q 4131 281 3656 101 
Q 3181 -78 2681 -78 
Q 2006 -78 1454 211 
Q 903 500 622 1047 
Q 341 1594 341 2269 
Q 341 2938 620 3517 
Q 900 4097 1425 4378 
Q 1950 4659 2634 4659 
Q 3131 4659 3532 4498 
Q 3934 4338 4162 4050 
Q 4391 3763 4509 3300 
L 3963 3150 
Q 3859 3500 3706 3700 
Q 3553 3900 3268 4020 
Q 2984 4141 2638 4141 
Q 2222 4141 1919 4014 
Q 1616 3888 1430 3681 
Q 1244 3475 1141 3228 
Q 966 2803 966 2306 
Q 966 1694 1177 1281 
Q 1388 869 1791 669 
Q 2194 469 2647 469 
Q 3041 469 3416 620 
Q 3791 772 3984 944 
L 3984 1797 
L 2638 1797 
z
" transform="scale(0.015625)"/>
       <path id="ArialMT-77" d="M 1034 0 
L 19 3319 
L 600 3319 
L 1128 1403 
L 1325 691 
Q 1338 744 1497 1375 
L 2025 3319 
L 2603 3319 
L 3100 1394 
L 3266 759 
L 3456 1400 
L 4025 3319 
L 4572 3319 
L 3534 0 
L 2950 0 
L 2422 1988 
L 2294 2553 
L 1622 0 
L 1034 0 
z
" transform="scale(0.015625)"/>
      </defs>
      <use xlink:href="#ArialMT-47"/>
      <use xlink:href="#ArialMT-72" x="77.783203"/>
      <use xlink:href="#ArialMT-65" x="111.083984"/>
      <use xlink:href="#ArialMT-79" x="166.699219"/>
      <use xlink:href="#ArialMT-77" x="216.699219"/>
      <use xlink:href="#ArialMT-61" x="288.916016"/>
      <use xlink:href="#ArialMT-67" x="344.53125"/>
      <use xlink:href="#ArialMT-65" x="400.146484"/>
     </g>
    </g>
    <g id="patch_29">
     <path d="M 416.646487 99.774825 
L 432.486487 99.774825 
L 432.486487 94.230825 
L 416.646487 94.230825 
z
" style="fill: #4c72b0; stroke: #ffffff; stroke-width: 0.8; stroke-linejoin: miter"/>
    </g>
    <g id="text_28">
     <!-- Way -->
     <g style="fill: #262626" transform="translate(438.822487 99.774825) scale(0.0792 -0.0792)">
      <defs>
       <path id="ArialMT-57" d="M 1294 0 
L 78 4581 
L 700 4581 
L 1397 1578 
Q 1509 1106 1591 641 
Q 1766 1375 1797 1488 
L 2669 4581 
L 3400 4581 
L 4056 2263 
Q 4303 1400 4413 641 
Q 4500 1075 4641 1638 
L 5359 4581 
L 5969 4581 
L 4713 0 
L 4128 0 
L 3163 3491 
Q 3041 3928 3019 4028 
Q 2947 3713 2884 3491 
L 1913 0 
L 1294 0 
z
" transform="scale(0.015625)"/>
      </defs>
      <use xlink:href="#ArialMT-57"/>
      <use xlink:href="#ArialMT-61" x="90.634766"/>
      <use xlink:href="#ArialMT-79" x="146.25"/>
     </g>
    </g>
    <g id="patch_30">
     <path d="M 416.646487 111.070725 
L 432.486487 111.070725 
L 432.486487 105.526725 
L 416.646487 105.526725 
z
" style="fill: #4c72b0; stroke: #ffffff; stroke-width: 0.8; stroke-linejoin: miter"/>
    </g>
    <g id="text_29">
     <!-- Gender -->
     <g style="fill: #262626" transform="translate(438.822487 111.070725) scale(0.0792 -0.0792)">
      <use xlink:href="#ArialMT-47"/>
      <use xlink:href="#ArialMT-65" x="77.783203"/>
      <use xlink:href="#ArialMT-6e" x="133.398438"/>
      <use xlink:href="#ArialMT-64" x="189.013672"/>
      <use xlink:href="#ArialMT-65" x="244.628906"/>
      <use xlink:href="#ArialMT-72" x="300.244141"/>
     </g>
    </g>
    <g id="patch_31">
     <path d="M 416.646487 122.273812 
L 432.486487 122.273812 
L 432.486487 116.729812 
L 416.646487 116.729812 
z
" style="fill: #4c72b0; stroke: #ffffff; stroke-width: 0.8; stroke-linejoin: miter"/>
    </g>
    <g id="text_30">
     <!-- Age -->
     <g style="fill: #262626" transform="translate(438.822487 122.273812) scale(0.0792 -0.0792)">
      <defs>
       <path id="ArialMT-41" d="M -9 0 
L 1750 4581 
L 2403 4581 
L 4278 0 
L 3588 0 
L 3053 1388 
L 1138 1388 
L 634 0 
L -9 0 
z
M 1313 1881 
L 2866 1881 
L 2388 3150 
Q 2169 3728 2063 4100 
Q 1975 3659 1816 3225 
L 1313 1881 
z
" transform="scale(0.015625)"/>
      </defs>
      <use xlink:href="#ArialMT-41"/>
      <use xlink:href="#ArialMT-67" x="66.699219"/>
      <use xlink:href="#ArialMT-65" x="122.314453"/>
     </g>
    </g>
    <g id="patch_32">
     <path d="M 416.646487 133.666237 
L 432.486487 133.666237 
L 432.486487 128.122237 
L 416.646487 128.122237 
z
" style="fill: #4c72b0; stroke: #ffffff; stroke-width: 0.8; stroke-linejoin: miter"/>
    </g>
    <g id="text_31">
     <!-- Stag -->
     <g style="fill: #262626" transform="translate(438.822487 133.666237) scale(0.0792 -0.0792)">
      <defs>
       <path id="ArialMT-53" d="M 288 1472 
L 859 1522 
Q 900 1178 1048 958 
Q 1197 738 1509 602 
Q 1822 466 2213 466 
Q 2559 466 2825 569 
Q 3091 672 3220 851 
Q 3350 1031 3350 1244 
Q 3350 1459 3225 1620 
Q 3100 1781 2813 1891 
Q 2628 1963 1997 2114 
Q 1366 2266 1113 2400 
Q 784 2572 623 2826 
Q 463 3081 463 3397 
Q 463 3744 659 4045 
Q 856 4347 1234 4503 
Q 1613 4659 2075 4659 
Q 2584 4659 2973 4495 
Q 3363 4331 3572 4012 
Q 3781 3694 3797 3291 
L 3216 3247 
Q 3169 3681 2898 3903 
Q 2628 4125 2100 4125 
Q 1550 4125 1298 3923 
Q 1047 3722 1047 3438 
Q 1047 3191 1225 3031 
Q 1400 2872 2139 2705 
Q 2878 2538 3153 2413 
Q 3553 2228 3743 1945 
Q 3934 1663 3934 1294 
Q 3934 928 3725 604 
Q 3516 281 3123 101 
Q 2731 -78 2241 -78 
Q 1619 -78 1198 103 
Q 778 284 539 648 
Q 300 1013 288 1472 
z
" transform="scale(0.015625)"/>
      </defs>
      <use xlink:href="#ArialMT-53"/>
      <use xlink:href="#ArialMT-74" x="66.699219"/>
      <use xlink:href="#ArialMT-61" x="94.482422"/>
      <use xlink:href="#ArialMT-67" x="150.097656"/>
     </g>
    </g>
    <g id="patch_33">
     <path d="M 416.646487 144.962137 
L 432.486487 144.962137 
L 432.486487 139.418137 
L 416.646487 139.418137 
z
" style="fill: #4c72b0; stroke: #ffffff; stroke-width: 0.8; stroke-linejoin: miter"/>
    </g>
    <g id="text_32">
     <!-- Novator -->
     <g style="fill: #262626" transform="translate(438.822487 144.962137) scale(0.0792 -0.0792)">
      <defs>
       <path id="ArialMT-4e" d="M 488 0 
L 488 4581 
L 1109 4581 
L 3516 984 
L 3516 4581 
L 4097 4581 
L 4097 0 
L 3475 0 
L 1069 3600 
L 1069 0 
L 488 0 
z
" transform="scale(0.015625)"/>
       <path id="ArialMT-76" d="M 1344 0 
L 81 3319 
L 675 3319 
L 1388 1331 
Q 1503 1009 1600 663 
Q 1675 925 1809 1294 
L 2547 3319 
L 3125 3319 
L 1869 0 
L 1344 0 
z
" transform="scale(0.015625)"/>
      </defs>
      <use xlink:href="#ArialMT-4e"/>
      <use xlink:href="#ArialMT-6f" x="72.216797"/>
      <use xlink:href="#ArialMT-76" x="127.832031"/>
      <use xlink:href="#ArialMT-61" x="177.832031"/>
      <use xlink:href="#ArialMT-74" x="233.447266"/>
      <use xlink:href="#ArialMT-6f" x="261.230469"/>
      <use xlink:href="#ArialMT-72" x="316.845703"/>
     </g>
    </g>
    <g id="patch_34">
     <path d="M 416.646487 156.165225 
L 432.486487 156.165225 
L 432.486487 150.621225 
L 416.646487 150.621225 
z
" style="fill: #4c72b0; stroke: #ffffff; stroke-width: 0.8; stroke-linejoin: miter"/>
    </g>
    <g id="text_33">
     <!-- Anxiety -->
     <g style="fill: #262626" transform="translate(438.822487 156.165225) scale(0.0792 -0.0792)">
      <defs>
       <path id="ArialMT-78" d="M 47 0 
L 1259 1725 
L 138 3319 
L 841 3319 
L 1350 2541 
Q 1494 2319 1581 2169 
Q 1719 2375 1834 2534 
L 2394 3319 
L 3066 3319 
L 1919 1756 
L 3153 0 
L 2463 0 
L 1781 1031 
L 1600 1309 
L 728 0 
L 47 0 
z
" transform="scale(0.015625)"/>
      </defs>
      <use xlink:href="#ArialMT-41"/>
      <use xlink:href="#ArialMT-6e" x="66.699219"/>
      <use xlink:href="#ArialMT-78" x="122.314453"/>
      <use xlink:href="#ArialMT-69" x="172.314453"/>
      <use xlink:href="#ArialMT-65" x="194.53125"/>
      <use xlink:href="#ArialMT-74" x="250.146484"/>
      <use xlink:href="#ArialMT-79" x="277.929688"/>
     </g>
    </g>
    <g id="patch_35">
     <path d="M 416.646487 167.461125 
L 432.486487 167.461125 
L 432.486487 161.917125 
L 416.646487 161.917125 
z
" style="fill: #4c72b0; stroke: #ffffff; stroke-width: 0.8; stroke-linejoin: miter"/>
    </g>
    <g id="text_34">
     <!-- Selfcontrol -->
     <g style="fill: #262626" transform="translate(438.822487 167.461125) scale(0.0792 -0.0792)">
      <use xlink:href="#ArialMT-53"/>
      <use xlink:href="#ArialMT-65" x="66.699219"/>
      <use xlink:href="#ArialMT-6c" x="122.314453"/>
      <use xlink:href="#ArialMT-66" x="144.53125"/>
      <use xlink:href="#ArialMT-63" x="172.314453"/>
      <use xlink:href="#ArialMT-6f" x="222.314453"/>
      <use xlink:href="#ArialMT-6e" x="277.929688"/>
      <use xlink:href="#ArialMT-74" x="333.544922"/>
      <use xlink:href="#ArialMT-72" x="361.328125"/>
      <use xlink:href="#ArialMT-6f" x="394.628906"/>
      <use xlink:href="#ArialMT-6c" x="450.244141"/>
     </g>
    </g>
    <g id="patch_36">
     <path d="M 416.646487 178.664212 
L 432.486487 178.664212 
L 432.486487 173.120212 
L 416.646487 173.120212 
z
" style="fill: #4c72b0; stroke: #ffffff; stroke-width: 0.8; stroke-linejoin: miter"/>
    </g>
    <g id="text_35">
     <!-- Independ -->
     <g style="fill: #262626" transform="translate(438.822487 178.664212) scale(0.0792 -0.0792)">
      <use xlink:href="#ArialMT-49"/>
      <use xlink:href="#ArialMT-6e" x="27.783203"/>
      <use xlink:href="#ArialMT-64" x="83.398438"/>
      <use xlink:href="#ArialMT-65" x="139.013672"/>
      <use xlink:href="#ArialMT-70" x="194.628906"/>
      <use xlink:href="#ArialMT-65" x="250.244141"/>
      <use xlink:href="#ArialMT-6e" x="305.859375"/>
      <use xlink:href="#ArialMT-64" x="361.474609"/>
     </g>
    </g>
    <g id="patch_37">
     <path d="M 416.646487 189.8673 
L 432.486487 189.8673 
L 432.486487 184.3233 
L 416.646487 184.3233 
z
" style="fill: #4c72b0; stroke: #ffffff; stroke-width: 0.8; stroke-linejoin: miter"/>
    </g>
    <g id="text_36">
     <!-- Extraversion -->
     <g style="fill: #262626" transform="translate(438.822487 189.8673) scale(0.0792 -0.0792)">
      <defs>
       <path id="ArialMT-45" d="M 506 0 
L 506 4581 
L 3819 4581 
L 3819 4041 
L 1113 4041 
L 1113 2638 
L 3647 2638 
L 3647 2100 
L 1113 2100 
L 1113 541 
L 3925 541 
L 3925 0 
L 506 0 
z
" transform="scale(0.015625)"/>
      </defs>
      <use xlink:href="#ArialMT-45"/>
      <use xlink:href="#ArialMT-78" x="66.699219"/>
      <use xlink:href="#ArialMT-74" x="116.699219"/>
      <use xlink:href="#ArialMT-72" x="144.482422"/>
      <use xlink:href="#ArialMT-61" x="177.783203"/>
      <use xlink:href="#ArialMT-76" x="233.398438"/>
      <use xlink:href="#ArialMT-65" x="283.398438"/>
      <use xlink:href="#ArialMT-72" x="339.013672"/>
      <use xlink:href="#ArialMT-73" x="372.314453"/>
      <use xlink:href="#ArialMT-69" x="422.314453"/>
      <use xlink:href="#ArialMT-6f" x="444.53125"/>
      <use xlink:href="#ArialMT-6e" x="500.146484"/>
     </g>
    </g>
   </g>
  </g>
 </g>
 <defs>
  <clipPath id="pb59d50e8d8">
   <rect x="47.545688" y="19.38435" width="446.4" height="443.52"/>
  </clipPath>
 </defs>
</svg>
