<?xml version="1.0" encoding="utf-8" standalone="no"?>
<!DOCTYPE svg PUBLIC "-//W3C//DTD SVG 1.1//EN"
  "http://www.w3.org/Graphics/SVG/1.1/DTD/svg11.dtd">
<svg xmlns:xlink="http://www.w3.org/1999/xlink" width="356.2542pt" height="356.765037pt" viewBox="0 0 356.2542 356.765037" xmlns="http://www.w3.org/2000/svg" version="1.1">
 <metadata>
  <rdf:RDF xmlns:dc="http://purl.org/dc/elements/1.1/" xmlns:cc="http://creativecommons.org/ns#" xmlns:rdf="http://www.w3.org/1999/02/22-rdf-syntax-ns#">
   <cc:Work>
    <dc:type rdf:resource="http://purl.org/dc/dcmitype/StillImage"/>
    <dc:date>2024-09-29T16:36:10.052968</dc:date>
    <dc:format>image/svg+xml</dc:format>
    <dc:creator>
     <cc:Agent>
      <dc:title>Matplotlib v3.7.5, https://matplotlib.org/</dc:title>
     </cc:Agent>
    </dc:creator>
   </cc:Work>
  </rdf:RDF>
 </metadata>
 <defs>
  <style type="text/css">*{stroke-linejoin: round; stroke-linecap: butt}</style>
 </defs>
 <g id="figure_1">
  <g id="patch_1">
   <path d="M -0 356.765037 
L 356.2542 356.765037 
L 356.2542 0 
L -0 0 
z
" style="fill: #ffffff"/>
  </g>
  <g id="axes_1">
   <g id="patch_2">
    <path d="M 38.41035 334.02195 
L 349.0542 334.02195 
L 349.0542 19.38435 
L 38.41035 19.38435 
z
" style="fill: #ffffff"/>
   </g>
   <g id="matplotlib.axis_1">
    <g id="xtick_1">
     <g id="line2d_1">
      <defs>
       <path id="mf7c94ade2d" d="M 0 0 
L 0 4.8 
" style="stroke: #262626"/>
      </defs>
      <g>
       <use xlink:href="#mf7c94ade2d" x="62.723063" y="334.02195" style="fill: #262626; stroke: #262626"/>
      </g>
     </g>
     <g id="text_1">
      <!-- 1 -->
      <g style="fill: #262626" transform="translate(60.520932 347.990937) scale(0.0792 -0.0792)">
       <defs>
        <path id="ArialMT-31" d="M 2384 0 
L 1822 0 
L 1822 3584 
Q 1619 3391 1289 3197 
Q 959 3003 697 2906 
L 697 3450 
Q 1169 3672 1522 3987 
Q 1875 4303 2022 4600 
L 2384 4600 
L 2384 0 
z
" transform="scale(0.015625)"/>
       </defs>
       <use xlink:href="#ArialMT-31"/>
      </g>
     </g>
    </g>
    <g id="xtick_2">
     <g id="line2d_2">
      <g>
       <use xlink:href="#mf7c94ade2d" x="179.175696" y="334.02195" style="fill: #262626; stroke: #262626"/>
      </g>
     </g>
     <g id="text_2">
      <!-- 5 -->
      <g style="fill: #262626" transform="translate(176.973565 347.990937) scale(0.0792 -0.0792)">
       <defs>
        <path id="ArialMT-35" d="M 266 1200 
L 856 1250 
Q 922 819 1161 601 
Q 1400 384 1738 384 
Q 2144 384 2425 690 
Q 2706 997 2706 1503 
Q 2706 1984 2436 2262 
Q 2166 2541 1728 2541 
Q 1456 2541 1237 2417 
Q 1019 2294 894 2097 
L 366 2166 
L 809 4519 
L 3088 4519 
L 3088 3981 
L 1259 3981 
L 1013 2750 
Q 1425 3038 1878 3038 
Q 2478 3038 2890 2622 
Q 3303 2206 3303 1553 
Q 3303 931 2941 478 
Q 2500 -78 1738 -78 
Q 1113 -78 717 272 
Q 322 622 266 1200 
z
" transform="scale(0.015625)"/>
       </defs>
       <use xlink:href="#ArialMT-35"/>
      </g>
     </g>
    </g>
    <g id="xtick_3">
     <g id="line2d_3">
      <g>
       <use xlink:href="#mf7c94ade2d" x="324.741487" y="334.02195" style="fill: #262626; stroke: #262626"/>
      </g>
     </g>
     <g id="text_3">
      <!-- 10 -->
      <g style="fill: #262626" transform="translate(320.337224 347.990937) scale(0.0792 -0.0792)">
       <defs>
        <path id="ArialMT-30" d="M 266 2259 
Q 266 3072 433 3567 
Q 600 4063 929 4331 
Q 1259 4600 1759 4600 
Q 2128 4600 2406 4451 
Q 2684 4303 2865 4023 
Q 3047 3744 3150 3342 
Q 3253 2941 3253 2259 
Q 3253 1453 3087 958 
Q 2922 463 2592 192 
Q 2263 -78 1759 -78 
Q 1097 -78 719 397 
Q 266 969 266 2259 
z
M 844 2259 
Q 844 1131 1108 757 
Q 1372 384 1759 384 
Q 2147 384 2411 759 
Q 2675 1134 2675 2259 
Q 2675 3391 2411 3762 
Q 2147 4134 1753 4134 
Q 1366 4134 1134 3806 
Q 844 3388 844 2259 
z
" transform="scale(0.015625)"/>
       </defs>
       <use xlink:href="#ArialMT-31"/>
       <use xlink:href="#ArialMT-30" x="55.615234"/>
      </g>
     </g>
    </g>
   </g>
   <g id="matplotlib.axis_2">
    <g id="ytick_1">
     <g id="line2d_4">
      <defs>
       <path id="ma21a611c35" d="M 0 0 
L -4.8 0 
" style="stroke: #262626"/>
      </defs>
      <g>
       <use xlink:href="#ma21a611c35" x="38.41035" y="334.02195" style="fill: #262626; stroke: #262626"/>
      </g>
     </g>
     <g id="text_4">
      <!-- 0.0 -->
      <g style="fill: #262626" transform="translate(19.10155 336.856444) scale(0.0792 -0.0792)">
       <defs>
        <path id="ArialMT-2e" d="M 581 0 
L 581 641 
L 1222 641 
L 1222 0 
L 581 0 
z
" transform="scale(0.015625)"/>
       </defs>
       <use xlink:href="#ArialMT-30"/>
       <use xlink:href="#ArialMT-2e" x="55.615234"/>
       <use xlink:href="#ArialMT-30" x="83.398438"/>
      </g>
     </g>
    </g>
    <g id="ytick_2">
     <g id="line2d_5">
      <g>
       <use xlink:href="#ma21a611c35" x="38.41035" y="276.746908" style="fill: #262626; stroke: #262626"/>
      </g>
     </g>
     <g id="text_5">
      <!-- 0.1 -->
      <g style="fill: #262626" transform="translate(19.10155 279.581402) scale(0.0792 -0.0792)">
       <use xlink:href="#ArialMT-30"/>
       <use xlink:href="#ArialMT-2e" x="55.615234"/>
       <use xlink:href="#ArialMT-31" x="83.398438"/>
      </g>
     </g>
    </g>
    <g id="ytick_3">
     <g id="line2d_6">
      <g>
       <use xlink:href="#ma21a611c35" x="38.41035" y="219.471867" style="fill: #262626; stroke: #262626"/>
      </g>
     </g>
     <g id="text_6">
      <!-- 0.2 -->
      <g style="fill: #262626" transform="translate(19.10155 222.30636) scale(0.0792 -0.0792)">
       <defs>
        <path id="ArialMT-32" d="M 3222 541 
L 3222 0 
L 194 0 
Q 188 203 259 391 
Q 375 700 629 1000 
Q 884 1300 1366 1694 
Q 2113 2306 2375 2664 
Q 2638 3022 2638 3341 
Q 2638 3675 2398 3904 
Q 2159 4134 1775 4134 
Q 1369 4134 1125 3890 
Q 881 3647 878 3216 
L 300 3275 
Q 359 3922 746 4261 
Q 1134 4600 1788 4600 
Q 2447 4600 2831 4234 
Q 3216 3869 3216 3328 
Q 3216 3053 3103 2787 
Q 2991 2522 2730 2228 
Q 2469 1934 1863 1422 
Q 1356 997 1212 845 
Q 1069 694 975 541 
L 3222 541 
z
" transform="scale(0.015625)"/>
       </defs>
       <use xlink:href="#ArialMT-30"/>
       <use xlink:href="#ArialMT-2e" x="55.615234"/>
       <use xlink:href="#ArialMT-32" x="83.398438"/>
      </g>
     </g>
    </g>
    <g id="ytick_4">
     <g id="line2d_7">
      <g>
       <use xlink:href="#ma21a611c35" x="38.41035" y="162.196825" style="fill: #262626; stroke: #262626"/>
      </g>
     </g>
     <g id="text_7">
      <!-- 0.3 -->
      <g style="fill: #262626" transform="translate(19.10155 165.031319) scale(0.0792 -0.0792)">
       <defs>
        <path id="ArialMT-33" d="M 269 1209 
L 831 1284 
Q 928 806 1161 595 
Q 1394 384 1728 384 
Q 2125 384 2398 659 
Q 2672 934 2672 1341 
Q 2672 1728 2419 1979 
Q 2166 2231 1775 2231 
Q 1616 2231 1378 2169 
L 1441 2663 
Q 1497 2656 1531 2656 
Q 1891 2656 2178 2843 
Q 2466 3031 2466 3422 
Q 2466 3731 2256 3934 
Q 2047 4138 1716 4138 
Q 1388 4138 1169 3931 
Q 950 3725 888 3313 
L 325 3413 
Q 428 3978 793 4289 
Q 1159 4600 1703 4600 
Q 2078 4600 2393 4439 
Q 2709 4278 2876 4000 
Q 3044 3722 3044 3409 
Q 3044 3113 2884 2869 
Q 2725 2625 2413 2481 
Q 2819 2388 3044 2092 
Q 3269 1797 3269 1353 
Q 3269 753 2831 336 
Q 2394 -81 1725 -81 
Q 1122 -81 723 278 
Q 325 638 269 1209 
z
" transform="scale(0.015625)"/>
       </defs>
       <use xlink:href="#ArialMT-30"/>
       <use xlink:href="#ArialMT-2e" x="55.615234"/>
       <use xlink:href="#ArialMT-33" x="83.398438"/>
      </g>
     </g>
    </g>
    <g id="ytick_5">
     <g id="line2d_8">
      <g>
       <use xlink:href="#ma21a611c35" x="38.41035" y="104.921783" style="fill: #262626; stroke: #262626"/>
      </g>
     </g>
     <g id="text_8">
      <!-- 0.4 -->
      <g style="fill: #262626" transform="translate(19.10155 107.756277) scale(0.0792 -0.0792)">
       <defs>
        <path id="ArialMT-34" d="M 2069 0 
L 2069 1097 
L 81 1097 
L 81 1613 
L 2172 4581 
L 2631 4581 
L 2631 1613 
L 3250 1613 
L 3250 1097 
L 2631 1097 
L 2631 0 
L 2069 0 
z
M 2069 1613 
L 2069 3678 
L 634 1613 
L 2069 1613 
z
" transform="scale(0.015625)"/>
       </defs>
       <use xlink:href="#ArialMT-30"/>
       <use xlink:href="#ArialMT-2e" x="55.615234"/>
       <use xlink:href="#ArialMT-34" x="83.398438"/>
      </g>
     </g>
    </g>
    <g id="ytick_6">
     <g id="line2d_9">
      <g>
       <use xlink:href="#ma21a611c35" x="38.41035" y="47.646742" style="fill: #262626; stroke: #262626"/>
      </g>
     </g>
     <g id="text_9">
      <!-- 0.5 -->
      <g style="fill: #262626" transform="translate(19.10155 50.481235) scale(0.0792 -0.0792)">
       <use xlink:href="#ArialMT-30"/>
       <use xlink:href="#ArialMT-2e" x="55.615234"/>
       <use xlink:href="#ArialMT-35" x="83.398438"/>
      </g>
     </g>
    </g>
    <g id="text_10">
     <!-- Densité -->
     <g style="fill: #262626" transform="translate(13.38435 191.349975) rotate(-90) scale(0.0864 -0.0864)">
      <defs>
       <path id="ArialMT-44" d="M 494 0 
L 494 4581 
L 2072 4581 
Q 2606 4581 2888 4516 
Q 3281 4425 3559 4188 
Q 3922 3881 4101 3404 
Q 4281 2928 4281 2316 
Q 4281 1794 4159 1391 
Q 4038 988 3847 723 
Q 3656 459 3429 307 
Q 3203 156 2883 78 
Q 2563 0 2147 0 
L 494 0 
z
M 1100 541 
L 2078 541 
Q 2531 541 2789 625 
Q 3047 709 3200 863 
Q 3416 1078 3536 1442 
Q 3656 1806 3656 2325 
Q 3656 3044 3420 3430 
Q 3184 3816 2847 3947 
Q 2603 4041 2063 4041 
L 1100 4041 
L 1100 541 
z
" transform="scale(0.015625)"/>
       <path id="ArialMT-65" d="M 2694 1069 
L 3275 997 
Q 3138 488 2766 206 
Q 2394 -75 1816 -75 
Q 1088 -75 661 373 
Q 234 822 234 1631 
Q 234 2469 665 2931 
Q 1097 3394 1784 3394 
Q 2450 3394 2872 2941 
Q 3294 2488 3294 1666 
Q 3294 1616 3291 1516 
L 816 1516 
Q 847 969 1125 678 
Q 1403 388 1819 388 
Q 2128 388 2347 550 
Q 2566 713 2694 1069 
z
M 847 1978 
L 2700 1978 
Q 2663 2397 2488 2606 
Q 2219 2931 1791 2931 
Q 1403 2931 1139 2672 
Q 875 2413 847 1978 
z
" transform="scale(0.015625)"/>
       <path id="ArialMT-6e" d="M 422 0 
L 422 3319 
L 928 3319 
L 928 2847 
Q 1294 3394 1984 3394 
Q 2284 3394 2536 3286 
Q 2788 3178 2913 3003 
Q 3038 2828 3088 2588 
Q 3119 2431 3119 2041 
L 3119 0 
L 2556 0 
L 2556 2019 
Q 2556 2363 2490 2533 
Q 2425 2703 2258 2804 
Q 2091 2906 1866 2906 
Q 1506 2906 1245 2678 
Q 984 2450 984 1813 
L 984 0 
L 422 0 
z
" transform="scale(0.015625)"/>
       <path id="ArialMT-73" d="M 197 991 
L 753 1078 
Q 800 744 1014 566 
Q 1228 388 1613 388 
Q 2000 388 2187 545 
Q 2375 703 2375 916 
Q 2375 1106 2209 1216 
Q 2094 1291 1634 1406 
Q 1016 1563 777 1677 
Q 538 1791 414 1992 
Q 291 2194 291 2438 
Q 291 2659 392 2848 
Q 494 3038 669 3163 
Q 800 3259 1026 3326 
Q 1253 3394 1513 3394 
Q 1903 3394 2198 3281 
Q 2494 3169 2634 2976 
Q 2775 2784 2828 2463 
L 2278 2388 
Q 2241 2644 2061 2787 
Q 1881 2931 1553 2931 
Q 1166 2931 1000 2803 
Q 834 2675 834 2503 
Q 834 2394 903 2306 
Q 972 2216 1119 2156 
Q 1203 2125 1616 2013 
Q 2213 1853 2448 1751 
Q 2684 1650 2818 1456 
Q 2953 1263 2953 975 
Q 2953 694 2789 445 
Q 2625 197 2315 61 
Q 2006 -75 1616 -75 
Q 969 -75 630 194 
Q 291 463 197 991 
z
" transform="scale(0.015625)"/>
       <path id="ArialMT-69" d="M 425 3934 
L 425 4581 
L 988 4581 
L 988 3934 
L 425 3934 
z
M 425 0 
L 425 3319 
L 988 3319 
L 988 0 
L 425 0 
z
" transform="scale(0.015625)"/>
       <path id="ArialMT-74" d="M 1650 503 
L 1731 6 
Q 1494 -44 1306 -44 
Q 1000 -44 831 53 
Q 663 150 594 308 
Q 525 466 525 972 
L 525 2881 
L 113 2881 
L 113 3319 
L 525 3319 
L 525 4141 
L 1084 4478 
L 1084 3319 
L 1650 3319 
L 1650 2881 
L 1084 2881 
L 1084 941 
Q 1084 700 1114 631 
Q 1144 563 1211 522 
Q 1278 481 1403 481 
Q 1497 481 1650 503 
z
" transform="scale(0.015625)"/>
       <path id="ArialMT-e9" d="M 2694 1069 
L 3275 997 
Q 3138 488 2766 206 
Q 2394 -75 1816 -75 
Q 1088 -75 661 373 
Q 234 822 234 1631 
Q 234 2469 665 2931 
Q 1097 3394 1784 3394 
Q 2450 3394 2872 2941 
Q 3294 2488 3294 1666 
Q 3294 1616 3291 1516 
L 816 1516 
Q 847 969 1125 678 
Q 1403 388 1819 388 
Q 2128 388 2347 550 
Q 2566 713 2694 1069 
z
M 847 1978 
L 2700 1978 
Q 2663 2397 2488 2606 
Q 2219 2931 1791 2931 
Q 1403 2931 1139 2672 
Q 875 2413 847 1978 
z
M 1454 3731 
L 1869 4606 
L 2607 4606 
L 1919 3731 
L 1454 3731 
z
" transform="scale(0.015625)"/>
      </defs>
      <use xlink:href="#ArialMT-44"/>
      <use xlink:href="#ArialMT-65" x="72.216797"/>
      <use xlink:href="#ArialMT-6e" x="127.832031"/>
      <use xlink:href="#ArialMT-73" x="183.447266"/>
      <use xlink:href="#ArialMT-69" x="233.447266"/>
      <use xlink:href="#ArialMT-74" x="255.664062"/>
      <use xlink:href="#ArialMT-e9" x="283.447266"/>
     </g>
    </g>
   </g>
   <g id="line2d_10">
    <path d="M 52.530525 333.925618 
L 53.949638 333.712833 
L 55.368751 333.188712 
L 56.787864 332.134695 
L 58.206977 330.427229 
L 61.045203 326.156111 
L 62.464316 324.749232 
L 65.302543 323.487906 
L 66.721656 321.805009 
L 68.140769 318.665848 
L 69.559882 315.070261 
L 70.978995 312.96326 
L 72.398108 313.843928 
L 73.817221 317.630757 
L 76.655447 327.564566 
L 78.07456 330.89892 
L 79.493673 332.750917 
L 80.912786 333.573917 
L 82.331899 333.821469 
L 83.751012 333.669707 
L 85.170126 332.874024 
L 86.589239 330.62389 
L 88.008352 325.533793 
L 89.427465 316.208728 
L 90.846578 302.623486 
L 92.265691 287.537798 
L 93.684804 276.221443 
L 95.103917 273.65648 
L 96.52303 281.07076 
L 99.361256 309.881731 
L 100.780369 321.475266 
L 102.199482 328.542807 
L 103.618595 331.998847 
L 105.037708 333.322134 
L 106.456821 333.492853 
L 107.875935 332.582174 
L 109.295048 329.524208 
L 110.714161 321.962087 
L 112.133274 306.828459 
L 113.552387 282.517012 
L 114.9715 252.087839 
L 116.390613 224.547966 
L 117.809726 211.168514 
L 119.228839 218.225861 
L 120.647952 242.351221 
L 122.067065 273.068572 
L 123.486178 299.981378 
L 124.905291 318.053703 
L 126.324404 327.722644 
L 127.743517 331.888995 
L 129.162631 333.192727 
L 130.581744 332.861456 
L 132.000857 330.473109 
L 133.41997 323.855583 
L 134.839083 309.397577 
L 136.258196 283.907797 
L 139.096422 211.034483 
L 140.515535 185.716643 
L 141.934648 183.817518 
L 143.353761 206.24891 
L 146.191987 279.234396 
L 147.6111 306.379469 
L 149.030213 322.172242 
L 150.449327 329.164729 
L 151.86844 330.215759 
L 153.287553 325.829987 
L 154.706666 313.62087 
L 156.125779 289.936892 
L 157.544892 253.791565 
L 158.964005 211.359127 
L 160.383118 176.505792 
L 161.802231 164.131836 
L 163.221344 180.120979 
L 164.640457 216.925203 
L 166.05957 259.191429 
L 167.478683 293.856972 
L 168.897796 315.911569 
L 170.316909 327.140887 
L 171.736022 331.701117 
L 173.155136 332.781895 
L 174.574249 331.306252 
L 175.993362 325.46339 
L 177.412475 310.355525 
L 178.831588 278.914927 
L 180.250701 226.232811 
L 183.088927 89.67373 
L 184.50804 50.836012 
L 185.927153 58.367892 
L 187.346266 108.656519 
L 190.184492 244.768568 
L 191.603605 290.785088 
L 193.022718 316.41931 
L 194.441832 327.938822 
L 195.860945 331.934539 
L 197.280058 332.07658 
L 198.699171 328.51223 
L 200.118284 317.842783 
L 201.537397 293.568579 
L 202.95651 249.001115 
L 204.375623 183.934031 
L 205.794736 111.487412 
L 207.213849 56.894607 
L 208.632962 44.159775 
L 210.052075 79.377599 
L 212.890301 217.573845 
L 214.309414 273.372554 
L 215.728528 307.311878 
L 217.147641 323.336306 
L 218.566754 327.409999 
L 219.985867 321.786749 
L 221.40498 303.318816 
L 222.824093 265.648297 
L 224.243206 205.538536 
L 225.662319 131.159756 
L 227.081432 64.993077 
L 228.500545 34.362506 
L 229.919658 53.680485 
L 231.338771 113.741011 
L 232.757884 188.64459 
L 234.176997 253.438068 
L 235.59611 296.502763 
L 237.015223 319.335981 
L 238.434337 329.113322 
L 239.85345 332.255473 
L 241.272563 331.93852 
L 242.691676 327.908779 
L 244.110789 316.678658 
L 245.529902 292.332318 
L 246.949015 249.810163 
L 249.787241 130.421499 
L 251.206354 90.337757 
L 252.625467 89.055739 
L 254.04458 127.191149 
L 256.882806 246.65961 
L 258.301919 290.317032 
L 259.721033 315.653492 
L 261.140146 327.510163 
L 262.559259 331.938954 
L 263.978372 332.836697 
L 265.397485 331.331781 
L 266.816598 326.034612 
L 268.235711 313.42286 
L 269.654824 289.315107 
L 271.073937 252.517984 
L 272.49305 209.221414 
L 273.912163 173.518446 
L 275.331276 160.648418 
L 276.750389 176.728253 
L 278.169502 214.16298 
L 279.588615 257.309462 
L 281.007729 292.777397 
L 282.426842 315.357625 
L 283.845955 326.74558 
L 285.265068 330.929338 
L 286.684181 330.654936 
L 288.103294 326.275902 
L 289.522407 316.403837 
L 290.94152 299.862858 
L 293.779746 257.74466 
L 295.198859 246.279403 
L 296.617972 249.24931 
L 298.037085 265.230985 
L 299.456198 287.136583 
L 300.875311 307.182495 
L 302.294424 321.117341 
L 303.713538 328.809682 
L 305.132651 332.247981 
L 306.551764 333.486206 
L 307.970877 333.766383 
L 309.38999 333.521938 
L 310.809103 332.609828 
L 312.228216 330.519089 
L 313.647329 326.694176 
L 315.066442 321.105741 
L 316.485555 314.782368 
L 317.904668 309.655636 
L 319.323781 307.482618 
L 320.742894 308.663068 
L 322.162007 312.127195 
L 325.000234 320.483526 
L 326.419347 324.223301 
L 327.83846 327.524889 
L 329.257573 330.200756 
L 330.676686 332.075666 
L 332.095799 333.175844 
L 333.514912 333.710483 
L 334.934025 333.925258 
L 334.934025 333.925258 
" clip-path="url(#p7399f8a0ae)" style="fill: none; stroke: #4c72b0; stroke-width: 1.2; stroke-linecap: round"/>
   </g>
   <g id="line2d_11">
    <path d="M 208.288854 334.02195 
L 208.288854 19.38435 
" clip-path="url(#p7399f8a0ae)" style="fill: none; stroke-dasharray: 4.44,1.92; stroke-dashoffset: 0; stroke: #203ae0; stroke-width: 1.2"/>
   </g>
   <g id="patch_3">
    <path d="M 38.41035 334.02195 
L 38.41035 19.38435 
" style="fill: none; stroke: #262626; stroke-linejoin: miter; stroke-linecap: square"/>
   </g>
   <g id="patch_4">
    <path d="M 38.41035 334.02195 
L 349.0542 334.02195 
" style="fill: none; stroke: #262626; stroke-linejoin: miter; stroke-linecap: square"/>
   </g>
   <g id="text_11">
    <!-- Distribution de la densité des valeurs de la colonne Novator -->
    <g style="fill: #262626" transform="translate(79.913775 13.38435) scale(0.0864 -0.0864)">
     <defs>
      <path id="ArialMT-72" d="M 416 0 
L 416 3319 
L 922 3319 
L 922 2816 
Q 1116 3169 1280 3281 
Q 1444 3394 1641 3394 
Q 1925 3394 2219 3213 
L 2025 2691 
Q 1819 2813 1613 2813 
Q 1428 2813 1281 2702 
Q 1134 2591 1072 2394 
Q 978 2094 978 1738 
L 978 0 
L 416 0 
z
" transform="scale(0.015625)"/>
      <path id="ArialMT-62" d="M 941 0 
L 419 0 
L 419 4581 
L 981 4581 
L 981 2947 
Q 1338 3394 1891 3394 
Q 2197 3394 2470 3270 
Q 2744 3147 2920 2923 
Q 3097 2700 3197 2384 
Q 3297 2069 3297 1709 
Q 3297 856 2875 390 
Q 2453 -75 1863 -75 
Q 1275 -75 941 416 
L 941 0 
z
M 934 1684 
Q 934 1088 1097 822 
Q 1363 388 1816 388 
Q 2184 388 2453 708 
Q 2722 1028 2722 1663 
Q 2722 2313 2464 2622 
Q 2206 2931 1841 2931 
Q 1472 2931 1203 2611 
Q 934 2291 934 1684 
z
" transform="scale(0.015625)"/>
      <path id="ArialMT-75" d="M 2597 0 
L 2597 488 
Q 2209 -75 1544 -75 
Q 1250 -75 995 37 
Q 741 150 617 320 
Q 494 491 444 738 
Q 409 903 409 1263 
L 409 3319 
L 972 3319 
L 972 1478 
Q 972 1038 1006 884 
Q 1059 663 1231 536 
Q 1403 409 1656 409 
Q 1909 409 2131 539 
Q 2353 669 2445 892 
Q 2538 1116 2538 1541 
L 2538 3319 
L 3100 3319 
L 3100 0 
L 2597 0 
z
" transform="scale(0.015625)"/>
      <path id="ArialMT-6f" d="M 213 1659 
Q 213 2581 725 3025 
Q 1153 3394 1769 3394 
Q 2453 3394 2887 2945 
Q 3322 2497 3322 1706 
Q 3322 1066 3130 698 
Q 2938 331 2570 128 
Q 2203 -75 1769 -75 
Q 1072 -75 642 372 
Q 213 819 213 1659 
z
M 791 1659 
Q 791 1022 1069 705 
Q 1347 388 1769 388 
Q 2188 388 2466 706 
Q 2744 1025 2744 1678 
Q 2744 2294 2464 2611 
Q 2184 2928 1769 2928 
Q 1347 2928 1069 2612 
Q 791 2297 791 1659 
z
" transform="scale(0.015625)"/>
      <path id="ArialMT-20" transform="scale(0.015625)"/>
      <path id="ArialMT-64" d="M 2575 0 
L 2575 419 
Q 2259 -75 1647 -75 
Q 1250 -75 917 144 
Q 584 363 401 755 
Q 219 1147 219 1656 
Q 219 2153 384 2558 
Q 550 2963 881 3178 
Q 1213 3394 1622 3394 
Q 1922 3394 2156 3267 
Q 2391 3141 2538 2938 
L 2538 4581 
L 3097 4581 
L 3097 0 
L 2575 0 
z
M 797 1656 
Q 797 1019 1065 703 
Q 1334 388 1700 388 
Q 2069 388 2326 689 
Q 2584 991 2584 1609 
Q 2584 2291 2321 2609 
Q 2059 2928 1675 2928 
Q 1300 2928 1048 2622 
Q 797 2316 797 1656 
z
" transform="scale(0.015625)"/>
      <path id="ArialMT-6c" d="M 409 0 
L 409 4581 
L 972 4581 
L 972 0 
L 409 0 
z
" transform="scale(0.015625)"/>
      <path id="ArialMT-61" d="M 2588 409 
Q 2275 144 1986 34 
Q 1697 -75 1366 -75 
Q 819 -75 525 192 
Q 231 459 231 875 
Q 231 1119 342 1320 
Q 453 1522 633 1644 
Q 813 1766 1038 1828 
Q 1203 1872 1538 1913 
Q 2219 1994 2541 2106 
Q 2544 2222 2544 2253 
Q 2544 2597 2384 2738 
Q 2169 2928 1744 2928 
Q 1347 2928 1158 2789 
Q 969 2650 878 2297 
L 328 2372 
Q 403 2725 575 2942 
Q 747 3159 1072 3276 
Q 1397 3394 1825 3394 
Q 2250 3394 2515 3294 
Q 2781 3194 2906 3042 
Q 3031 2891 3081 2659 
Q 3109 2516 3109 2141 
L 3109 1391 
Q 3109 606 3145 398 
Q 3181 191 3288 0 
L 2700 0 
Q 2613 175 2588 409 
z
M 2541 1666 
Q 2234 1541 1622 1453 
Q 1275 1403 1131 1340 
Q 988 1278 909 1158 
Q 831 1038 831 891 
Q 831 666 1001 516 
Q 1172 366 1500 366 
Q 1825 366 2078 508 
Q 2331 650 2450 897 
Q 2541 1088 2541 1459 
L 2541 1666 
z
" transform="scale(0.015625)"/>
      <path id="ArialMT-76" d="M 1344 0 
L 81 3319 
L 675 3319 
L 1388 1331 
Q 1503 1009 1600 663 
Q 1675 925 1809 1294 
L 2547 3319 
L 3125 3319 
L 1869 0 
L 1344 0 
z
" transform="scale(0.015625)"/>
      <path id="ArialMT-63" d="M 2588 1216 
L 3141 1144 
Q 3050 572 2676 248 
Q 2303 -75 1759 -75 
Q 1078 -75 664 370 
Q 250 816 250 1647 
Q 250 2184 428 2587 
Q 606 2991 970 3192 
Q 1334 3394 1763 3394 
Q 2303 3394 2647 3120 
Q 2991 2847 3088 2344 
L 2541 2259 
Q 2463 2594 2264 2762 
Q 2066 2931 1784 2931 
Q 1359 2931 1093 2626 
Q 828 2322 828 1663 
Q 828 994 1084 691 
Q 1341 388 1753 388 
Q 2084 388 2306 591 
Q 2528 794 2588 1216 
z
" transform="scale(0.015625)"/>
      <path id="ArialMT-4e" d="M 488 0 
L 488 4581 
L 1109 4581 
L 3516 984 
L 3516 4581 
L 4097 4581 
L 4097 0 
L 3475 0 
L 1069 3600 
L 1069 0 
L 488 0 
z
" transform="scale(0.015625)"/>
     </defs>
     <use xlink:href="#ArialMT-44"/>
     <use xlink:href="#ArialMT-69" x="72.216797"/>
     <use xlink:href="#ArialMT-73" x="94.433594"/>
     <use xlink:href="#ArialMT-74" x="144.433594"/>
     <use xlink:href="#ArialMT-72" x="172.216797"/>
     <use xlink:href="#ArialMT-69" x="205.517578"/>
     <use xlink:href="#ArialMT-62" x="227.734375"/>
     <use xlink:href="#ArialMT-75" x="283.349609"/>
     <use xlink:href="#ArialMT-74" x="338.964844"/>
     <use xlink:href="#ArialMT-69" x="366.748047"/>
     <use xlink:href="#ArialMT-6f" x="388.964844"/>
     <use xlink:href="#ArialMT-6e" x="444.580078"/>
     <use xlink:href="#ArialMT-20" x="500.195312"/>
     <use xlink:href="#ArialMT-64" x="527.978516"/>
     <use xlink:href="#ArialMT-65" x="583.59375"/>
     <use xlink:href="#ArialMT-20" x="639.208984"/>
     <use xlink:href="#ArialMT-6c" x="666.992188"/>
     <use xlink:href="#ArialMT-61" x="689.208984"/>
     <use xlink:href="#ArialMT-20" x="744.824219"/>
     <use xlink:href="#ArialMT-64" x="772.607422"/>
     <use xlink:href="#ArialMT-65" x="828.222656"/>
     <use xlink:href="#ArialMT-6e" x="883.837891"/>
     <use xlink:href="#ArialMT-73" x="939.453125"/>
     <use xlink:href="#ArialMT-69" x="989.453125"/>
     <use xlink:href="#ArialMT-74" x="1011.669922"/>
     <use xlink:href="#ArialMT-e9" x="1039.453125"/>
     <use xlink:href="#ArialMT-20" x="1095.068359"/>
     <use xlink:href="#ArialMT-64" x="1122.851562"/>
     <use xlink:href="#ArialMT-65" x="1178.466797"/>
     <use xlink:href="#ArialMT-73" x="1234.082031"/>
     <use xlink:href="#ArialMT-20" x="1284.082031"/>
     <use xlink:href="#ArialMT-76" x="1311.865234"/>
     <use xlink:href="#ArialMT-61" x="1361.865234"/>
     <use xlink:href="#ArialMT-6c" x="1417.480469"/>
     <use xlink:href="#ArialMT-65" x="1439.697266"/>
     <use xlink:href="#ArialMT-75" x="1495.3125"/>
     <use xlink:href="#ArialMT-72" x="1550.927734"/>
     <use xlink:href="#ArialMT-73" x="1584.228516"/>
     <use xlink:href="#ArialMT-20" x="1634.228516"/>
     <use xlink:href="#ArialMT-64" x="1662.011719"/>
     <use xlink:href="#ArialMT-65" x="1717.626953"/>
     <use xlink:href="#ArialMT-20" x="1773.242188"/>
     <use xlink:href="#ArialMT-6c" x="1801.025391"/>
     <use xlink:href="#ArialMT-61" x="1823.242188"/>
     <use xlink:href="#ArialMT-20" x="1878.857422"/>
     <use xlink:href="#ArialMT-63" x="1906.640625"/>
     <use xlink:href="#ArialMT-6f" x="1956.640625"/>
     <use xlink:href="#ArialMT-6c" x="2012.255859"/>
     <use xlink:href="#ArialMT-6f" x="2034.472656"/>
     <use xlink:href="#ArialMT-6e" x="2090.087891"/>
     <use xlink:href="#ArialMT-6e" x="2145.703125"/>
     <use xlink:href="#ArialMT-65" x="2201.318359"/>
     <use xlink:href="#ArialMT-20" x="2256.933594"/>
     <use xlink:href="#ArialMT-4e" x="2284.716797"/>
     <use xlink:href="#ArialMT-6f" x="2356.933594"/>
     <use xlink:href="#ArialMT-76" x="2412.548828"/>
     <use xlink:href="#ArialMT-61" x="2462.548828"/>
     <use xlink:href="#ArialMT-74" x="2518.164062"/>
     <use xlink:href="#ArialMT-6f" x="2545.947266"/>
     <use xlink:href="#ArialMT-72" x="2601.5625"/>
    </g>
   </g>
  </g>
 </g>
 <defs>
  <clipPath id="p7399f8a0ae">
   <rect x="38.41035" y="19.38435" width="310.64385" height="314.6376"/>
  </clipPath>
 </defs>
</svg>
