<?xml version="1.0" encoding="utf-8" standalone="no"?>
<!DOCTYPE svg PUBLIC "-//W3C//DTD SVG 1.1//EN"
  "http://www.w3.org/Graphics/SVG/1.1/DTD/svg11.dtd">
<svg xmlns:xlink="http://www.w3.org/1999/xlink" width="356.2542pt" height="344.580687pt" viewBox="0 0 356.2542 344.580687" xmlns="http://www.w3.org/2000/svg" version="1.1">
 <metadata>
  <rdf:RDF xmlns:dc="http://purl.org/dc/elements/1.1/" xmlns:cc="http://creativecommons.org/ns#" xmlns:rdf="http://www.w3.org/1999/02/22-rdf-syntax-ns#">
   <cc:Work>
    <dc:type rdf:resource="http://purl.org/dc/dcmitype/StillImage"/>
    <dc:date>2024-10-03T16:03:25.633493</dc:date>
    <dc:format>image/svg+xml</dc:format>
    <dc:creator>
     <cc:Agent>
      <dc:title>Matplotlib v3.7.5, https://matplotlib.org/</dc:title>
     </cc:Agent>
    </dc:creator>
   </cc:Work>
  </rdf:RDF>
 </metadata>
 <defs>
  <style type="text/css">*{stroke-linejoin: round; stroke-linecap: butt}</style>
 </defs>
 <g id="figure_1">
  <g id="patch_1">
   <path d="M -0 344.580687 
L 356.2542 344.580687 
L 356.2542 0 
L -0 0 
z
" style="fill: #ffffff"/>
  </g>
  <g id="axes_1">
   <g id="patch_2">
    <path d="M 38.41035 321.8376 
L 349.0542 321.8376 
L 349.0542 7.2 
L 38.41035 7.2 
z
" style="fill: #ffffff"/>
   </g>
   <g id="matplotlib.axis_1">
    <g id="xtick_1">
     <g id="line2d_1">
      <defs>
       <path id="m033ae16d6f" d="M 0 0 
L 0 4.8 
" style="stroke: #262626"/>
      </defs>
      <g>
       <use xlink:href="#m033ae16d6f" x="62.723063" y="321.8376" style="fill: #262626; stroke: #262626"/>
      </g>
     </g>
     <g id="text_1">
      <!-- 1 -->
      <g style="fill: #262626" transform="translate(60.520932 335.806587) scale(0.0792 -0.0792)">
       <defs>
        <path id="ArialMT-31" d="M 2384 0 
L 1822 0 
L 1822 3584 
Q 1619 3391 1289 3197 
Q 959 3003 697 2906 
L 697 3450 
Q 1169 3672 1522 3987 
Q 1875 4303 2022 4600 
L 2384 4600 
L 2384 0 
z
" transform="scale(0.015625)"/>
       </defs>
       <use xlink:href="#ArialMT-31"/>
      </g>
     </g>
    </g>
    <g id="xtick_2">
     <g id="line2d_2">
      <g>
       <use xlink:href="#m033ae16d6f" x="179.175696" y="321.8376" style="fill: #262626; stroke: #262626"/>
      </g>
     </g>
     <g id="text_2">
      <!-- 5 -->
      <g style="fill: #262626" transform="translate(176.973565 335.806587) scale(0.0792 -0.0792)">
       <defs>
        <path id="ArialMT-35" d="M 266 1200 
L 856 1250 
Q 922 819 1161 601 
Q 1400 384 1738 384 
Q 2144 384 2425 690 
Q 2706 997 2706 1503 
Q 2706 1984 2436 2262 
Q 2166 2541 1728 2541 
Q 1456 2541 1237 2417 
Q 1019 2294 894 2097 
L 366 2166 
L 809 4519 
L 3088 4519 
L 3088 3981 
L 1259 3981 
L 1013 2750 
Q 1425 3038 1878 3038 
Q 2478 3038 2890 2622 
Q 3303 2206 3303 1553 
Q 3303 931 2941 478 
Q 2500 -78 1738 -78 
Q 1113 -78 717 272 
Q 322 622 266 1200 
z
" transform="scale(0.015625)"/>
       </defs>
       <use xlink:href="#ArialMT-35"/>
      </g>
     </g>
    </g>
    <g id="xtick_3">
     <g id="line2d_3">
      <g>
       <use xlink:href="#m033ae16d6f" x="324.741487" y="321.8376" style="fill: #262626; stroke: #262626"/>
      </g>
     </g>
     <g id="text_3">
      <!-- 10 -->
      <g style="fill: #262626" transform="translate(320.337224 335.806587) scale(0.0792 -0.0792)">
       <defs>
        <path id="ArialMT-30" d="M 266 2259 
Q 266 3072 433 3567 
Q 600 4063 929 4331 
Q 1259 4600 1759 4600 
Q 2128 4600 2406 4451 
Q 2684 4303 2865 4023 
Q 3047 3744 3150 3342 
Q 3253 2941 3253 2259 
Q 3253 1453 3087 958 
Q 2922 463 2592 192 
Q 2263 -78 1759 -78 
Q 1097 -78 719 397 
Q 266 969 266 2259 
z
M 844 2259 
Q 844 1131 1108 757 
Q 1372 384 1759 384 
Q 2147 384 2411 759 
Q 2675 1134 2675 2259 
Q 2675 3391 2411 3762 
Q 2147 4134 1753 4134 
Q 1366 4134 1134 3806 
Q 844 3388 844 2259 
z
" transform="scale(0.015625)"/>
       </defs>
       <use xlink:href="#ArialMT-31"/>
       <use xlink:href="#ArialMT-30" x="55.615234"/>
      </g>
     </g>
    </g>
   </g>
   <g id="matplotlib.axis_2">
    <g id="ytick_1">
     <g id="line2d_4">
      <defs>
       <path id="md73c3327a6" d="M 0 0 
L -4.8 0 
" style="stroke: #262626"/>
      </defs>
      <g>
       <use xlink:href="#md73c3327a6" x="38.41035" y="321.8376" style="fill: #262626; stroke: #262626"/>
      </g>
     </g>
     <g id="text_4">
      <!-- 0.0 -->
      <g style="fill: #262626" transform="translate(19.10155 324.672094) scale(0.0792 -0.0792)">
       <defs>
        <path id="ArialMT-2e" d="M 581 0 
L 581 641 
L 1222 641 
L 1222 0 
L 581 0 
z
" transform="scale(0.015625)"/>
       </defs>
       <use xlink:href="#ArialMT-30"/>
       <use xlink:href="#ArialMT-2e" x="55.615234"/>
       <use xlink:href="#ArialMT-30" x="83.398438"/>
      </g>
     </g>
    </g>
    <g id="ytick_2">
     <g id="line2d_5">
      <g>
       <use xlink:href="#md73c3327a6" x="38.41035" y="264.562558" style="fill: #262626; stroke: #262626"/>
      </g>
     </g>
     <g id="text_5">
      <!-- 0.1 -->
      <g style="fill: #262626" transform="translate(19.10155 267.397052) scale(0.0792 -0.0792)">
       <use xlink:href="#ArialMT-30"/>
       <use xlink:href="#ArialMT-2e" x="55.615234"/>
       <use xlink:href="#ArialMT-31" x="83.398438"/>
      </g>
     </g>
    </g>
    <g id="ytick_3">
     <g id="line2d_6">
      <g>
       <use xlink:href="#md73c3327a6" x="38.41035" y="207.287517" style="fill: #262626; stroke: #262626"/>
      </g>
     </g>
     <g id="text_6">
      <!-- 0.2 -->
      <g style="fill: #262626" transform="translate(19.10155 210.12201) scale(0.0792 -0.0792)">
       <defs>
        <path id="ArialMT-32" d="M 3222 541 
L 3222 0 
L 194 0 
Q 188 203 259 391 
Q 375 700 629 1000 
Q 884 1300 1366 1694 
Q 2113 2306 2375 2664 
Q 2638 3022 2638 3341 
Q 2638 3675 2398 3904 
Q 2159 4134 1775 4134 
Q 1369 4134 1125 3890 
Q 881 3647 878 3216 
L 300 3275 
Q 359 3922 746 4261 
Q 1134 4600 1788 4600 
Q 2447 4600 2831 4234 
Q 3216 3869 3216 3328 
Q 3216 3053 3103 2787 
Q 2991 2522 2730 2228 
Q 2469 1934 1863 1422 
Q 1356 997 1212 845 
Q 1069 694 975 541 
L 3222 541 
z
" transform="scale(0.015625)"/>
       </defs>
       <use xlink:href="#ArialMT-30"/>
       <use xlink:href="#ArialMT-2e" x="55.615234"/>
       <use xlink:href="#ArialMT-32" x="83.398438"/>
      </g>
     </g>
    </g>
    <g id="ytick_4">
     <g id="line2d_7">
      <g>
       <use xlink:href="#md73c3327a6" x="38.41035" y="150.012475" style="fill: #262626; stroke: #262626"/>
      </g>
     </g>
     <g id="text_7">
      <!-- 0.3 -->
      <g style="fill: #262626" transform="translate(19.10155 152.846969) scale(0.0792 -0.0792)">
       <defs>
        <path id="ArialMT-33" d="M 269 1209 
L 831 1284 
Q 928 806 1161 595 
Q 1394 384 1728 384 
Q 2125 384 2398 659 
Q 2672 934 2672 1341 
Q 2672 1728 2419 1979 
Q 2166 2231 1775 2231 
Q 1616 2231 1378 2169 
L 1441 2663 
Q 1497 2656 1531 2656 
Q 1891 2656 2178 2843 
Q 2466 3031 2466 3422 
Q 2466 3731 2256 3934 
Q 2047 4138 1716 4138 
Q 1388 4138 1169 3931 
Q 950 3725 888 3313 
L 325 3413 
Q 428 3978 793 4289 
Q 1159 4600 1703 4600 
Q 2078 4600 2393 4439 
Q 2709 4278 2876 4000 
Q 3044 3722 3044 3409 
Q 3044 3113 2884 2869 
Q 2725 2625 2413 2481 
Q 2819 2388 3044 2092 
Q 3269 1797 3269 1353 
Q 3269 753 2831 336 
Q 2394 -81 1725 -81 
Q 1122 -81 723 278 
Q 325 638 269 1209 
z
" transform="scale(0.015625)"/>
       </defs>
       <use xlink:href="#ArialMT-30"/>
       <use xlink:href="#ArialMT-2e" x="55.615234"/>
       <use xlink:href="#ArialMT-33" x="83.398438"/>
      </g>
     </g>
    </g>
    <g id="ytick_5">
     <g id="line2d_8">
      <g>
       <use xlink:href="#md73c3327a6" x="38.41035" y="92.737433" style="fill: #262626; stroke: #262626"/>
      </g>
     </g>
     <g id="text_8">
      <!-- 0.4 -->
      <g style="fill: #262626" transform="translate(19.10155 95.571927) scale(0.0792 -0.0792)">
       <defs>
        <path id="ArialMT-34" d="M 2069 0 
L 2069 1097 
L 81 1097 
L 81 1613 
L 2172 4581 
L 2631 4581 
L 2631 1613 
L 3250 1613 
L 3250 1097 
L 2631 1097 
L 2631 0 
L 2069 0 
z
M 2069 1613 
L 2069 3678 
L 634 1613 
L 2069 1613 
z
" transform="scale(0.015625)"/>
       </defs>
       <use xlink:href="#ArialMT-30"/>
       <use xlink:href="#ArialMT-2e" x="55.615234"/>
       <use xlink:href="#ArialMT-34" x="83.398438"/>
      </g>
     </g>
    </g>
    <g id="ytick_6">
     <g id="line2d_9">
      <g>
       <use xlink:href="#md73c3327a6" x="38.41035" y="35.462392" style="fill: #262626; stroke: #262626"/>
      </g>
     </g>
     <g id="text_9">
      <!-- 0.5 -->
      <g style="fill: #262626" transform="translate(19.10155 38.296885) scale(0.0792 -0.0792)">
       <use xlink:href="#ArialMT-30"/>
       <use xlink:href="#ArialMT-2e" x="55.615234"/>
       <use xlink:href="#ArialMT-35" x="83.398438"/>
      </g>
     </g>
    </g>
    <g id="text_10">
     <!-- Densité -->
     <g style="fill: #262626" transform="translate(13.38435 179.165625) rotate(-90) scale(0.0864 -0.0864)">
      <defs>
       <path id="ArialMT-44" d="M 494 0 
L 494 4581 
L 2072 4581 
Q 2606 4581 2888 4516 
Q 3281 4425 3559 4188 
Q 3922 3881 4101 3404 
Q 4281 2928 4281 2316 
Q 4281 1794 4159 1391 
Q 4038 988 3847 723 
Q 3656 459 3429 307 
Q 3203 156 2883 78 
Q 2563 0 2147 0 
L 494 0 
z
M 1100 541 
L 2078 541 
Q 2531 541 2789 625 
Q 3047 709 3200 863 
Q 3416 1078 3536 1442 
Q 3656 1806 3656 2325 
Q 3656 3044 3420 3430 
Q 3184 3816 2847 3947 
Q 2603 4041 2063 4041 
L 1100 4041 
L 1100 541 
z
" transform="scale(0.015625)"/>
       <path id="ArialMT-65" d="M 2694 1069 
L 3275 997 
Q 3138 488 2766 206 
Q 2394 -75 1816 -75 
Q 1088 -75 661 373 
Q 234 822 234 1631 
Q 234 2469 665 2931 
Q 1097 3394 1784 3394 
Q 2450 3394 2872 2941 
Q 3294 2488 3294 1666 
Q 3294 1616 3291 1516 
L 816 1516 
Q 847 969 1125 678 
Q 1403 388 1819 388 
Q 2128 388 2347 550 
Q 2566 713 2694 1069 
z
M 847 1978 
L 2700 1978 
Q 2663 2397 2488 2606 
Q 2219 2931 1791 2931 
Q 1403 2931 1139 2672 
Q 875 2413 847 1978 
z
" transform="scale(0.015625)"/>
       <path id="ArialMT-6e" d="M 422 0 
L 422 3319 
L 928 3319 
L 928 2847 
Q 1294 3394 1984 3394 
Q 2284 3394 2536 3286 
Q 2788 3178 2913 3003 
Q 3038 2828 3088 2588 
Q 3119 2431 3119 2041 
L 3119 0 
L 2556 0 
L 2556 2019 
Q 2556 2363 2490 2533 
Q 2425 2703 2258 2804 
Q 2091 2906 1866 2906 
Q 1506 2906 1245 2678 
Q 984 2450 984 1813 
L 984 0 
L 422 0 
z
" transform="scale(0.015625)"/>
       <path id="ArialMT-73" d="M 197 991 
L 753 1078 
Q 800 744 1014 566 
Q 1228 388 1613 388 
Q 2000 388 2187 545 
Q 2375 703 2375 916 
Q 2375 1106 2209 1216 
Q 2094 1291 1634 1406 
Q 1016 1563 777 1677 
Q 538 1791 414 1992 
Q 291 2194 291 2438 
Q 291 2659 392 2848 
Q 494 3038 669 3163 
Q 800 3259 1026 3326 
Q 1253 3394 1513 3394 
Q 1903 3394 2198 3281 
Q 2494 3169 2634 2976 
Q 2775 2784 2828 2463 
L 2278 2388 
Q 2241 2644 2061 2787 
Q 1881 2931 1553 2931 
Q 1166 2931 1000 2803 
Q 834 2675 834 2503 
Q 834 2394 903 2306 
Q 972 2216 1119 2156 
Q 1203 2125 1616 2013 
Q 2213 1853 2448 1751 
Q 2684 1650 2818 1456 
Q 2953 1263 2953 975 
Q 2953 694 2789 445 
Q 2625 197 2315 61 
Q 2006 -75 1616 -75 
Q 969 -75 630 194 
Q 291 463 197 991 
z
" transform="scale(0.015625)"/>
       <path id="ArialMT-69" d="M 425 3934 
L 425 4581 
L 988 4581 
L 988 3934 
L 425 3934 
z
M 425 0 
L 425 3319 
L 988 3319 
L 988 0 
L 425 0 
z
" transform="scale(0.015625)"/>
       <path id="ArialMT-74" d="M 1650 503 
L 1731 6 
Q 1494 -44 1306 -44 
Q 1000 -44 831 53 
Q 663 150 594 308 
Q 525 466 525 972 
L 525 2881 
L 113 2881 
L 113 3319 
L 525 3319 
L 525 4141 
L 1084 4478 
L 1084 3319 
L 1650 3319 
L 1650 2881 
L 1084 2881 
L 1084 941 
Q 1084 700 1114 631 
Q 1144 563 1211 522 
Q 1278 481 1403 481 
Q 1497 481 1650 503 
z
" transform="scale(0.015625)"/>
       <path id="ArialMT-e9" d="M 2694 1069 
L 3275 997 
Q 3138 488 2766 206 
Q 2394 -75 1816 -75 
Q 1088 -75 661 373 
Q 234 822 234 1631 
Q 234 2469 665 2931 
Q 1097 3394 1784 3394 
Q 2450 3394 2872 2941 
Q 3294 2488 3294 1666 
Q 3294 1616 3291 1516 
L 816 1516 
Q 847 969 1125 678 
Q 1403 388 1819 388 
Q 2128 388 2347 550 
Q 2566 713 2694 1069 
z
M 847 1978 
L 2700 1978 
Q 2663 2397 2488 2606 
Q 2219 2931 1791 2931 
Q 1403 2931 1139 2672 
Q 875 2413 847 1978 
z
M 1454 3731 
L 1869 4606 
L 2607 4606 
L 1919 3731 
L 1454 3731 
z
" transform="scale(0.015625)"/>
      </defs>
      <use xlink:href="#ArialMT-44"/>
      <use xlink:href="#ArialMT-65" x="72.216797"/>
      <use xlink:href="#ArialMT-6e" x="127.832031"/>
      <use xlink:href="#ArialMT-73" x="183.447266"/>
      <use xlink:href="#ArialMT-69" x="233.447266"/>
      <use xlink:href="#ArialMT-74" x="255.664062"/>
      <use xlink:href="#ArialMT-e9" x="283.447266"/>
     </g>
    </g>
   </g>
   <g id="line2d_10">
    <path d="M 52.530525 321.741268 
L 53.949638 321.528483 
L 55.368751 321.004362 
L 56.787864 319.950345 
L 58.206977 318.242879 
L 61.045203 313.971761 
L 62.464316 312.564882 
L 65.302543 311.303556 
L 66.721656 309.620659 
L 68.140769 306.481498 
L 69.559882 302.885911 
L 70.978995 300.77891 
L 72.398108 301.659578 
L 73.817221 305.446407 
L 76.655447 315.380216 
L 78.07456 318.71457 
L 79.493673 320.566567 
L 80.912786 321.389567 
L 82.331899 321.637119 
L 83.751012 321.485357 
L 85.170126 320.689674 
L 86.589239 318.43954 
L 88.008352 313.349443 
L 89.427465 304.024378 
L 90.846578 290.439136 
L 92.265691 275.353448 
L 93.684804 264.037093 
L 95.103917 261.47213 
L 96.52303 268.88641 
L 99.361256 297.697381 
L 100.780369 309.290916 
L 102.199482 316.358457 
L 103.618595 319.814497 
L 105.037708 321.137784 
L 106.456821 321.308503 
L 107.875935 320.397824 
L 109.295048 317.339858 
L 110.714161 309.777737 
L 112.133274 294.644109 
L 113.552387 270.332662 
L 114.9715 239.903489 
L 116.390613 212.363616 
L 117.809726 198.984164 
L 119.228839 206.041511 
L 120.647952 230.166871 
L 122.067065 260.884222 
L 123.486178 287.797028 
L 124.905291 305.869353 
L 126.324404 315.538294 
L 127.743517 319.704645 
L 129.162631 321.008377 
L 130.581744 320.677106 
L 132.000857 318.288759 
L 133.41997 311.671233 
L 134.839083 297.213227 
L 136.258196 271.723447 
L 139.096422 198.850133 
L 140.515535 173.532293 
L 141.934648 171.633168 
L 143.353761 194.06456 
L 146.191987 267.050046 
L 147.6111 294.195119 
L 149.030213 309.987892 
L 150.449327 316.980379 
L 151.86844 318.031409 
L 153.287553 313.645637 
L 154.706666 301.43652 
L 156.125779 277.752542 
L 157.544892 241.607215 
L 158.964005 199.174777 
L 160.383118 164.321442 
L 161.802231 151.947486 
L 163.221344 167.936629 
L 164.640457 204.740853 
L 166.05957 247.007079 
L 167.478683 281.672622 
L 168.897796 303.727219 
L 170.316909 314.956537 
L 171.736022 319.516767 
L 173.155136 320.597545 
L 174.574249 319.121902 
L 175.993362 313.27904 
L 177.412475 298.171175 
L 178.831588 266.730577 
L 180.250701 214.048461 
L 183.088927 77.48938 
L 184.50804 38.651662 
L 185.927153 46.183542 
L 187.346266 96.472169 
L 190.184492 232.584218 
L 191.603605 278.600738 
L 193.022718 304.23496 
L 194.441832 315.754472 
L 195.860945 319.750189 
L 197.280058 319.89223 
L 198.699171 316.32788 
L 200.118284 305.658433 
L 201.537397 281.384229 
L 202.95651 236.816765 
L 204.375623 171.749681 
L 205.794736 99.303062 
L 207.213849 44.710257 
L 208.632962 31.975425 
L 210.052075 67.193249 
L 212.890301 205.389495 
L 214.309414 261.188204 
L 215.728528 295.127528 
L 217.147641 311.151956 
L 218.566754 315.225649 
L 219.985867 309.602399 
L 221.40498 291.134466 
L 222.824093 253.463947 
L 224.243206 193.354186 
L 225.662319 118.975406 
L 227.081432 52.808727 
L 228.500545 22.178156 
L 229.919658 41.496135 
L 231.338771 101.556661 
L 232.757884 176.46024 
L 234.176997 241.253718 
L 235.59611 284.318413 
L 237.015223 307.151631 
L 238.434337 316.928972 
L 239.85345 320.071123 
L 241.272563 319.75417 
L 242.691676 315.724429 
L 244.110789 304.494308 
L 245.529902 280.147968 
L 246.949015 237.625813 
L 249.787241 118.237149 
L 251.206354 78.153407 
L 252.625467 76.871389 
L 254.04458 115.006799 
L 256.882806 234.47526 
L 258.301919 278.132682 
L 259.721033 303.469142 
L 261.140146 315.325813 
L 262.559259 319.754604 
L 263.978372 320.652347 
L 265.397485 319.147431 
L 266.816598 313.850262 
L 268.235711 301.23851 
L 269.654824 277.130757 
L 271.073937 240.333634 
L 272.49305 197.037064 
L 273.912163 161.334096 
L 275.331276 148.464068 
L 276.750389 164.543903 
L 278.169502 201.97863 
L 279.588615 245.125112 
L 281.007729 280.593047 
L 282.426842 303.173275 
L 283.845955 314.56123 
L 285.265068 318.744988 
L 286.684181 318.470586 
L 288.103294 314.091552 
L 289.522407 304.219487 
L 290.94152 287.678508 
L 293.779746 245.56031 
L 295.198859 234.095053 
L 296.617972 237.06496 
L 298.037085 253.046635 
L 299.456198 274.952233 
L 300.875311 294.998145 
L 302.294424 308.932991 
L 303.713538 316.625332 
L 305.132651 320.063631 
L 306.551764 321.301856 
L 307.970877 321.582033 
L 309.38999 321.337588 
L 310.809103 320.425478 
L 312.228216 318.334739 
L 313.647329 314.509826 
L 315.066442 308.921391 
L 316.485555 302.598018 
L 317.904668 297.471286 
L 319.323781 295.298268 
L 320.742894 296.478718 
L 322.162007 299.942845 
L 325.000234 308.299176 
L 326.419347 312.038951 
L 327.83846 315.340539 
L 329.257573 318.016406 
L 330.676686 319.891316 
L 332.095799 320.991494 
L 333.514912 321.526133 
L 334.934025 321.740908 
L 334.934025 321.740908 
" clip-path="url(#pa374504a43)" style="fill: none; stroke: #4c72b0; stroke-width: 1.2; stroke-linecap: round"/>
   </g>
   <g id="line2d_11">
    <path d="M 208.288854 321.8376 
L 208.288854 7.2 
" clip-path="url(#pa374504a43)" style="fill: none; stroke-dasharray: 4.44,1.92; stroke-dashoffset: 0; stroke: #203ae0; stroke-width: 1.2"/>
   </g>
   <g id="patch_3">
    <path d="M 38.41035 321.8376 
L 38.41035 7.2 
" style="fill: none; stroke: #262626; stroke-linejoin: miter; stroke-linecap: square"/>
   </g>
   <g id="patch_4">
    <path d="M 38.41035 321.8376 
L 349.0542 321.8376 
" style="fill: none; stroke: #262626; stroke-linejoin: miter; stroke-linecap: square"/>
   </g>
  </g>
 </g>
 <defs>
  <clipPath id="pa374504a43">
   <rect x="38.41035" y="7.2" width="310.64385" height="314.6376"/>
  </clipPath>
 </defs>
</svg>
