<?xml version="1.0" encoding="utf-8" standalone="no"?>
<!DOCTYPE svg PUBLIC "-//W3C//DTD SVG 1.1//EN"
  "http://www.w3.org/Graphics/SVG/1.1/DTD/svg11.dtd">
<svg xmlns:xlink="http://www.w3.org/1999/xlink" width="347.4362pt" height="344.580687pt" viewBox="0 0 347.4362 344.580687" xmlns="http://www.w3.org/2000/svg" version="1.1">
 <metadata>
  <rdf:RDF xmlns:dc="http://purl.org/dc/elements/1.1/" xmlns:cc="http://creativecommons.org/ns#" xmlns:rdf="http://www.w3.org/1999/02/22-rdf-syntax-ns#">
   <cc:Work>
    <dc:type rdf:resource="http://purl.org/dc/dcmitype/StillImage"/>
    <dc:date>2024-10-03T16:02:42.330229</dc:date>
    <dc:format>image/svg+xml</dc:format>
    <dc:creator>
     <cc:Agent>
      <dc:title>Matplotlib v3.7.5, https://matplotlib.org/</dc:title>
     </cc:Agent>
    </dc:creator>
   </cc:Work>
  </rdf:RDF>
 </metadata>
 <defs>
  <style type="text/css">*{stroke-linejoin: round; stroke-linecap: butt}</style>
 </defs>
 <g id="figure_1">
  <g id="patch_1">
   <path d="M -0 344.580687 
L 347.4362 344.580687 
L 347.4362 0 
L -0 0 
z
" style="fill: #ffffff"/>
  </g>
  <g id="axes_1">
   <g id="patch_2">
    <path d="M 42.814613 321.8376 
L 340.2362 321.8376 
L 340.2362 7.2 
L 42.814613 7.2 
z
" style="fill: #ffffff"/>
   </g>
   <g id="matplotlib.axis_1">
    <g id="xtick_1">
     <g id="line2d_1">
      <defs>
       <path id="m17c956dc1e" d="M 0 0 
L 0 4.8 
" style="stroke: #262626"/>
      </defs>
      <g>
       <use xlink:href="#m17c956dc1e" x="56.333776" y="321.8376" style="fill: #262626; stroke: #262626"/>
      </g>
     </g>
     <g id="text_1">
      <!-- 18 -->
      <g style="fill: #262626" transform="translate(51.929513 335.806587) scale(0.0792 -0.0792)">
       <defs>
        <path id="ArialMT-31" d="M 2384 0 
L 1822 0 
L 1822 3584 
Q 1619 3391 1289 3197 
Q 959 3003 697 2906 
L 697 3450 
Q 1169 3672 1522 3987 
Q 1875 4303 2022 4600 
L 2384 4600 
L 2384 0 
z
" transform="scale(0.015625)"/>
        <path id="ArialMT-38" d="M 1131 2484 
Q 781 2613 612 2850 
Q 444 3088 444 3419 
Q 444 3919 803 4259 
Q 1163 4600 1759 4600 
Q 2359 4600 2725 4251 
Q 3091 3903 3091 3403 
Q 3091 3084 2923 2848 
Q 2756 2613 2416 2484 
Q 2838 2347 3058 2040 
Q 3278 1734 3278 1309 
Q 3278 722 2862 322 
Q 2447 -78 1769 -78 
Q 1091 -78 675 323 
Q 259 725 259 1325 
Q 259 1772 486 2073 
Q 713 2375 1131 2484 
z
M 1019 3438 
Q 1019 3113 1228 2906 
Q 1438 2700 1772 2700 
Q 2097 2700 2305 2904 
Q 2513 3109 2513 3406 
Q 2513 3716 2298 3927 
Q 2084 4138 1766 4138 
Q 1444 4138 1231 3931 
Q 1019 3725 1019 3438 
z
M 838 1322 
Q 838 1081 952 856 
Q 1066 631 1291 507 
Q 1516 384 1775 384 
Q 2178 384 2440 643 
Q 2703 903 2703 1303 
Q 2703 1709 2433 1975 
Q 2163 2241 1756 2241 
Q 1359 2241 1098 1978 
Q 838 1716 838 1322 
z
" transform="scale(0.015625)"/>
       </defs>
       <use xlink:href="#ArialMT-31"/>
       <use xlink:href="#ArialMT-38" x="55.615234"/>
      </g>
     </g>
    </g>
    <g id="xtick_2">
     <g id="line2d_2">
      <g>
       <use xlink:href="#m17c956dc1e" x="144.208335" y="321.8376" style="fill: #262626; stroke: #262626"/>
      </g>
     </g>
     <g id="text_2">
      <!-- 31 -->
      <g style="fill: #262626" transform="translate(139.804073 335.806587) scale(0.0792 -0.0792)">
       <defs>
        <path id="ArialMT-33" d="M 269 1209 
L 831 1284 
Q 928 806 1161 595 
Q 1394 384 1728 384 
Q 2125 384 2398 659 
Q 2672 934 2672 1341 
Q 2672 1728 2419 1979 
Q 2166 2231 1775 2231 
Q 1616 2231 1378 2169 
L 1441 2663 
Q 1497 2656 1531 2656 
Q 1891 2656 2178 2843 
Q 2466 3031 2466 3422 
Q 2466 3731 2256 3934 
Q 2047 4138 1716 4138 
Q 1388 4138 1169 3931 
Q 950 3725 888 3313 
L 325 3413 
Q 428 3978 793 4289 
Q 1159 4600 1703 4600 
Q 2078 4600 2393 4439 
Q 2709 4278 2876 4000 
Q 3044 3722 3044 3409 
Q 3044 3113 2884 2869 
Q 2725 2625 2413 2481 
Q 2819 2388 3044 2092 
Q 3269 1797 3269 1353 
Q 3269 753 2831 336 
Q 2394 -81 1725 -81 
Q 1122 -81 723 278 
Q 325 638 269 1209 
z
" transform="scale(0.015625)"/>
       </defs>
       <use xlink:href="#ArialMT-33"/>
       <use xlink:href="#ArialMT-31" x="55.615234"/>
      </g>
     </g>
    </g>
    <g id="xtick_3">
     <g id="line2d_3">
      <g>
       <use xlink:href="#m17c956dc1e" x="326.717037" y="321.8376" style="fill: #262626; stroke: #262626"/>
      </g>
     </g>
     <g id="text_3">
      <!-- 58 -->
      <g style="fill: #262626" transform="translate(322.312774 335.806587) scale(0.0792 -0.0792)">
       <defs>
        <path id="ArialMT-35" d="M 266 1200 
L 856 1250 
Q 922 819 1161 601 
Q 1400 384 1738 384 
Q 2144 384 2425 690 
Q 2706 997 2706 1503 
Q 2706 1984 2436 2262 
Q 2166 2541 1728 2541 
Q 1456 2541 1237 2417 
Q 1019 2294 894 2097 
L 366 2166 
L 809 4519 
L 3088 4519 
L 3088 3981 
L 1259 3981 
L 1013 2750 
Q 1425 3038 1878 3038 
Q 2478 3038 2890 2622 
Q 3303 2206 3303 1553 
Q 3303 931 2941 478 
Q 2500 -78 1738 -78 
Q 1113 -78 717 272 
Q 322 622 266 1200 
z
" transform="scale(0.015625)"/>
       </defs>
       <use xlink:href="#ArialMT-35"/>
       <use xlink:href="#ArialMT-38" x="55.615234"/>
      </g>
     </g>
    </g>
   </g>
   <g id="matplotlib.axis_2">
    <g id="ytick_1">
     <g id="line2d_4">
      <defs>
       <path id="m55d6d83544" d="M 0 0 
L -4.8 0 
" style="stroke: #262626"/>
      </defs>
      <g>
       <use xlink:href="#m55d6d83544" x="42.814613" y="321.8376" style="fill: #262626; stroke: #262626"/>
      </g>
     </g>
     <g id="text_4">
      <!-- 0.00 -->
      <g style="fill: #262626" transform="translate(19.10155 324.672094) scale(0.0792 -0.0792)">
       <defs>
        <path id="ArialMT-30" d="M 266 2259 
Q 266 3072 433 3567 
Q 600 4063 929 4331 
Q 1259 4600 1759 4600 
Q 2128 4600 2406 4451 
Q 2684 4303 2865 4023 
Q 3047 3744 3150 3342 
Q 3253 2941 3253 2259 
Q 3253 1453 3087 958 
Q 2922 463 2592 192 
Q 2263 -78 1759 -78 
Q 1097 -78 719 397 
Q 266 969 266 2259 
z
M 844 2259 
Q 844 1131 1108 757 
Q 1372 384 1759 384 
Q 2147 384 2411 759 
Q 2675 1134 2675 2259 
Q 2675 3391 2411 3762 
Q 2147 4134 1753 4134 
Q 1366 4134 1134 3806 
Q 844 3388 844 2259 
z
" transform="scale(0.015625)"/>
        <path id="ArialMT-2e" d="M 581 0 
L 581 641 
L 1222 641 
L 1222 0 
L 581 0 
z
" transform="scale(0.015625)"/>
       </defs>
       <use xlink:href="#ArialMT-30"/>
       <use xlink:href="#ArialMT-2e" x="55.615234"/>
       <use xlink:href="#ArialMT-30" x="83.398438"/>
       <use xlink:href="#ArialMT-30" x="139.013672"/>
      </g>
     </g>
    </g>
    <g id="ytick_2">
     <g id="line2d_5">
      <g>
       <use xlink:href="#m55d6d83544" x="42.814613" y="272.807117" style="fill: #262626; stroke: #262626"/>
      </g>
     </g>
     <g id="text_5">
      <!-- 0.02 -->
      <g style="fill: #262626" transform="translate(19.10155 275.641611) scale(0.0792 -0.0792)">
       <defs>
        <path id="ArialMT-32" d="M 3222 541 
L 3222 0 
L 194 0 
Q 188 203 259 391 
Q 375 700 629 1000 
Q 884 1300 1366 1694 
Q 2113 2306 2375 2664 
Q 2638 3022 2638 3341 
Q 2638 3675 2398 3904 
Q 2159 4134 1775 4134 
Q 1369 4134 1125 3890 
Q 881 3647 878 3216 
L 300 3275 
Q 359 3922 746 4261 
Q 1134 4600 1788 4600 
Q 2447 4600 2831 4234 
Q 3216 3869 3216 3328 
Q 3216 3053 3103 2787 
Q 2991 2522 2730 2228 
Q 2469 1934 1863 1422 
Q 1356 997 1212 845 
Q 1069 694 975 541 
L 3222 541 
z
" transform="scale(0.015625)"/>
       </defs>
       <use xlink:href="#ArialMT-30"/>
       <use xlink:href="#ArialMT-2e" x="55.615234"/>
       <use xlink:href="#ArialMT-30" x="83.398438"/>
       <use xlink:href="#ArialMT-32" x="139.013672"/>
      </g>
     </g>
    </g>
    <g id="ytick_3">
     <g id="line2d_6">
      <g>
       <use xlink:href="#m55d6d83544" x="42.814613" y="223.776634" style="fill: #262626; stroke: #262626"/>
      </g>
     </g>
     <g id="text_6">
      <!-- 0.04 -->
      <g style="fill: #262626" transform="translate(19.10155 226.611127) scale(0.0792 -0.0792)">
       <defs>
        <path id="ArialMT-34" d="M 2069 0 
L 2069 1097 
L 81 1097 
L 81 1613 
L 2172 4581 
L 2631 4581 
L 2631 1613 
L 3250 1613 
L 3250 1097 
L 2631 1097 
L 2631 0 
L 2069 0 
z
M 2069 1613 
L 2069 3678 
L 634 1613 
L 2069 1613 
z
" transform="scale(0.015625)"/>
       </defs>
       <use xlink:href="#ArialMT-30"/>
       <use xlink:href="#ArialMT-2e" x="55.615234"/>
       <use xlink:href="#ArialMT-30" x="83.398438"/>
       <use xlink:href="#ArialMT-34" x="139.013672"/>
      </g>
     </g>
    </g>
    <g id="ytick_4">
     <g id="line2d_7">
      <g>
       <use xlink:href="#m55d6d83544" x="42.814613" y="174.746151" style="fill: #262626; stroke: #262626"/>
      </g>
     </g>
     <g id="text_7">
      <!-- 0.06 -->
      <g style="fill: #262626" transform="translate(19.10155 177.580644) scale(0.0792 -0.0792)">
       <defs>
        <path id="ArialMT-36" d="M 3184 3459 
L 2625 3416 
Q 2550 3747 2413 3897 
Q 2184 4138 1850 4138 
Q 1581 4138 1378 3988 
Q 1113 3794 959 3422 
Q 806 3050 800 2363 
Q 1003 2672 1297 2822 
Q 1591 2972 1913 2972 
Q 2475 2972 2870 2558 
Q 3266 2144 3266 1488 
Q 3266 1056 3080 686 
Q 2894 316 2569 119 
Q 2244 -78 1831 -78 
Q 1128 -78 684 439 
Q 241 956 241 2144 
Q 241 3472 731 4075 
Q 1159 4600 1884 4600 
Q 2425 4600 2770 4297 
Q 3116 3994 3184 3459 
z
M 888 1484 
Q 888 1194 1011 928 
Q 1134 663 1356 523 
Q 1578 384 1822 384 
Q 2178 384 2434 671 
Q 2691 959 2691 1453 
Q 2691 1928 2437 2201 
Q 2184 2475 1800 2475 
Q 1419 2475 1153 2201 
Q 888 1928 888 1484 
z
" transform="scale(0.015625)"/>
       </defs>
       <use xlink:href="#ArialMT-30"/>
       <use xlink:href="#ArialMT-2e" x="55.615234"/>
       <use xlink:href="#ArialMT-30" x="83.398438"/>
       <use xlink:href="#ArialMT-36" x="139.013672"/>
      </g>
     </g>
    </g>
    <g id="ytick_5">
     <g id="line2d_8">
      <g>
       <use xlink:href="#m55d6d83544" x="42.814613" y="125.715667" style="fill: #262626; stroke: #262626"/>
      </g>
     </g>
     <g id="text_8">
      <!-- 0.08 -->
      <g style="fill: #262626" transform="translate(19.10155 128.550161) scale(0.0792 -0.0792)">
       <use xlink:href="#ArialMT-30"/>
       <use xlink:href="#ArialMT-2e" x="55.615234"/>
       <use xlink:href="#ArialMT-30" x="83.398438"/>
       <use xlink:href="#ArialMT-38" x="139.013672"/>
      </g>
     </g>
    </g>
    <g id="ytick_6">
     <g id="line2d_9">
      <g>
       <use xlink:href="#m55d6d83544" x="42.814613" y="76.685184" style="fill: #262626; stroke: #262626"/>
      </g>
     </g>
     <g id="text_9">
      <!-- 0.10 -->
      <g style="fill: #262626" transform="translate(19.10155 79.519678) scale(0.0792 -0.0792)">
       <use xlink:href="#ArialMT-30"/>
       <use xlink:href="#ArialMT-2e" x="55.615234"/>
       <use xlink:href="#ArialMT-31" x="83.398438"/>
       <use xlink:href="#ArialMT-30" x="139.013672"/>
      </g>
     </g>
    </g>
    <g id="ytick_7">
     <g id="line2d_10">
      <g>
       <use xlink:href="#m55d6d83544" x="42.814613" y="27.654701" style="fill: #262626; stroke: #262626"/>
      </g>
     </g>
     <g id="text_10">
      <!-- 0.12 -->
      <g style="fill: #262626" transform="translate(19.10155 30.489195) scale(0.0792 -0.0792)">
       <use xlink:href="#ArialMT-30"/>
       <use xlink:href="#ArialMT-2e" x="55.615234"/>
       <use xlink:href="#ArialMT-31" x="83.398438"/>
       <use xlink:href="#ArialMT-32" x="139.013672"/>
      </g>
     </g>
    </g>
    <g id="text_11">
     <!-- Probabilité -->
     <g style="fill: #262626" transform="translate(13.38435 184.930125) rotate(-90) scale(0.0864 -0.0864)">
      <defs>
       <path id="ArialMT-50" d="M 494 0 
L 494 4581 
L 2222 4581 
Q 2678 4581 2919 4538 
Q 3256 4481 3484 4323 
Q 3713 4166 3852 3881 
Q 3991 3597 3991 3256 
Q 3991 2672 3619 2267 
Q 3247 1863 2275 1863 
L 1100 1863 
L 1100 0 
L 494 0 
z
M 1100 2403 
L 2284 2403 
Q 2872 2403 3119 2622 
Q 3366 2841 3366 3238 
Q 3366 3525 3220 3729 
Q 3075 3934 2838 4000 
Q 2684 4041 2272 4041 
L 1100 4041 
L 1100 2403 
z
" transform="scale(0.015625)"/>
       <path id="ArialMT-72" d="M 416 0 
L 416 3319 
L 922 3319 
L 922 2816 
Q 1116 3169 1280 3281 
Q 1444 3394 1641 3394 
Q 1925 3394 2219 3213 
L 2025 2691 
Q 1819 2813 1613 2813 
Q 1428 2813 1281 2702 
Q 1134 2591 1072 2394 
Q 978 2094 978 1738 
L 978 0 
L 416 0 
z
" transform="scale(0.015625)"/>
       <path id="ArialMT-6f" d="M 213 1659 
Q 213 2581 725 3025 
Q 1153 3394 1769 3394 
Q 2453 3394 2887 2945 
Q 3322 2497 3322 1706 
Q 3322 1066 3130 698 
Q 2938 331 2570 128 
Q 2203 -75 1769 -75 
Q 1072 -75 642 372 
Q 213 819 213 1659 
z
M 791 1659 
Q 791 1022 1069 705 
Q 1347 388 1769 388 
Q 2188 388 2466 706 
Q 2744 1025 2744 1678 
Q 2744 2294 2464 2611 
Q 2184 2928 1769 2928 
Q 1347 2928 1069 2612 
Q 791 2297 791 1659 
z
" transform="scale(0.015625)"/>
       <path id="ArialMT-62" d="M 941 0 
L 419 0 
L 419 4581 
L 981 4581 
L 981 2947 
Q 1338 3394 1891 3394 
Q 2197 3394 2470 3270 
Q 2744 3147 2920 2923 
Q 3097 2700 3197 2384 
Q 3297 2069 3297 1709 
Q 3297 856 2875 390 
Q 2453 -75 1863 -75 
Q 1275 -75 941 416 
L 941 0 
z
M 934 1684 
Q 934 1088 1097 822 
Q 1363 388 1816 388 
Q 2184 388 2453 708 
Q 2722 1028 2722 1663 
Q 2722 2313 2464 2622 
Q 2206 2931 1841 2931 
Q 1472 2931 1203 2611 
Q 934 2291 934 1684 
z
" transform="scale(0.015625)"/>
       <path id="ArialMT-61" d="M 2588 409 
Q 2275 144 1986 34 
Q 1697 -75 1366 -75 
Q 819 -75 525 192 
Q 231 459 231 875 
Q 231 1119 342 1320 
Q 453 1522 633 1644 
Q 813 1766 1038 1828 
Q 1203 1872 1538 1913 
Q 2219 1994 2541 2106 
Q 2544 2222 2544 2253 
Q 2544 2597 2384 2738 
Q 2169 2928 1744 2928 
Q 1347 2928 1158 2789 
Q 969 2650 878 2297 
L 328 2372 
Q 403 2725 575 2942 
Q 747 3159 1072 3276 
Q 1397 3394 1825 3394 
Q 2250 3394 2515 3294 
Q 2781 3194 2906 3042 
Q 3031 2891 3081 2659 
Q 3109 2516 3109 2141 
L 3109 1391 
Q 3109 606 3145 398 
Q 3181 191 3288 0 
L 2700 0 
Q 2613 175 2588 409 
z
M 2541 1666 
Q 2234 1541 1622 1453 
Q 1275 1403 1131 1340 
Q 988 1278 909 1158 
Q 831 1038 831 891 
Q 831 666 1001 516 
Q 1172 366 1500 366 
Q 1825 366 2078 508 
Q 2331 650 2450 897 
Q 2541 1088 2541 1459 
L 2541 1666 
z
" transform="scale(0.015625)"/>
       <path id="ArialMT-69" d="M 425 3934 
L 425 4581 
L 988 4581 
L 988 3934 
L 425 3934 
z
M 425 0 
L 425 3319 
L 988 3319 
L 988 0 
L 425 0 
z
" transform="scale(0.015625)"/>
       <path id="ArialMT-6c" d="M 409 0 
L 409 4581 
L 972 4581 
L 972 0 
L 409 0 
z
" transform="scale(0.015625)"/>
       <path id="ArialMT-74" d="M 1650 503 
L 1731 6 
Q 1494 -44 1306 -44 
Q 1000 -44 831 53 
Q 663 150 594 308 
Q 525 466 525 972 
L 525 2881 
L 113 2881 
L 113 3319 
L 525 3319 
L 525 4141 
L 1084 4478 
L 1084 3319 
L 1650 3319 
L 1650 2881 
L 1084 2881 
L 1084 941 
Q 1084 700 1114 631 
Q 1144 563 1211 522 
Q 1278 481 1403 481 
Q 1497 481 1650 503 
z
" transform="scale(0.015625)"/>
       <path id="ArialMT-e9" d="M 2694 1069 
L 3275 997 
Q 3138 488 2766 206 
Q 2394 -75 1816 -75 
Q 1088 -75 661 373 
Q 234 822 234 1631 
Q 234 2469 665 2931 
Q 1097 3394 1784 3394 
Q 2450 3394 2872 2941 
Q 3294 2488 3294 1666 
Q 3294 1616 3291 1516 
L 816 1516 
Q 847 969 1125 678 
Q 1403 388 1819 388 
Q 2128 388 2347 550 
Q 2566 713 2694 1069 
z
M 847 1978 
L 2700 1978 
Q 2663 2397 2488 2606 
Q 2219 2931 1791 2931 
Q 1403 2931 1139 2672 
Q 875 2413 847 1978 
z
M 1454 3731 
L 1869 4606 
L 2607 4606 
L 1919 3731 
L 1454 3731 
z
" transform="scale(0.015625)"/>
      </defs>
      <use xlink:href="#ArialMT-50"/>
      <use xlink:href="#ArialMT-72" x="66.699219"/>
      <use xlink:href="#ArialMT-6f" x="100"/>
      <use xlink:href="#ArialMT-62" x="155.615234"/>
      <use xlink:href="#ArialMT-61" x="211.230469"/>
      <use xlink:href="#ArialMT-62" x="266.845703"/>
      <use xlink:href="#ArialMT-69" x="322.460938"/>
      <use xlink:href="#ArialMT-6c" x="344.677734"/>
      <use xlink:href="#ArialMT-69" x="366.894531"/>
      <use xlink:href="#ArialMT-74" x="389.111328"/>
      <use xlink:href="#ArialMT-e9" x="416.894531"/>
     </g>
    </g>
   </g>
   <g id="patch_3">
    <path d="M 56.333776 321.8376 
L 69.209169 321.8376 
L 69.209169 300.12348 
L 56.333776 300.12348 
z
" clip-path="url(#p392b0dfc26)" style="fill: #373d61; fill-opacity: 0.75; stroke: #4c4c4c; stroke-width: 0.7; stroke-linejoin: miter"/>
   </g>
   <g id="patch_4">
    <path d="M 69.209169 321.8376 
L 82.084562 321.8376 
L 82.084562 291.437832 
L 69.209169 291.437832 
z
" clip-path="url(#p392b0dfc26)" style="fill: #373d61; fill-opacity: 0.75; stroke: #4c4c4c; stroke-width: 0.7; stroke-linejoin: miter"/>
   </g>
   <g id="patch_5">
    <path d="M 82.084562 321.8376 
L 94.959956 321.8376 
L 94.959956 158.981699 
L 82.084562 158.981699 
z
" clip-path="url(#p392b0dfc26)" style="fill: #373d61; fill-opacity: 0.75; stroke: #4c4c4c; stroke-width: 0.7; stroke-linejoin: miter"/>
   </g>
   <g id="patch_6">
    <path d="M 94.959956 321.8376 
L 107.835349 321.8376 
L 107.835349 172.010171 
L 94.959956 172.010171 
z
" clip-path="url(#p392b0dfc26)" style="fill: #373d61; fill-opacity: 0.75; stroke: #4c4c4c; stroke-width: 0.7; stroke-linejoin: miter"/>
   </g>
   <g id="patch_7">
    <path d="M 107.835349 321.8376 
L 120.710742 321.8376 
L 120.710742 178.524407 
L 107.835349 178.524407 
z
" clip-path="url(#p392b0dfc26)" style="fill: #373d61; fill-opacity: 0.75; stroke: #4c4c4c; stroke-width: 0.7; stroke-linejoin: miter"/>
   </g>
   <g id="patch_8">
    <path d="M 120.710742 321.8376 
L 133.586136 321.8376 
L 133.586136 217.609824 
L 120.710742 217.609824 
z
" clip-path="url(#p392b0dfc26)" style="fill: #373d61; fill-opacity: 0.75; stroke: #4c4c4c; stroke-width: 0.7; stroke-linejoin: miter"/>
   </g>
   <g id="patch_9">
    <path d="M 133.586136 321.8376 
L 146.461529 321.8376 
L 146.461529 211.095588 
L 133.586136 211.095588 
z
" clip-path="url(#p392b0dfc26)" style="fill: #373d61; fill-opacity: 0.75; stroke: #4c4c4c; stroke-width: 0.7; stroke-linejoin: miter"/>
   </g>
   <g id="patch_10">
    <path d="M 146.461529 321.8376 
L 159.336923 321.8376 
L 159.336923 237.152532 
L 146.461529 237.152532 
z
" clip-path="url(#p392b0dfc26)" style="fill: #373d61; fill-opacity: 0.75; stroke: #4c4c4c; stroke-width: 0.7; stroke-linejoin: miter"/>
   </g>
   <g id="patch_11">
    <path d="M 159.336923 321.8376 
L 172.212316 321.8376 
L 172.212316 224.12406 
L 159.336923 224.12406 
z
" clip-path="url(#p392b0dfc26)" style="fill: #373d61; fill-opacity: 0.75; stroke: #4c4c4c; stroke-width: 0.7; stroke-linejoin: miter"/>
   </g>
   <g id="patch_12">
    <path d="M 172.212316 321.8376 
L 185.087709 321.8376 
L 185.087709 217.609824 
L 172.212316 217.609824 
z
" clip-path="url(#p392b0dfc26)" style="fill: #373d61; fill-opacity: 0.75; stroke: #4c4c4c; stroke-width: 0.7; stroke-linejoin: miter"/>
   </g>
   <g id="patch_13">
    <path d="M 185.087709 321.8376 
L 197.963103 321.8376 
L 197.963103 276.237948 
L 185.087709 276.237948 
z
" clip-path="url(#p392b0dfc26)" style="fill: #373d61; fill-opacity: 0.75; stroke: #4c4c4c; stroke-width: 0.7; stroke-linejoin: miter"/>
   </g>
   <g id="patch_14">
    <path d="M 197.963103 321.8376 
L 210.838496 321.8376 
L 210.838496 267.5523 
L 197.963103 267.5523 
z
" clip-path="url(#p392b0dfc26)" style="fill: #373d61; fill-opacity: 0.75; stroke: #4c4c4c; stroke-width: 0.7; stroke-linejoin: miter"/>
   </g>
   <g id="patch_15">
    <path d="M 210.838496 321.8376 
L 223.71389 321.8376 
L 223.71389 263.209476 
L 210.838496 263.209476 
z
" clip-path="url(#p392b0dfc26)" style="fill: #373d61; fill-opacity: 0.75; stroke: #4c4c4c; stroke-width: 0.7; stroke-linejoin: miter"/>
   </g>
   <g id="patch_16">
    <path d="M 223.71389 321.8376 
L 236.589283 321.8376 
L 236.589283 297.952068 
L 223.71389 297.952068 
z
" clip-path="url(#p392b0dfc26)" style="fill: #373d61; fill-opacity: 0.75; stroke: #4c4c4c; stroke-width: 0.7; stroke-linejoin: miter"/>
   </g>
   <g id="patch_17">
    <path d="M 236.589283 321.8376 
L 249.464676 321.8376 
L 249.464676 302.294892 
L 236.589283 302.294892 
z
" clip-path="url(#p392b0dfc26)" style="fill: #373d61; fill-opacity: 0.75; stroke: #4c4c4c; stroke-width: 0.7; stroke-linejoin: miter"/>
   </g>
   <g id="patch_18">
    <path d="M 249.464676 321.8376 
L 262.34007 321.8376 
L 262.34007 308.809128 
L 249.464676 308.809128 
z
" clip-path="url(#p392b0dfc26)" style="fill: #373d61; fill-opacity: 0.75; stroke: #4c4c4c; stroke-width: 0.7; stroke-linejoin: miter"/>
   </g>
   <g id="patch_19">
    <path d="M 262.34007 321.8376 
L 275.215463 321.8376 
L 275.215463 317.494776 
L 262.34007 317.494776 
z
" clip-path="url(#p392b0dfc26)" style="fill: #373d61; fill-opacity: 0.75; stroke: #4c4c4c; stroke-width: 0.7; stroke-linejoin: miter"/>
   </g>
   <g id="patch_20">
    <path d="M 275.215463 321.8376 
L 288.090856 321.8376 
L 288.090856 317.494776 
L 275.215463 317.494776 
z
" clip-path="url(#p392b0dfc26)" style="fill: #373d61; fill-opacity: 0.75; stroke: #4c4c4c; stroke-width: 0.7; stroke-linejoin: miter"/>
   </g>
   <g id="patch_21">
    <path d="M 288.090856 321.8376 
L 300.96625 321.8376 
L 300.96625 317.494776 
L 288.090856 317.494776 
z
" clip-path="url(#p392b0dfc26)" style="fill: #373d61; fill-opacity: 0.75; stroke: #4c4c4c; stroke-width: 0.7; stroke-linejoin: miter"/>
   </g>
   <g id="patch_22">
    <path d="M 300.96625 321.8376 
L 313.841643 321.8376 
L 313.841643 321.8376 
L 300.96625 321.8376 
z
" clip-path="url(#p392b0dfc26)" style="fill: #373d61; fill-opacity: 0.75; stroke: #4c4c4c; stroke-width: 0.7; stroke-linejoin: miter"/>
   </g>
   <g id="patch_23">
    <path d="M 313.841643 321.8376 
L 326.717037 321.8376 
L 326.717037 319.666188 
L 313.841643 319.666188 
z
" clip-path="url(#p392b0dfc26)" style="fill: #373d61; fill-opacity: 0.75; stroke: #4c4c4c; stroke-width: 0.7; stroke-linejoin: miter"/>
   </g>
   <g id="patch_24">
    <path d="M 56.333776 300.12348 
L 69.209169 300.12348 
L 69.209169 293.609244 
L 56.333776 293.609244 
z
" clip-path="url(#p392b0dfc26)" style="fill: #8b383f; fill-opacity: 0.75; stroke: #4c4c4c; stroke-width: 0.7; stroke-linejoin: miter"/>
   </g>
   <g id="patch_25">
    <path d="M 69.209169 291.437832 
L 82.084562 291.437832 
L 82.084562 263.209476 
L 69.209169 263.209476 
z
" clip-path="url(#p392b0dfc26)" style="fill: #8b383f; fill-opacity: 0.75; stroke: #4c4c4c; stroke-width: 0.7; stroke-linejoin: miter"/>
   </g>
   <g id="patch_26">
    <path d="M 82.084562 158.981699 
L 94.959956 158.981699 
L 94.959956 63.439571 
L 82.084562 63.439571 
z
" clip-path="url(#p392b0dfc26)" style="fill: #8b383f; fill-opacity: 0.75; stroke: #4c4c4c; stroke-width: 0.7; stroke-linejoin: miter"/>
   </g>
   <g id="patch_27">
    <path d="M 94.959956 172.010171 
L 107.835349 172.010171 
L 107.835349 59.096747 
L 94.959956 59.096747 
z
" clip-path="url(#p392b0dfc26)" style="fill: #8b383f; fill-opacity: 0.75; stroke: #4c4c4c; stroke-width: 0.7; stroke-linejoin: miter"/>
   </g>
   <g id="patch_28">
    <path d="M 107.835349 178.524407 
L 120.710742 178.524407 
L 120.710742 22.182743 
L 107.835349 22.182743 
z
" clip-path="url(#p392b0dfc26)" style="fill: #8b383f; fill-opacity: 0.75; stroke: #4c4c4c; stroke-width: 0.7; stroke-linejoin: miter"/>
   </g>
   <g id="patch_29">
    <path d="M 120.710742 217.609824 
L 133.586136 217.609824 
L 133.586136 80.810867 
L 120.710742 80.810867 
z
" clip-path="url(#p392b0dfc26)" style="fill: #8b383f; fill-opacity: 0.75; stroke: #4c4c4c; stroke-width: 0.7; stroke-linejoin: miter"/>
   </g>
   <g id="patch_30">
    <path d="M 133.586136 211.095588 
L 146.461529 211.095588 
L 146.461529 63.439571 
L 133.586136 63.439571 
z
" clip-path="url(#p392b0dfc26)" style="fill: #8b383f; fill-opacity: 0.75; stroke: #4c4c4c; stroke-width: 0.7; stroke-linejoin: miter"/>
   </g>
   <g id="patch_31">
    <path d="M 146.461529 237.152532 
L 159.336923 237.152532 
L 159.336923 98.182163 
L 146.461529 98.182163 
z
" clip-path="url(#p392b0dfc26)" style="fill: #8b383f; fill-opacity: 0.75; stroke: #4c4c4c; stroke-width: 0.7; stroke-linejoin: miter"/>
   </g>
   <g id="patch_32">
    <path d="M 159.336923 224.12406 
L 172.212316 224.12406 
L 172.212316 132.924755 
L 159.336923 132.924755 
z
" clip-path="url(#p392b0dfc26)" style="fill: #8b383f; fill-opacity: 0.75; stroke: #4c4c4c; stroke-width: 0.7; stroke-linejoin: miter"/>
   </g>
   <g id="patch_33">
    <path d="M 172.212316 217.609824 
L 185.087709 217.609824 
L 185.087709 163.324523 
L 172.212316 163.324523 
z
" clip-path="url(#p392b0dfc26)" style="fill: #8b383f; fill-opacity: 0.75; stroke: #4c4c4c; stroke-width: 0.7; stroke-linejoin: miter"/>
   </g>
   <g id="patch_34">
    <path d="M 185.087709 276.237948 
L 197.963103 276.237948 
L 197.963103 221.952648 
L 185.087709 221.952648 
z
" clip-path="url(#p392b0dfc26)" style="fill: #8b383f; fill-opacity: 0.75; stroke: #4c4c4c; stroke-width: 0.7; stroke-linejoin: miter"/>
   </g>
   <g id="patch_35">
    <path d="M 197.963103 267.5523 
L 210.838496 267.5523 
L 210.838496 213.267 
L 197.963103 213.267 
z
" clip-path="url(#p392b0dfc26)" style="fill: #8b383f; fill-opacity: 0.75; stroke: #4c4c4c; stroke-width: 0.7; stroke-linejoin: miter"/>
   </g>
   <g id="patch_36">
    <path d="M 210.838496 263.209476 
L 223.71389 263.209476 
L 223.71389 217.609824 
L 210.838496 217.609824 
z
" clip-path="url(#p392b0dfc26)" style="fill: #8b383f; fill-opacity: 0.75; stroke: #4c4c4c; stroke-width: 0.7; stroke-linejoin: miter"/>
   </g>
   <g id="patch_37">
    <path d="M 223.71389 297.952068 
L 236.589283 297.952068 
L 236.589283 274.066536 
L 223.71389 274.066536 
z
" clip-path="url(#p392b0dfc26)" style="fill: #8b383f; fill-opacity: 0.75; stroke: #4c4c4c; stroke-width: 0.7; stroke-linejoin: miter"/>
   </g>
   <g id="patch_38">
    <path d="M 236.589283 302.294892 
L 249.464676 302.294892 
L 249.464676 267.5523 
L 236.589283 267.5523 
z
" clip-path="url(#p392b0dfc26)" style="fill: #8b383f; fill-opacity: 0.75; stroke: #4c4c4c; stroke-width: 0.7; stroke-linejoin: miter"/>
   </g>
   <g id="patch_39">
    <path d="M 249.464676 308.809128 
L 262.34007 308.809128 
L 262.34007 300.12348 
L 249.464676 300.12348 
z
" clip-path="url(#p392b0dfc26)" style="fill: #8b383f; fill-opacity: 0.75; stroke: #4c4c4c; stroke-width: 0.7; stroke-linejoin: miter"/>
   </g>
   <g id="patch_40">
    <path d="M 262.34007 317.494776 
L 275.215463 317.494776 
L 275.215463 306.637716 
L 262.34007 306.637716 
z
" clip-path="url(#p392b0dfc26)" style="fill: #8b383f; fill-opacity: 0.75; stroke: #4c4c4c; stroke-width: 0.7; stroke-linejoin: miter"/>
   </g>
   <g id="patch_41">
    <path d="M 275.215463 317.494776 
L 288.090856 317.494776 
L 288.090856 313.151952 
L 275.215463 313.151952 
z
" clip-path="url(#p392b0dfc26)" style="fill: #8b383f; fill-opacity: 0.75; stroke: #4c4c4c; stroke-width: 0.7; stroke-linejoin: miter"/>
   </g>
   <g id="patch_42">
    <path d="M 288.090856 317.494776 
L 300.96625 317.494776 
L 300.96625 313.151952 
L 288.090856 313.151952 
z
" clip-path="url(#p392b0dfc26)" style="fill: #8b383f; fill-opacity: 0.75; stroke: #4c4c4c; stroke-width: 0.7; stroke-linejoin: miter"/>
   </g>
   <g id="patch_43">
    <path d="M 300.96625 321.8376 
L 313.841643 321.8376 
L 313.841643 319.666188 
L 300.96625 319.666188 
z
" clip-path="url(#p392b0dfc26)" style="fill: #8b383f; fill-opacity: 0.75; stroke: #4c4c4c; stroke-width: 0.7; stroke-linejoin: miter"/>
   </g>
   <g id="patch_44">
    <path d="M 313.841643 319.666188 
L 326.717037 319.666188 
L 326.717037 319.666188 
L 313.841643 319.666188 
z
" clip-path="url(#p392b0dfc26)" style="fill: #8b383f; fill-opacity: 0.75; stroke: #4c4c4c; stroke-width: 0.7; stroke-linejoin: miter"/>
   </g>
   <g id="line2d_11">
    <path d="M 137.448754 321.8376 
L 137.448754 7.2 
" clip-path="url(#p392b0dfc26)" style="fill: none; stroke-dasharray: 4.44,1.92; stroke-dashoffset: 0; stroke: #203ae0; stroke-width: 1.2"/>
   </g>
   <g id="patch_45">
    <path d="M 42.814613 321.8376 
L 42.814613 7.2 
" style="fill: none; stroke: #262626; stroke-linejoin: miter; stroke-linecap: square"/>
   </g>
   <g id="patch_46">
    <path d="M 42.814613 321.8376 
L 340.2362 321.8376 
" style="fill: none; stroke: #262626; stroke-linejoin: miter; stroke-linecap: square"/>
   </g>
  </g>
 </g>
 <defs>
  <clipPath id="p392b0dfc26">
   <rect x="42.814613" y="7.2" width="297.421587" height="314.6376"/>
  </clipPath>
 </defs>
</svg>
