<?xml version="1.0" encoding="utf-8" standalone="no"?>
<!DOCTYPE svg PUBLIC "-//W3C//DTD SVG 1.1//EN"
  "http://www.w3.org/Graphics/SVG/1.1/DTD/svg11.dtd">
<svg xmlns:xlink="http://www.w3.org/1999/xlink" width="224.09475pt" height="208.164637pt" viewBox="0 0 224.09475 208.164637" xmlns="http://www.w3.org/2000/svg" version="1.1">
 <metadata>
  <rdf:RDF xmlns:dc="http://purl.org/dc/elements/1.1/" xmlns:cc="http://creativecommons.org/ns#" xmlns:rdf="http://www.w3.org/1999/02/22-rdf-syntax-ns#">
   <cc:Work>
    <dc:type rdf:resource="http://purl.org/dc/dcmitype/StillImage"/>
    <dc:date>2024-10-03T16:37:15.498542</dc:date>
    <dc:format>image/svg+xml</dc:format>
    <dc:creator>
     <cc:Agent>
      <dc:title>Matplotlib v3.7.5, https://matplotlib.org/</dc:title>
     </cc:Agent>
    </dc:creator>
   </cc:Work>
  </rdf:RDF>
 </metadata>
 <defs>
  <style type="text/css">*{stroke-linejoin: round; stroke-linecap: butt}</style>
 </defs>
 <g id="figure_1">
  <g id="patch_1">
   <path d="M 0 208.164637 
L 224.09475 208.164637 
L 224.09475 0 
L 0 0 
z
" style="fill: #ffffff"/>
  </g>
  <g id="axes_1">
   <g id="patch_2">
    <path d="M 38.41035 173.52 
L 211.39035 173.52 
L 211.39035 7.2 
L 38.41035 7.2 
z
" style="fill: #ffffff"/>
   </g>
   <g id="matplotlib.axis_1">
    <g id="xtick_1">
     <g id="line2d_1">
      <defs>
       <path id="m5490a58687" d="M 0 0 
L 0 4.8 
" style="stroke: #262626"/>
      </defs>
      <g>
       <use xlink:href="#m5490a58687" x="38.41035" y="173.52" style="fill: #262626; stroke: #262626"/>
      </g>
     </g>
     <g id="text_1">
      <!-- 0.0 -->
      <g style="fill: #262626" transform="translate(32.90595 187.488988) scale(0.0792 -0.0792)">
       <defs>
        <path id="ArialMT-30" d="M 266 2259 
Q 266 3072 433 3567 
Q 600 4063 929 4331 
Q 1259 4600 1759 4600 
Q 2128 4600 2406 4451 
Q 2684 4303 2865 4023 
Q 3047 3744 3150 3342 
Q 3253 2941 3253 2259 
Q 3253 1453 3087 958 
Q 2922 463 2592 192 
Q 2263 -78 1759 -78 
Q 1097 -78 719 397 
Q 266 969 266 2259 
z
M 844 2259 
Q 844 1131 1108 757 
Q 1372 384 1759 384 
Q 2147 384 2411 759 
Q 2675 1134 2675 2259 
Q 2675 3391 2411 3762 
Q 2147 4134 1753 4134 
Q 1366 4134 1134 3806 
Q 844 3388 844 2259 
z
" transform="scale(0.015625)"/>
        <path id="ArialMT-2e" d="M 581 0 
L 581 641 
L 1222 641 
L 1222 0 
L 581 0 
z
" transform="scale(0.015625)"/>
       </defs>
       <use xlink:href="#ArialMT-30"/>
       <use xlink:href="#ArialMT-2e" x="55.615234"/>
       <use xlink:href="#ArialMT-30" x="83.398438"/>
      </g>
     </g>
    </g>
    <g id="xtick_2">
     <g id="line2d_2">
      <g>
       <use xlink:href="#m5490a58687" x="73.00635" y="173.52" style="fill: #262626; stroke: #262626"/>
      </g>
     </g>
     <g id="text_2">
      <!-- 0.2 -->
      <g style="fill: #262626" transform="translate(67.50195 187.488988) scale(0.0792 -0.0792)">
       <defs>
        <path id="ArialMT-32" d="M 3222 541 
L 3222 0 
L 194 0 
Q 188 203 259 391 
Q 375 700 629 1000 
Q 884 1300 1366 1694 
Q 2113 2306 2375 2664 
Q 2638 3022 2638 3341 
Q 2638 3675 2398 3904 
Q 2159 4134 1775 4134 
Q 1369 4134 1125 3890 
Q 881 3647 878 3216 
L 300 3275 
Q 359 3922 746 4261 
Q 1134 4600 1788 4600 
Q 2447 4600 2831 4234 
Q 3216 3869 3216 3328 
Q 3216 3053 3103 2787 
Q 2991 2522 2730 2228 
Q 2469 1934 1863 1422 
Q 1356 997 1212 845 
Q 1069 694 975 541 
L 3222 541 
z
" transform="scale(0.015625)"/>
       </defs>
       <use xlink:href="#ArialMT-30"/>
       <use xlink:href="#ArialMT-2e" x="55.615234"/>
       <use xlink:href="#ArialMT-32" x="83.398438"/>
      </g>
     </g>
    </g>
    <g id="xtick_3">
     <g id="line2d_3">
      <g>
       <use xlink:href="#m5490a58687" x="107.60235" y="173.52" style="fill: #262626; stroke: #262626"/>
      </g>
     </g>
     <g id="text_3">
      <!-- 0.4 -->
      <g style="fill: #262626" transform="translate(102.09795 187.488988) scale(0.0792 -0.0792)">
       <defs>
        <path id="ArialMT-34" d="M 2069 0 
L 2069 1097 
L 81 1097 
L 81 1613 
L 2172 4581 
L 2631 4581 
L 2631 1613 
L 3250 1613 
L 3250 1097 
L 2631 1097 
L 2631 0 
L 2069 0 
z
M 2069 1613 
L 2069 3678 
L 634 1613 
L 2069 1613 
z
" transform="scale(0.015625)"/>
       </defs>
       <use xlink:href="#ArialMT-30"/>
       <use xlink:href="#ArialMT-2e" x="55.615234"/>
       <use xlink:href="#ArialMT-34" x="83.398438"/>
      </g>
     </g>
    </g>
    <g id="xtick_4">
     <g id="line2d_4">
      <g>
       <use xlink:href="#m5490a58687" x="142.19835" y="173.52" style="fill: #262626; stroke: #262626"/>
      </g>
     </g>
     <g id="text_4">
      <!-- 0.6 -->
      <g style="fill: #262626" transform="translate(136.69395 187.488988) scale(0.0792 -0.0792)">
       <defs>
        <path id="ArialMT-36" d="M 3184 3459 
L 2625 3416 
Q 2550 3747 2413 3897 
Q 2184 4138 1850 4138 
Q 1581 4138 1378 3988 
Q 1113 3794 959 3422 
Q 806 3050 800 2363 
Q 1003 2672 1297 2822 
Q 1591 2972 1913 2972 
Q 2475 2972 2870 2558 
Q 3266 2144 3266 1488 
Q 3266 1056 3080 686 
Q 2894 316 2569 119 
Q 2244 -78 1831 -78 
Q 1128 -78 684 439 
Q 241 956 241 2144 
Q 241 3472 731 4075 
Q 1159 4600 1884 4600 
Q 2425 4600 2770 4297 
Q 3116 3994 3184 3459 
z
M 888 1484 
Q 888 1194 1011 928 
Q 1134 663 1356 523 
Q 1578 384 1822 384 
Q 2178 384 2434 671 
Q 2691 959 2691 1453 
Q 2691 1928 2437 2201 
Q 2184 2475 1800 2475 
Q 1419 2475 1153 2201 
Q 888 1928 888 1484 
z
" transform="scale(0.015625)"/>
       </defs>
       <use xlink:href="#ArialMT-30"/>
       <use xlink:href="#ArialMT-2e" x="55.615234"/>
       <use xlink:href="#ArialMT-36" x="83.398438"/>
      </g>
     </g>
    </g>
    <g id="xtick_5">
     <g id="line2d_5">
      <g>
       <use xlink:href="#m5490a58687" x="176.79435" y="173.52" style="fill: #262626; stroke: #262626"/>
      </g>
     </g>
     <g id="text_5">
      <!-- 0.8 -->
      <g style="fill: #262626" transform="translate(171.28995 187.488988) scale(0.0792 -0.0792)">
       <defs>
        <path id="ArialMT-38" d="M 1131 2484 
Q 781 2613 612 2850 
Q 444 3088 444 3419 
Q 444 3919 803 4259 
Q 1163 4600 1759 4600 
Q 2359 4600 2725 4251 
Q 3091 3903 3091 3403 
Q 3091 3084 2923 2848 
Q 2756 2613 2416 2484 
Q 2838 2347 3058 2040 
Q 3278 1734 3278 1309 
Q 3278 722 2862 322 
Q 2447 -78 1769 -78 
Q 1091 -78 675 323 
Q 259 725 259 1325 
Q 259 1772 486 2073 
Q 713 2375 1131 2484 
z
M 1019 3438 
Q 1019 3113 1228 2906 
Q 1438 2700 1772 2700 
Q 2097 2700 2305 2904 
Q 2513 3109 2513 3406 
Q 2513 3716 2298 3927 
Q 2084 4138 1766 4138 
Q 1444 4138 1231 3931 
Q 1019 3725 1019 3438 
z
M 838 1322 
Q 838 1081 952 856 
Q 1066 631 1291 507 
Q 1516 384 1775 384 
Q 2178 384 2440 643 
Q 2703 903 2703 1303 
Q 2703 1709 2433 1975 
Q 2163 2241 1756 2241 
Q 1359 2241 1098 1978 
Q 838 1716 838 1322 
z
" transform="scale(0.015625)"/>
       </defs>
       <use xlink:href="#ArialMT-30"/>
       <use xlink:href="#ArialMT-2e" x="55.615234"/>
       <use xlink:href="#ArialMT-38" x="83.398438"/>
      </g>
     </g>
    </g>
    <g id="xtick_6">
     <g id="line2d_6">
      <g>
       <use xlink:href="#m5490a58687" x="211.39035" y="173.52" style="fill: #262626; stroke: #262626"/>
      </g>
     </g>
     <g id="text_6">
      <!-- 1.0 -->
      <g style="fill: #262626" transform="translate(205.88595 187.488988) scale(0.0792 -0.0792)">
       <defs>
        <path id="ArialMT-31" d="M 2384 0 
L 1822 0 
L 1822 3584 
Q 1619 3391 1289 3197 
Q 959 3003 697 2906 
L 697 3450 
Q 1169 3672 1522 3987 
Q 1875 4303 2022 4600 
L 2384 4600 
L 2384 0 
z
" transform="scale(0.015625)"/>
       </defs>
       <use xlink:href="#ArialMT-31"/>
       <use xlink:href="#ArialMT-2e" x="55.615234"/>
       <use xlink:href="#ArialMT-30" x="83.398438"/>
      </g>
     </g>
    </g>
    <g id="text_7">
     <!-- Taux de FP -->
     <g style="fill: #262626" transform="translate(103.052625 199.247437) scale(0.0864 -0.0864)">
      <defs>
       <path id="ArialMT-54" d="M 1659 0 
L 1659 4041 
L 150 4041 
L 150 4581 
L 3781 4581 
L 3781 4041 
L 2266 4041 
L 2266 0 
L 1659 0 
z
" transform="scale(0.015625)"/>
       <path id="ArialMT-61" d="M 2588 409 
Q 2275 144 1986 34 
Q 1697 -75 1366 -75 
Q 819 -75 525 192 
Q 231 459 231 875 
Q 231 1119 342 1320 
Q 453 1522 633 1644 
Q 813 1766 1038 1828 
Q 1203 1872 1538 1913 
Q 2219 1994 2541 2106 
Q 2544 2222 2544 2253 
Q 2544 2597 2384 2738 
Q 2169 2928 1744 2928 
Q 1347 2928 1158 2789 
Q 969 2650 878 2297 
L 328 2372 
Q 403 2725 575 2942 
Q 747 3159 1072 3276 
Q 1397 3394 1825 3394 
Q 2250 3394 2515 3294 
Q 2781 3194 2906 3042 
Q 3031 2891 3081 2659 
Q 3109 2516 3109 2141 
L 3109 1391 
Q 3109 606 3145 398 
Q 3181 191 3288 0 
L 2700 0 
Q 2613 175 2588 409 
z
M 2541 1666 
Q 2234 1541 1622 1453 
Q 1275 1403 1131 1340 
Q 988 1278 909 1158 
Q 831 1038 831 891 
Q 831 666 1001 516 
Q 1172 366 1500 366 
Q 1825 366 2078 508 
Q 2331 650 2450 897 
Q 2541 1088 2541 1459 
L 2541 1666 
z
" transform="scale(0.015625)"/>
       <path id="ArialMT-75" d="M 2597 0 
L 2597 488 
Q 2209 -75 1544 -75 
Q 1250 -75 995 37 
Q 741 150 617 320 
Q 494 491 444 738 
Q 409 903 409 1263 
L 409 3319 
L 972 3319 
L 972 1478 
Q 972 1038 1006 884 
Q 1059 663 1231 536 
Q 1403 409 1656 409 
Q 1909 409 2131 539 
Q 2353 669 2445 892 
Q 2538 1116 2538 1541 
L 2538 3319 
L 3100 3319 
L 3100 0 
L 2597 0 
z
" transform="scale(0.015625)"/>
       <path id="ArialMT-78" d="M 47 0 
L 1259 1725 
L 138 3319 
L 841 3319 
L 1350 2541 
Q 1494 2319 1581 2169 
Q 1719 2375 1834 2534 
L 2394 3319 
L 3066 3319 
L 1919 1756 
L 3153 0 
L 2463 0 
L 1781 1031 
L 1600 1309 
L 728 0 
L 47 0 
z
" transform="scale(0.015625)"/>
       <path id="ArialMT-20" transform="scale(0.015625)"/>
       <path id="ArialMT-64" d="M 2575 0 
L 2575 419 
Q 2259 -75 1647 -75 
Q 1250 -75 917 144 
Q 584 363 401 755 
Q 219 1147 219 1656 
Q 219 2153 384 2558 
Q 550 2963 881 3178 
Q 1213 3394 1622 3394 
Q 1922 3394 2156 3267 
Q 2391 3141 2538 2938 
L 2538 4581 
L 3097 4581 
L 3097 0 
L 2575 0 
z
M 797 1656 
Q 797 1019 1065 703 
Q 1334 388 1700 388 
Q 2069 388 2326 689 
Q 2584 991 2584 1609 
Q 2584 2291 2321 2609 
Q 2059 2928 1675 2928 
Q 1300 2928 1048 2622 
Q 797 2316 797 1656 
z
" transform="scale(0.015625)"/>
       <path id="ArialMT-65" d="M 2694 1069 
L 3275 997 
Q 3138 488 2766 206 
Q 2394 -75 1816 -75 
Q 1088 -75 661 373 
Q 234 822 234 1631 
Q 234 2469 665 2931 
Q 1097 3394 1784 3394 
Q 2450 3394 2872 2941 
Q 3294 2488 3294 1666 
Q 3294 1616 3291 1516 
L 816 1516 
Q 847 969 1125 678 
Q 1403 388 1819 388 
Q 2128 388 2347 550 
Q 2566 713 2694 1069 
z
M 847 1978 
L 2700 1978 
Q 2663 2397 2488 2606 
Q 2219 2931 1791 2931 
Q 1403 2931 1139 2672 
Q 875 2413 847 1978 
z
" transform="scale(0.015625)"/>
       <path id="ArialMT-46" d="M 525 0 
L 525 4581 
L 3616 4581 
L 3616 4041 
L 1131 4041 
L 1131 2622 
L 3281 2622 
L 3281 2081 
L 1131 2081 
L 1131 0 
L 525 0 
z
" transform="scale(0.015625)"/>
       <path id="ArialMT-50" d="M 494 0 
L 494 4581 
L 2222 4581 
Q 2678 4581 2919 4538 
Q 3256 4481 3484 4323 
Q 3713 4166 3852 3881 
Q 3991 3597 3991 3256 
Q 3991 2672 3619 2267 
Q 3247 1863 2275 1863 
L 1100 1863 
L 1100 0 
L 494 0 
z
M 1100 2403 
L 2284 2403 
Q 2872 2403 3119 2622 
Q 3366 2841 3366 3238 
Q 3366 3525 3220 3729 
Q 3075 3934 2838 4000 
Q 2684 4041 2272 4041 
L 1100 4041 
L 1100 2403 
z
" transform="scale(0.015625)"/>
      </defs>
      <use xlink:href="#ArialMT-54"/>
      <use xlink:href="#ArialMT-61" x="49.958984"/>
      <use xlink:href="#ArialMT-75" x="105.574219"/>
      <use xlink:href="#ArialMT-78" x="161.189453"/>
      <use xlink:href="#ArialMT-20" x="211.189453"/>
      <use xlink:href="#ArialMT-64" x="238.972656"/>
      <use xlink:href="#ArialMT-65" x="294.587891"/>
      <use xlink:href="#ArialMT-20" x="350.203125"/>
      <use xlink:href="#ArialMT-46" x="377.986328"/>
      <use xlink:href="#ArialMT-50" x="439.070312"/>
     </g>
    </g>
   </g>
   <g id="matplotlib.axis_2">
    <g id="ytick_1">
     <g id="line2d_7">
      <defs>
       <path id="ma2341a48aa" d="M 0 0 
L -4.8 0 
" style="stroke: #262626"/>
      </defs>
      <g>
       <use xlink:href="#ma2341a48aa" x="38.41035" y="173.52" style="fill: #262626; stroke: #262626"/>
      </g>
     </g>
     <g id="text_8">
      <!-- 0.0 -->
      <g style="fill: #262626" transform="translate(19.10155 176.354494) scale(0.0792 -0.0792)">
       <use xlink:href="#ArialMT-30"/>
       <use xlink:href="#ArialMT-2e" x="55.615234"/>
       <use xlink:href="#ArialMT-30" x="83.398438"/>
      </g>
     </g>
    </g>
    <g id="ytick_2">
     <g id="line2d_8">
      <g>
       <use xlink:href="#ma2341a48aa" x="38.41035" y="141.84" style="fill: #262626; stroke: #262626"/>
      </g>
     </g>
     <g id="text_9">
      <!-- 0.2 -->
      <g style="fill: #262626" transform="translate(19.10155 144.674494) scale(0.0792 -0.0792)">
       <use xlink:href="#ArialMT-30"/>
       <use xlink:href="#ArialMT-2e" x="55.615234"/>
       <use xlink:href="#ArialMT-32" x="83.398438"/>
      </g>
     </g>
    </g>
    <g id="ytick_3">
     <g id="line2d_9">
      <g>
       <use xlink:href="#ma2341a48aa" x="38.41035" y="110.16" style="fill: #262626; stroke: #262626"/>
      </g>
     </g>
     <g id="text_10">
      <!-- 0.4 -->
      <g style="fill: #262626" transform="translate(19.10155 112.994494) scale(0.0792 -0.0792)">
       <use xlink:href="#ArialMT-30"/>
       <use xlink:href="#ArialMT-2e" x="55.615234"/>
       <use xlink:href="#ArialMT-34" x="83.398438"/>
      </g>
     </g>
    </g>
    <g id="ytick_4">
     <g id="line2d_10">
      <g>
       <use xlink:href="#ma2341a48aa" x="38.41035" y="78.48" style="fill: #262626; stroke: #262626"/>
      </g>
     </g>
     <g id="text_11">
      <!-- 0.6 -->
      <g style="fill: #262626" transform="translate(19.10155 81.314494) scale(0.0792 -0.0792)">
       <use xlink:href="#ArialMT-30"/>
       <use xlink:href="#ArialMT-2e" x="55.615234"/>
       <use xlink:href="#ArialMT-36" x="83.398438"/>
      </g>
     </g>
    </g>
    <g id="ytick_5">
     <g id="line2d_11">
      <g>
       <use xlink:href="#ma2341a48aa" x="38.41035" y="46.8" style="fill: #262626; stroke: #262626"/>
      </g>
     </g>
     <g id="text_12">
      <!-- 0.8 -->
      <g style="fill: #262626" transform="translate(19.10155 49.634494) scale(0.0792 -0.0792)">
       <use xlink:href="#ArialMT-30"/>
       <use xlink:href="#ArialMT-2e" x="55.615234"/>
       <use xlink:href="#ArialMT-38" x="83.398438"/>
      </g>
     </g>
    </g>
    <g id="ytick_6">
     <g id="line2d_12">
      <g>
       <use xlink:href="#ma2341a48aa" x="38.41035" y="15.12" style="fill: #262626; stroke: #262626"/>
      </g>
     </g>
     <g id="text_13">
      <!-- 1.0 -->
      <g style="fill: #262626" transform="translate(19.10155 17.954494) scale(0.0792 -0.0792)">
       <use xlink:href="#ArialMT-31"/>
       <use xlink:href="#ArialMT-2e" x="55.615234"/>
       <use xlink:href="#ArialMT-30" x="83.398438"/>
      </g>
     </g>
    </g>
    <g id="text_14">
     <!-- Taux de VP -->
     <g style="fill: #262626" transform="translate(13.38435 112.450725) rotate(-90) scale(0.0864 -0.0864)">
      <defs>
       <path id="ArialMT-56" d="M 1803 0 
L 28 4581 
L 684 4581 
L 1875 1253 
Q 2019 853 2116 503 
Q 2222 878 2363 1253 
L 3600 4581 
L 4219 4581 
L 2425 0 
L 1803 0 
z
" transform="scale(0.015625)"/>
      </defs>
      <use xlink:href="#ArialMT-54"/>
      <use xlink:href="#ArialMT-61" x="49.958984"/>
      <use xlink:href="#ArialMT-75" x="105.574219"/>
      <use xlink:href="#ArialMT-78" x="161.189453"/>
      <use xlink:href="#ArialMT-20" x="211.189453"/>
      <use xlink:href="#ArialMT-64" x="238.972656"/>
      <use xlink:href="#ArialMT-65" x="294.587891"/>
      <use xlink:href="#ArialMT-20" x="350.203125"/>
      <use xlink:href="#ArialMT-56" x="377.986328"/>
      <use xlink:href="#ArialMT-50" x="444.685547"/>
     </g>
    </g>
   </g>
   <g id="line2d_13">
    <path d="M 38.41035 173.52 
L 38.41035 165.886265 
L 39.50516 165.886265 
L 39.50516 159.206747 
L 40.59997 159.206747 
L 40.59997 157.298313 
L 41.69478 157.298313 
L 41.69478 156.344096 
L 44.979211 156.344096 
L 44.979211 155.38988 
L 46.074021 155.38988 
L 46.074021 151.573012 
L 47.168831 151.573012 
L 47.168831 150.618795 
L 49.358451 150.618795 
L 49.358451 148.710361 
L 50.453261 148.710361 
L 50.453261 146.801928 
L 51.548072 146.801928 
L 51.548072 143.939277 
L 52.642882 143.939277 
L 52.642882 142.030843 
L 54.832502 142.030843 
L 54.832502 141.076627 
L 55.927312 141.076627 
L 55.927312 136.305542 
L 57.022122 136.305542 
L 57.022122 135.351325 
L 59.211742 135.351325 
L 59.211742 134.397108 
L 60.306553 134.397108 
L 60.306553 133.442892 
L 62.496173 133.442892 
L 62.496173 128.671807 
L 63.590983 128.671807 
L 63.590983 127.71759 
L 64.685793 127.71759 
L 64.685793 121.992289 
L 65.780603 121.992289 
L 65.780603 121.038072 
L 66.875413 121.038072 
L 66.875413 118.175422 
L 67.970223 118.175422 
L 67.970223 115.312771 
L 69.065034 115.312771 
L 69.065034 114.358554 
L 70.159844 114.358554 
L 70.159844 112.45012 
L 73.444274 112.45012 
L 73.444274 110.541687 
L 74.539084 110.541687 
L 74.539084 108.633253 
L 75.633894 108.633253 
L 75.633894 106.724819 
L 80.013135 106.724819 
L 80.013135 104.816386 
L 84.392375 104.816386 
L 84.392375 103.862169 
L 85.487185 103.862169 
L 85.487185 100.999518 
L 86.581996 100.999518 
L 86.581996 99.091084 
L 88.771616 99.091084 
L 88.771616 98.136867 
L 89.866426 98.136867 
L 89.866426 97.182651 
L 92.056046 97.182651 
L 92.056046 90.503133 
L 93.150856 90.503133 
L 93.150856 89.548916 
L 95.340477 89.548916 
L 95.340477 87.640482 
L 96.435287 87.640482 
L 96.435287 84.777831 
L 97.530097 84.777831 
L 97.530097 82.869398 
L 99.719717 82.869398 
L 99.719717 80.006747 
L 103.004147 80.006747 
L 103.004147 77.144096 
L 105.193768 77.144096 
L 105.193768 76.18988 
L 106.288578 76.18988 
L 106.288578 75.235663 
L 107.383388 75.235663 
L 107.383388 73.327229 
L 110.667818 73.327229 
L 110.667818 70.464578 
L 112.857439 70.464578 
L 112.857439 69.510361 
L 116.141869 69.510361 
L 116.141869 68.556145 
L 117.236679 68.556145 
L 117.236679 67.601928 
L 118.331489 67.601928 
L 118.331489 65.693494 
L 119.426299 65.693494 
L 119.426299 61.876627 
L 121.61592 61.876627 
L 121.61592 59.968193 
L 122.71073 59.968193 
L 122.71073 58.059759 
L 127.08997 58.059759 
L 127.08997 57.105542 
L 138.038072 57.105542 
L 138.038072 54.242892 
L 143.512122 54.242892 
L 143.512122 52.334458 
L 144.606932 52.334458 
L 144.606932 50.426024 
L 146.796553 50.426024 
L 146.796553 49.471807 
L 150.080983 49.471807 
L 150.080983 48.51759 
L 151.175793 48.51759 
L 151.175793 46.609157 
L 155.555034 46.609157 
L 155.555034 45.65494 
L 156.649844 45.65494 
L 156.649844 44.700723 
L 161.029084 44.700723 
L 161.029084 43.746506 
L 162.123894 43.746506 
L 162.123894 42.792289 
L 165.408325 42.792289 
L 165.408325 40.883855 
L 166.503135 40.883855 
L 166.503135 37.066988 
L 168.692755 37.066988 
L 168.692755 33.25012 
L 170.882375 33.25012 
L 170.882375 32.295904 
L 173.071996 32.295904 
L 173.071996 27.524819 
L 175.261616 27.524819 
L 175.261616 25.616386 
L 177.451236 25.616386 
L 177.451236 24.662169 
L 179.640856 24.662169 
L 179.640856 23.707952 
L 181.830477 23.707952 
L 181.830477 20.845301 
L 185.114907 20.845301 
L 185.114907 19.891084 
L 186.209717 19.891084 
L 186.209717 17.982651 
L 194.968198 17.982651 
L 194.968198 17.028434 
L 196.063008 17.028434 
L 196.063008 16.074217 
L 209.20073 16.074217 
L 209.20073 15.12 
L 211.39035 15.12 
L 211.39035 15.12 
" clip-path="url(#pf35268a8b4)" style="fill: none; stroke: #4c72b0; stroke-width: 2; stroke-linecap: round"/>
   </g>
   <g id="line2d_14">
    <path d="M 38.41035 173.52 
L 38.41035 172.484706 
L 39.421929 172.484706 
L 39.421929 170.414118 
L 40.433508 170.414118 
L 40.433508 161.096471 
L 42.456666 161.096471 
L 42.456666 159.025882 
L 43.468245 159.025882 
L 43.468245 157.990588 
L 44.479824 157.990588 
L 44.479824 154.884706 
L 45.491403 154.884706 
L 45.491403 151.778824 
L 46.502982 151.778824 
L 46.502982 149.708235 
L 49.537718 149.708235 
L 49.537718 146.602353 
L 50.549297 146.602353 
L 50.549297 144.531765 
L 51.560876 144.531765 
L 51.560876 143.496471 
L 52.572455 143.496471 
L 52.572455 140.390588 
L 54.595613 140.390588 
L 54.595613 138.32 
L 57.63035 138.32 
L 57.63035 132.108235 
L 58.641929 132.108235 
L 58.641929 131.072941 
L 60.665087 131.072941 
L 60.665087 130.037647 
L 61.676666 130.037647 
L 61.676666 125.896471 
L 62.688245 125.896471 
L 62.688245 123.825882 
L 66.734561 123.825882 
L 66.734561 122.790588 
L 67.746139 122.790588 
L 67.746139 121.755294 
L 68.757718 121.755294 
L 68.757718 120.72 
L 70.780876 120.72 
L 70.780876 119.684706 
L 73.815613 119.684706 
L 73.815613 118.649412 
L 74.827192 118.649412 
L 74.827192 117.614118 
L 75.838771 117.614118 
L 75.838771 115.543529 
L 76.85035 115.543529 
L 76.85035 113.472941 
L 82.919824 113.472941 
L 82.919824 112.437647 
L 83.931403 112.437647 
L 83.931403 110.367059 
L 85.954561 110.367059 
L 85.954561 109.331765 
L 86.966139 109.331765 
L 86.966139 107.261176 
L 88.989297 107.261176 
L 88.989297 105.190588 
L 90.000876 105.190588 
L 90.000876 103.12 
L 91.012455 103.12 
L 91.012455 102.084706 
L 94.047192 102.084706 
L 94.047192 96.908235 
L 97.081929 96.908235 
L 97.081929 93.802353 
L 100.116666 93.802353 
L 100.116666 92.767059 
L 104.162982 92.767059 
L 104.162982 91.731765 
L 105.174561 91.731765 
L 105.174561 89.661176 
L 106.186139 89.661176 
L 106.186139 86.555294 
L 107.197718 86.555294 
L 107.197718 85.52 
L 110.232455 85.52 
L 110.232455 77.237647 
L 112.255613 77.237647 
L 112.255613 76.202353 
L 113.267192 76.202353 
L 113.267192 73.096471 
L 114.278771 73.096471 
L 114.278771 72.061176 
L 117.313508 72.061176 
L 117.313508 69.990588 
L 120.348245 69.990588 
L 120.348245 68.955294 
L 122.371403 68.955294 
L 122.371403 66.884706 
L 126.417718 66.884706 
L 126.417718 63.778824 
L 127.429297 63.778824 
L 127.429297 60.672941 
L 128.440876 60.672941 
L 128.440876 58.602353 
L 129.452455 58.602353 
L 129.452455 56.531765 
L 131.475613 56.531765 
L 131.475613 55.496471 
L 132.487192 55.496471 
L 132.487192 54.461176 
L 136.533508 54.461176 
L 136.533508 53.425882 
L 137.545087 53.425882 
L 137.545087 52.390588 
L 141.591403 52.390588 
L 141.591403 51.355294 
L 142.602982 51.355294 
L 142.602982 50.32 
L 152.718771 50.32 
L 152.718771 47.214118 
L 154.741929 47.214118 
L 154.741929 46.178824 
L 157.776666 46.178824 
L 157.776666 45.143529 
L 161.822982 45.143529 
L 161.822982 44.108235 
L 163.846139 44.108235 
L 163.846139 43.072941 
L 164.857718 43.072941 
L 164.857718 42.037647 
L 168.904034 42.037647 
L 168.904034 39.967059 
L 169.915613 39.967059 
L 169.915613 38.931765 
L 170.927192 38.931765 
L 170.927192 37.896471 
L 172.95035 37.896471 
L 172.95035 34.790588 
L 174.973508 34.790588 
L 174.973508 33.755294 
L 176.996666 33.755294 
L 176.996666 32.72 
L 179.019824 32.72 
L 179.019824 30.649412 
L 180.031403 30.649412 
L 180.031403 29.614118 
L 181.042982 29.614118 
L 181.042982 27.543529 
L 182.054561 27.543529 
L 182.054561 26.508235 
L 185.089297 26.508235 
L 185.089297 25.472941 
L 187.112455 25.472941 
L 187.112455 24.437647 
L 188.124034 24.437647 
L 188.124034 21.331765 
L 190.147192 21.331765 
L 190.147192 19.261176 
L 192.17035 19.261176 
L 192.17035 18.225882 
L 194.193508 18.225882 
L 194.193508 17.190588 
L 199.251403 17.190588 
L 199.251403 16.155294 
L 206.332455 16.155294 
L 206.332455 15.12 
L 211.39035 15.12 
L 211.39035 15.12 
" clip-path="url(#pf35268a8b4)" style="fill: none; stroke: #dd8452; stroke-width: 2; stroke-linecap: round"/>
   </g>
   <g id="line2d_15">
    <path d="M 38.41035 173.52 
L 211.39035 15.12 
" clip-path="url(#pf35268a8b4)" style="fill: none; stroke-dasharray: 7.4,3.2; stroke-dashoffset: 0; stroke: #000080; stroke-width: 2"/>
   </g>
   <g id="patch_3">
    <path d="M 38.41035 173.52 
L 38.41035 7.2 
" style="fill: none; stroke: #262626; stroke-linejoin: miter; stroke-linecap: square"/>
   </g>
   <g id="patch_4">
    <path d="M 211.39035 173.52 
L 211.39035 7.2 
" style="fill: none; stroke: #262626; stroke-linejoin: miter; stroke-linecap: square"/>
   </g>
   <g id="patch_5">
    <path d="M 38.41035 173.52 
L 211.39035 173.52 
" style="fill: none; stroke: #262626; stroke-linejoin: miter; stroke-linecap: square"/>
   </g>
   <g id="patch_6">
    <path d="M 38.41035 7.2 
L 211.39035 7.2 
" style="fill: none; stroke: #262626; stroke-linejoin: miter; stroke-linecap: square"/>
   </g>
   <g id="legend_1">
    <g id="patch_7">
     <path d="M 103.251412 169.56 
L 205.84635 169.56 
Q 207.43035 169.56 207.43035 167.976 
L 207.43035 145.97325 
Q 207.43035 144.38925 205.84635 144.38925 
L 103.251412 144.38925 
Q 101.667412 144.38925 101.667412 145.97325 
L 101.667412 167.976 
Q 101.667412 169.56 103.251412 169.56 
z
" style="fill: #ffffff; opacity: 0.8; stroke: #cccccc; stroke-width: 0.8; stroke-linejoin: miter"/>
    </g>
    <g id="line2d_16">
     <path d="M 104.835412 150.555712 
L 112.755412 150.555712 
L 120.675412 150.555712 
" style="fill: none; stroke: #4c72b0; stroke-width: 2; stroke-linecap: round"/>
    </g>
    <g id="text_15">
     <!-- ROC E1 (area = 0.65) -->
     <g style="fill: #262626" transform="translate(127.011412 153.327712) scale(0.0792 -0.0792)">
      <defs>
       <path id="ArialMT-52" d="M 503 0 
L 503 4581 
L 2534 4581 
Q 3147 4581 3465 4457 
Q 3784 4334 3975 4021 
Q 4166 3709 4166 3331 
Q 4166 2844 3850 2509 
Q 3534 2175 2875 2084 
Q 3116 1969 3241 1856 
Q 3506 1613 3744 1247 
L 4541 0 
L 3778 0 
L 3172 953 
Q 2906 1366 2734 1584 
Q 2563 1803 2427 1890 
Q 2291 1978 2150 2013 
Q 2047 2034 1813 2034 
L 1109 2034 
L 1109 0 
L 503 0 
z
M 1109 2559 
L 2413 2559 
Q 2828 2559 3062 2645 
Q 3297 2731 3419 2920 
Q 3541 3109 3541 3331 
Q 3541 3656 3305 3865 
Q 3069 4075 2559 4075 
L 1109 4075 
L 1109 2559 
z
" transform="scale(0.015625)"/>
       <path id="ArialMT-4f" d="M 309 2231 
Q 309 3372 921 4017 
Q 1534 4663 2503 4663 
Q 3138 4663 3647 4359 
Q 4156 4056 4423 3514 
Q 4691 2972 4691 2284 
Q 4691 1588 4409 1038 
Q 4128 488 3612 205 
Q 3097 -78 2500 -78 
Q 1853 -78 1343 234 
Q 834 547 571 1087 
Q 309 1628 309 2231 
z
M 934 2222 
Q 934 1394 1379 917 
Q 1825 441 2497 441 
Q 3181 441 3623 922 
Q 4066 1403 4066 2288 
Q 4066 2847 3877 3264 
Q 3688 3681 3323 3911 
Q 2959 4141 2506 4141 
Q 1863 4141 1398 3698 
Q 934 3256 934 2222 
z
" transform="scale(0.015625)"/>
       <path id="ArialMT-43" d="M 3763 1606 
L 4369 1453 
Q 4178 706 3683 314 
Q 3188 -78 2472 -78 
Q 1731 -78 1267 223 
Q 803 525 561 1097 
Q 319 1669 319 2325 
Q 319 3041 592 3573 
Q 866 4106 1370 4382 
Q 1875 4659 2481 4659 
Q 3169 4659 3637 4309 
Q 4106 3959 4291 3325 
L 3694 3184 
Q 3534 3684 3231 3912 
Q 2928 4141 2469 4141 
Q 1941 4141 1586 3887 
Q 1231 3634 1087 3207 
Q 944 2781 944 2328 
Q 944 1744 1114 1308 
Q 1284 872 1643 656 
Q 2003 441 2422 441 
Q 2931 441 3284 734 
Q 3638 1028 3763 1606 
z
" transform="scale(0.015625)"/>
       <path id="ArialMT-45" d="M 506 0 
L 506 4581 
L 3819 4581 
L 3819 4041 
L 1113 4041 
L 1113 2638 
L 3647 2638 
L 3647 2100 
L 1113 2100 
L 1113 541 
L 3925 541 
L 3925 0 
L 506 0 
z
" transform="scale(0.015625)"/>
       <path id="ArialMT-28" d="M 1497 -1347 
Q 1031 -759 709 28 
Q 388 816 388 1659 
Q 388 2403 628 3084 
Q 909 3875 1497 4659 
L 1900 4659 
Q 1522 4009 1400 3731 
Q 1209 3300 1100 2831 
Q 966 2247 966 1656 
Q 966 153 1900 -1347 
L 1497 -1347 
z
" transform="scale(0.015625)"/>
       <path id="ArialMT-72" d="M 416 0 
L 416 3319 
L 922 3319 
L 922 2816 
Q 1116 3169 1280 3281 
Q 1444 3394 1641 3394 
Q 1925 3394 2219 3213 
L 2025 2691 
Q 1819 2813 1613 2813 
Q 1428 2813 1281 2702 
Q 1134 2591 1072 2394 
Q 978 2094 978 1738 
L 978 0 
L 416 0 
z
" transform="scale(0.015625)"/>
       <path id="ArialMT-3d" d="M 3381 2694 
L 356 2694 
L 356 3219 
L 3381 3219 
L 3381 2694 
z
M 3381 1303 
L 356 1303 
L 356 1828 
L 3381 1828 
L 3381 1303 
z
" transform="scale(0.015625)"/>
       <path id="ArialMT-35" d="M 266 1200 
L 856 1250 
Q 922 819 1161 601 
Q 1400 384 1738 384 
Q 2144 384 2425 690 
Q 2706 997 2706 1503 
Q 2706 1984 2436 2262 
Q 2166 2541 1728 2541 
Q 1456 2541 1237 2417 
Q 1019 2294 894 2097 
L 366 2166 
L 809 4519 
L 3088 4519 
L 3088 3981 
L 1259 3981 
L 1013 2750 
Q 1425 3038 1878 3038 
Q 2478 3038 2890 2622 
Q 3303 2206 3303 1553 
Q 3303 931 2941 478 
Q 2500 -78 1738 -78 
Q 1113 -78 717 272 
Q 322 622 266 1200 
z
" transform="scale(0.015625)"/>
       <path id="ArialMT-29" d="M 791 -1347 
L 388 -1347 
Q 1322 153 1322 1656 
Q 1322 2244 1188 2822 
Q 1081 3291 891 3722 
Q 769 4003 388 4659 
L 791 4659 
Q 1378 3875 1659 3084 
Q 1900 2403 1900 1659 
Q 1900 816 1576 28 
Q 1253 -759 791 -1347 
z
" transform="scale(0.015625)"/>
      </defs>
      <use xlink:href="#ArialMT-52"/>
      <use xlink:href="#ArialMT-4f" x="72.216797"/>
      <use xlink:href="#ArialMT-43" x="150"/>
      <use xlink:href="#ArialMT-20" x="222.216797"/>
      <use xlink:href="#ArialMT-45" x="250"/>
      <use xlink:href="#ArialMT-31" x="316.699219"/>
      <use xlink:href="#ArialMT-20" x="372.314453"/>
      <use xlink:href="#ArialMT-28" x="400.097656"/>
      <use xlink:href="#ArialMT-61" x="433.398438"/>
      <use xlink:href="#ArialMT-72" x="489.013672"/>
      <use xlink:href="#ArialMT-65" x="522.314453"/>
      <use xlink:href="#ArialMT-61" x="577.929688"/>
      <use xlink:href="#ArialMT-20" x="633.544922"/>
      <use xlink:href="#ArialMT-3d" x="661.328125"/>
      <use xlink:href="#ArialMT-20" x="719.726562"/>
      <use xlink:href="#ArialMT-30" x="747.509766"/>
      <use xlink:href="#ArialMT-2e" x="803.125"/>
      <use xlink:href="#ArialMT-36" x="830.908203"/>
      <use xlink:href="#ArialMT-35" x="886.523438"/>
      <use xlink:href="#ArialMT-29" x="942.138672"/>
     </g>
    </g>
    <g id="line2d_17">
     <path d="M 104.835412 161.953088 
L 112.755412 161.953088 
L 120.675412 161.953088 
" style="fill: none; stroke: #dd8452; stroke-width: 2; stroke-linecap: round"/>
    </g>
    <g id="text_16">
     <!-- ROC E2 (area = 0.62) -->
     <g style="fill: #262626" transform="translate(127.011412 164.725088) scale(0.0792 -0.0792)">
      <use xlink:href="#ArialMT-52"/>
      <use xlink:href="#ArialMT-4f" x="72.216797"/>
      <use xlink:href="#ArialMT-43" x="150"/>
      <use xlink:href="#ArialMT-20" x="222.216797"/>
      <use xlink:href="#ArialMT-45" x="250"/>
      <use xlink:href="#ArialMT-32" x="316.699219"/>
      <use xlink:href="#ArialMT-20" x="372.314453"/>
      <use xlink:href="#ArialMT-28" x="400.097656"/>
      <use xlink:href="#ArialMT-61" x="433.398438"/>
      <use xlink:href="#ArialMT-72" x="489.013672"/>
      <use xlink:href="#ArialMT-65" x="522.314453"/>
      <use xlink:href="#ArialMT-61" x="577.929688"/>
      <use xlink:href="#ArialMT-20" x="633.544922"/>
      <use xlink:href="#ArialMT-3d" x="661.328125"/>
      <use xlink:href="#ArialMT-20" x="719.726562"/>
      <use xlink:href="#ArialMT-30" x="747.509766"/>
      <use xlink:href="#ArialMT-2e" x="803.125"/>
      <use xlink:href="#ArialMT-36" x="830.908203"/>
      <use xlink:href="#ArialMT-32" x="886.523438"/>
      <use xlink:href="#ArialMT-29" x="942.138672"/>
     </g>
    </g>
   </g>
  </g>
 </g>
 <defs>
  <clipPath id="pf35268a8b4">
   <rect x="38.41035" y="7.2" width="172.98" height="166.32"/>
  </clipPath>
 </defs>
</svg>
